<?xml version="1.0" encoding="utf-8" standalone="no"?>
<!DOCTYPE svg PUBLIC "-//W3C//DTD SVG 1.1//EN"
  "http://www.w3.org/Graphics/SVG/1.1/DTD/svg11.dtd">
<!-- Created with matplotlib (https://matplotlib.org/) -->
<svg height="360pt" version="1.1" viewBox="0 0 432 360" width="432pt" xmlns="http://www.w3.org/2000/svg" xmlns:xlink="http://www.w3.org/1999/xlink">
 <defs>
  <style type="text/css">
*{stroke-linecap:butt;stroke-linejoin:round;}
  </style>
 </defs>
 <g id="figure_1">
  <g id="patch_1">
   <path d="M 0 360 
L 432 360 
L 432 0 
L 0 0 
z
" style="fill:#ffffff;"/>
  </g>
  <g id="axes_1">
   <g id="patch_2">
    <path d="M 54 320.4 
L 388.8 320.4 
L 388.8 43.2 
L 54 43.2 
z
" style="fill:#ffffff;"/>
   </g>
   <g id="matplotlib.axis_1">
    <g id="xtick_1">
     <g id="line2d_1">
      <defs>
       <path d="M 0 0 
L 0 3.5 
" id="m2d98e3cecb" style="stroke:#000000;stroke-width:0.8;"/>
      </defs>
      <g>
       <use style="stroke:#000000;stroke-width:0.8;" x="69.218182" xlink:href="#m2d98e3cecb" y="320.4"/>
      </g>
     </g>
     <g id="text_1">
      <!-- 0.0 -->
      <defs>
       <path d="M 31.78125 66.40625 
Q 24.171875 66.40625 20.328125 58.90625 
Q 16.5 51.421875 16.5 36.375 
Q 16.5 21.390625 20.328125 13.890625 
Q 24.171875 6.390625 31.78125 6.390625 
Q 39.453125 6.390625 43.28125 13.890625 
Q 47.125 21.390625 47.125 36.375 
Q 47.125 51.421875 43.28125 58.90625 
Q 39.453125 66.40625 31.78125 66.40625 
z
M 31.78125 74.21875 
Q 44.046875 74.21875 50.515625 64.515625 
Q 56.984375 54.828125 56.984375 36.375 
Q 56.984375 17.96875 50.515625 8.265625 
Q 44.046875 -1.421875 31.78125 -1.421875 
Q 19.53125 -1.421875 13.0625 8.265625 
Q 6.59375 17.96875 6.59375 36.375 
Q 6.59375 54.828125 13.0625 64.515625 
Q 19.53125 74.21875 31.78125 74.21875 
z
" id="DejaVuSans-48"/>
       <path d="M 10.6875 12.40625 
L 21 12.40625 
L 21 0 
L 10.6875 0 
z
" id="DejaVuSans-46"/>
      </defs>
      <g transform="translate(61.266619 334.998438)scale(0.1 -0.1)">
       <use xlink:href="#DejaVuSans-48"/>
       <use x="63.623047" xlink:href="#DejaVuSans-46"/>
       <use x="95.410156" xlink:href="#DejaVuSans-48"/>
      </g>
     </g>
    </g>
    <g id="xtick_2">
     <g id="line2d_2">
      <g>
       <use style="stroke:#000000;stroke-width:0.8;" x="130.090909" xlink:href="#m2d98e3cecb" y="320.4"/>
      </g>
     </g>
     <g id="text_2">
      <!-- 0.2 -->
      <defs>
       <path d="M 19.1875 8.296875 
L 53.609375 8.296875 
L 53.609375 0 
L 7.328125 0 
L 7.328125 8.296875 
Q 12.9375 14.109375 22.625 23.890625 
Q 32.328125 33.6875 34.8125 36.53125 
Q 39.546875 41.84375 41.421875 45.53125 
Q 43.3125 49.21875 43.3125 52.78125 
Q 43.3125 58.59375 39.234375 62.25 
Q 35.15625 65.921875 28.609375 65.921875 
Q 23.96875 65.921875 18.8125 64.3125 
Q 13.671875 62.703125 7.8125 59.421875 
L 7.8125 69.390625 
Q 13.765625 71.78125 18.9375 73 
Q 24.125 74.21875 28.421875 74.21875 
Q 39.75 74.21875 46.484375 68.546875 
Q 53.21875 62.890625 53.21875 53.421875 
Q 53.21875 48.921875 51.53125 44.890625 
Q 49.859375 40.875 45.40625 35.40625 
Q 44.1875 33.984375 37.640625 27.21875 
Q 31.109375 20.453125 19.1875 8.296875 
z
" id="DejaVuSans-50"/>
      </defs>
      <g transform="translate(122.139347 334.998438)scale(0.1 -0.1)">
       <use xlink:href="#DejaVuSans-48"/>
       <use x="63.623047" xlink:href="#DejaVuSans-46"/>
       <use x="95.410156" xlink:href="#DejaVuSans-50"/>
      </g>
     </g>
    </g>
    <g id="xtick_3">
     <g id="line2d_3">
      <g>
       <use style="stroke:#000000;stroke-width:0.8;" x="190.963636" xlink:href="#m2d98e3cecb" y="320.4"/>
      </g>
     </g>
     <g id="text_3">
      <!-- 0.4 -->
      <defs>
       <path d="M 37.796875 64.3125 
L 12.890625 25.390625 
L 37.796875 25.390625 
z
M 35.203125 72.90625 
L 47.609375 72.90625 
L 47.609375 25.390625 
L 58.015625 25.390625 
L 58.015625 17.1875 
L 47.609375 17.1875 
L 47.609375 0 
L 37.796875 0 
L 37.796875 17.1875 
L 4.890625 17.1875 
L 4.890625 26.703125 
z
" id="DejaVuSans-52"/>
      </defs>
      <g transform="translate(183.012074 334.998438)scale(0.1 -0.1)">
       <use xlink:href="#DejaVuSans-48"/>
       <use x="63.623047" xlink:href="#DejaVuSans-46"/>
       <use x="95.410156" xlink:href="#DejaVuSans-52"/>
      </g>
     </g>
    </g>
    <g id="xtick_4">
     <g id="line2d_4">
      <g>
       <use style="stroke:#000000;stroke-width:0.8;" x="251.836364" xlink:href="#m2d98e3cecb" y="320.4"/>
      </g>
     </g>
     <g id="text_4">
      <!-- 0.6 -->
      <defs>
       <path d="M 33.015625 40.375 
Q 26.375 40.375 22.484375 35.828125 
Q 18.609375 31.296875 18.609375 23.390625 
Q 18.609375 15.53125 22.484375 10.953125 
Q 26.375 6.390625 33.015625 6.390625 
Q 39.65625 6.390625 43.53125 10.953125 
Q 47.40625 15.53125 47.40625 23.390625 
Q 47.40625 31.296875 43.53125 35.828125 
Q 39.65625 40.375 33.015625 40.375 
z
M 52.59375 71.296875 
L 52.59375 62.3125 
Q 48.875 64.0625 45.09375 64.984375 
Q 41.3125 65.921875 37.59375 65.921875 
Q 27.828125 65.921875 22.671875 59.328125 
Q 17.53125 52.734375 16.796875 39.40625 
Q 19.671875 43.65625 24.015625 45.921875 
Q 28.375 48.1875 33.59375 48.1875 
Q 44.578125 48.1875 50.953125 41.515625 
Q 57.328125 34.859375 57.328125 23.390625 
Q 57.328125 12.15625 50.6875 5.359375 
Q 44.046875 -1.421875 33.015625 -1.421875 
Q 20.359375 -1.421875 13.671875 8.265625 
Q 6.984375 17.96875 6.984375 36.375 
Q 6.984375 53.65625 15.1875 63.9375 
Q 23.390625 74.21875 37.203125 74.21875 
Q 40.921875 74.21875 44.703125 73.484375 
Q 48.484375 72.75 52.59375 71.296875 
z
" id="DejaVuSans-54"/>
      </defs>
      <g transform="translate(243.884801 334.998438)scale(0.1 -0.1)">
       <use xlink:href="#DejaVuSans-48"/>
       <use x="63.623047" xlink:href="#DejaVuSans-46"/>
       <use x="95.410156" xlink:href="#DejaVuSans-54"/>
      </g>
     </g>
    </g>
    <g id="xtick_5">
     <g id="line2d_5">
      <g>
       <use style="stroke:#000000;stroke-width:0.8;" x="312.709091" xlink:href="#m2d98e3cecb" y="320.4"/>
      </g>
     </g>
     <g id="text_5">
      <!-- 0.8 -->
      <defs>
       <path d="M 31.78125 34.625 
Q 24.75 34.625 20.71875 30.859375 
Q 16.703125 27.09375 16.703125 20.515625 
Q 16.703125 13.921875 20.71875 10.15625 
Q 24.75 6.390625 31.78125 6.390625 
Q 38.8125 6.390625 42.859375 10.171875 
Q 46.921875 13.96875 46.921875 20.515625 
Q 46.921875 27.09375 42.890625 30.859375 
Q 38.875 34.625 31.78125 34.625 
z
M 21.921875 38.8125 
Q 15.578125 40.375 12.03125 44.71875 
Q 8.5 49.078125 8.5 55.328125 
Q 8.5 64.0625 14.71875 69.140625 
Q 20.953125 74.21875 31.78125 74.21875 
Q 42.671875 74.21875 48.875 69.140625 
Q 55.078125 64.0625 55.078125 55.328125 
Q 55.078125 49.078125 51.53125 44.71875 
Q 48 40.375 41.703125 38.8125 
Q 48.828125 37.15625 52.796875 32.3125 
Q 56.78125 27.484375 56.78125 20.515625 
Q 56.78125 9.90625 50.3125 4.234375 
Q 43.84375 -1.421875 31.78125 -1.421875 
Q 19.734375 -1.421875 13.25 4.234375 
Q 6.78125 9.90625 6.78125 20.515625 
Q 6.78125 27.484375 10.78125 32.3125 
Q 14.796875 37.15625 21.921875 38.8125 
z
M 18.3125 54.390625 
Q 18.3125 48.734375 21.84375 45.5625 
Q 25.390625 42.390625 31.78125 42.390625 
Q 38.140625 42.390625 41.71875 45.5625 
Q 45.3125 48.734375 45.3125 54.390625 
Q 45.3125 60.0625 41.71875 63.234375 
Q 38.140625 66.40625 31.78125 66.40625 
Q 25.390625 66.40625 21.84375 63.234375 
Q 18.3125 60.0625 18.3125 54.390625 
z
" id="DejaVuSans-56"/>
      </defs>
      <g transform="translate(304.757528 334.998438)scale(0.1 -0.1)">
       <use xlink:href="#DejaVuSans-48"/>
       <use x="63.623047" xlink:href="#DejaVuSans-46"/>
       <use x="95.410156" xlink:href="#DejaVuSans-56"/>
      </g>
     </g>
    </g>
    <g id="xtick_6">
     <g id="line2d_6">
      <g>
       <use style="stroke:#000000;stroke-width:0.8;" x="373.581818" xlink:href="#m2d98e3cecb" y="320.4"/>
      </g>
     </g>
     <g id="text_6">
      <!-- 1.0 -->
      <defs>
       <path d="M 12.40625 8.296875 
L 28.515625 8.296875 
L 28.515625 63.921875 
L 10.984375 60.40625 
L 10.984375 69.390625 
L 28.421875 72.90625 
L 38.28125 72.90625 
L 38.28125 8.296875 
L 54.390625 8.296875 
L 54.390625 0 
L 12.40625 0 
z
" id="DejaVuSans-49"/>
      </defs>
      <g transform="translate(365.630256 334.998438)scale(0.1 -0.1)">
       <use xlink:href="#DejaVuSans-49"/>
       <use x="63.623047" xlink:href="#DejaVuSans-46"/>
       <use x="95.410156" xlink:href="#DejaVuSans-48"/>
      </g>
     </g>
    </g>
   </g>
   <g id="matplotlib.axis_2">
    <g id="ytick_1">
     <g id="line2d_7">
      <defs>
       <path d="M 0 0 
L -3.5 0 
" id="me034b43eb2" style="stroke:#000000;stroke-width:0.8;"/>
      </defs>
      <g>
       <use style="stroke:#000000;stroke-width:0.8;" x="54" xlink:href="#me034b43eb2" y="307.8"/>
      </g>
     </g>
     <g id="text_7">
      <!-- 0 -->
      <g transform="translate(40.6375 311.599219)scale(0.1 -0.1)">
       <use xlink:href="#DejaVuSans-48"/>
      </g>
     </g>
    </g>
    <g id="ytick_2">
     <g id="line2d_8">
      <g>
       <use style="stroke:#000000;stroke-width:0.8;" x="54" xlink:href="#me034b43eb2" y="269.030769"/>
      </g>
     </g>
     <g id="text_8">
      <!-- 200 -->
      <g transform="translate(27.9125 272.829988)scale(0.1 -0.1)">
       <use xlink:href="#DejaVuSans-50"/>
       <use x="63.623047" xlink:href="#DejaVuSans-48"/>
       <use x="127.246094" xlink:href="#DejaVuSans-48"/>
      </g>
     </g>
    </g>
    <g id="ytick_3">
     <g id="line2d_9">
      <g>
       <use style="stroke:#000000;stroke-width:0.8;" x="54" xlink:href="#me034b43eb2" y="230.261538"/>
      </g>
     </g>
     <g id="text_9">
      <!-- 400 -->
      <g transform="translate(27.9125 234.060757)scale(0.1 -0.1)">
       <use xlink:href="#DejaVuSans-52"/>
       <use x="63.623047" xlink:href="#DejaVuSans-48"/>
       <use x="127.246094" xlink:href="#DejaVuSans-48"/>
      </g>
     </g>
    </g>
    <g id="ytick_4">
     <g id="line2d_10">
      <g>
       <use style="stroke:#000000;stroke-width:0.8;" x="54" xlink:href="#me034b43eb2" y="191.492308"/>
      </g>
     </g>
     <g id="text_10">
      <!-- 600 -->
      <g transform="translate(27.9125 195.291526)scale(0.1 -0.1)">
       <use xlink:href="#DejaVuSans-54"/>
       <use x="63.623047" xlink:href="#DejaVuSans-48"/>
       <use x="127.246094" xlink:href="#DejaVuSans-48"/>
      </g>
     </g>
    </g>
    <g id="ytick_5">
     <g id="line2d_11">
      <g>
       <use style="stroke:#000000;stroke-width:0.8;" x="54" xlink:href="#me034b43eb2" y="152.723077"/>
      </g>
     </g>
     <g id="text_11">
      <!-- 800 -->
      <g transform="translate(27.9125 156.522296)scale(0.1 -0.1)">
       <use xlink:href="#DejaVuSans-56"/>
       <use x="63.623047" xlink:href="#DejaVuSans-48"/>
       <use x="127.246094" xlink:href="#DejaVuSans-48"/>
      </g>
     </g>
    </g>
    <g id="ytick_6">
     <g id="line2d_12">
      <g>
       <use style="stroke:#000000;stroke-width:0.8;" x="54" xlink:href="#me034b43eb2" y="113.953846"/>
      </g>
     </g>
     <g id="text_12">
      <!-- 1000 -->
      <g transform="translate(21.55 117.753065)scale(0.1 -0.1)">
       <use xlink:href="#DejaVuSans-49"/>
       <use x="63.623047" xlink:href="#DejaVuSans-48"/>
       <use x="127.246094" xlink:href="#DejaVuSans-48"/>
       <use x="190.869141" xlink:href="#DejaVuSans-48"/>
      </g>
     </g>
    </g>
    <g id="ytick_7">
     <g id="line2d_13">
      <g>
       <use style="stroke:#000000;stroke-width:0.8;" x="54" xlink:href="#me034b43eb2" y="75.184615"/>
      </g>
     </g>
     <g id="text_13">
      <!-- 1200 -->
      <g transform="translate(21.55 78.983834)scale(0.1 -0.1)">
       <use xlink:href="#DejaVuSans-49"/>
       <use x="63.623047" xlink:href="#DejaVuSans-50"/>
       <use x="127.246094" xlink:href="#DejaVuSans-48"/>
       <use x="190.869141" xlink:href="#DejaVuSans-48"/>
      </g>
     </g>
    </g>
   </g>
   <g id="line2d_14">
    <path clip-path="url(#p2eb5bef362)" d="M 54 307.8 
L 388.8 307.8 
" style="fill:none;stroke:#d3d3d3;stroke-dasharray:1.5,2.475;stroke-dashoffset:0;stroke-width:1.5;"/>
   </g>
   <g id="line2d_15">
    <path clip-path="url(#p2eb5bef362)" d="M 54 288.415385 
L 388.8 288.415385 
" style="fill:none;stroke:#d3d3d3;stroke-dasharray:1.5,2.475;stroke-dashoffset:0;stroke-width:1.5;"/>
   </g>
   <g id="line2d_16">
    <path clip-path="url(#p2eb5bef362)" d="M 54 269.030769 
L 388.8 269.030769 
" style="fill:none;stroke:#d3d3d3;stroke-dasharray:1.5,2.475;stroke-dashoffset:0;stroke-width:1.5;"/>
   </g>
   <g id="line2d_17">
    <path clip-path="url(#p2eb5bef362)" d="M 54 249.646154 
L 388.8 249.646154 
" style="fill:none;stroke:#d3d3d3;stroke-dasharray:1.5,2.475;stroke-dashoffset:0;stroke-width:1.5;"/>
   </g>
   <g id="line2d_18">
    <path clip-path="url(#p2eb5bef362)" d="M 54 230.261538 
L 388.8 230.261538 
" style="fill:none;stroke:#d3d3d3;stroke-dasharray:1.5,2.475;stroke-dashoffset:0;stroke-width:1.5;"/>
   </g>
   <g id="line2d_19">
    <path clip-path="url(#p2eb5bef362)" d="M 54 210.876923 
L 388.8 210.876923 
" style="fill:none;stroke:#d3d3d3;stroke-dasharray:1.5,2.475;stroke-dashoffset:0;stroke-width:1.5;"/>
   </g>
   <g id="line2d_20">
    <path clip-path="url(#p2eb5bef362)" d="M 54 191.492308 
L 388.8 191.492308 
" style="fill:none;stroke:#d3d3d3;stroke-dasharray:1.5,2.475;stroke-dashoffset:0;stroke-width:1.5;"/>
   </g>
   <g id="line2d_21">
    <path clip-path="url(#p2eb5bef362)" d="M 54 172.107692 
L 388.8 172.107692 
" style="fill:none;stroke:#d3d3d3;stroke-dasharray:1.5,2.475;stroke-dashoffset:0;stroke-width:1.5;"/>
   </g>
   <g id="line2d_22">
    <path clip-path="url(#p2eb5bef362)" d="M 54 152.723077 
L 388.8 152.723077 
" style="fill:none;stroke:#d3d3d3;stroke-dasharray:1.5,2.475;stroke-dashoffset:0;stroke-width:1.5;"/>
   </g>
   <g id="line2d_23">
    <path clip-path="url(#p2eb5bef362)" d="M 54 133.338462 
L 388.8 133.338462 
" style="fill:none;stroke:#d3d3d3;stroke-dasharray:1.5,2.475;stroke-dashoffset:0;stroke-width:1.5;"/>
   </g>
   <g id="line2d_24">
    <path clip-path="url(#p2eb5bef362)" d="M 54 113.953846 
L 388.8 113.953846 
" style="fill:none;stroke:#d3d3d3;stroke-dasharray:1.5,2.475;stroke-dashoffset:0;stroke-width:1.5;"/>
   </g>
   <g id="line2d_25">
    <path clip-path="url(#p2eb5bef362)" d="M 54 94.569231 
L 388.8 94.569231 
" style="fill:none;stroke:#d3d3d3;stroke-dasharray:1.5,2.475;stroke-dashoffset:0;stroke-width:1.5;"/>
   </g>
   <g id="line2d_26">
    <path clip-path="url(#p2eb5bef362)" d="M 54 75.184615 
L 388.8 75.184615 
" style="fill:none;stroke:#d3d3d3;stroke-dasharray:1.5,2.475;stroke-dashoffset:0;stroke-width:1.5;"/>
   </g>
   <g id="line2d_27">
    <path clip-path="url(#p2eb5bef362)" d="M 54 55.8 
L 388.8 55.8 
" style="fill:none;stroke:#d3d3d3;stroke-dasharray:1.5,2.475;stroke-dashoffset:0;stroke-width:1.5;"/>
   </g>
   <g id="line2d_28">
    <path clip-path="url(#p2eb5bef362)" d="M 221.4 320.4 
L 221.4 43.2 
" style="fill:none;stroke:#d3d3d3;stroke-dasharray:5.55,2.4;stroke-dashoffset:0;stroke-width:1.5;"/>
   </g>
   <g id="line2d_29">
    <path clip-path="url(#p2eb5bef362)" d="M 343.145455 320.4 
L 343.145455 43.2 
" style="fill:none;stroke:#d3d3d3;stroke-dasharray:5.55,2.4;stroke-dashoffset:0;stroke-width:1.5;"/>
   </g>
   <g id="line2d_30">
    <path clip-path="url(#p2eb5bef362)" d="M 370.538182 320.4 
L 370.538182 43.2 
" style="fill:none;stroke:#d3d3d3;stroke-dasharray:5.55,2.4;stroke-dashoffset:0;stroke-width:1.5;"/>
   </g>
   <g id="line2d_31">
    <path clip-path="url(#p2eb5bef362)" d="M 70.131273 307.606154 
L 113.431202 298.301538 
L 134.209877 293.649231 
L 140.942287 293.455385 
L 168.172773 293.067692 
L 214.176751 292.486154 
L 231.788644 292.098462 
L 239.650657 291.710769 
L 244.768323 291.129231 
L 257.467407 289.190769 
L 271.312109 286.864615 
L 283.791288 284.538462 
L 295.028018 282.212308 
L 305.134847 279.886154 
L 308.498299 279.110769 
L 310.112276 278.916923 
L 316.776424 278.529231 
L 328.861647 278.141538 
L 362.393868 277.172308 
L 369.116145 276.784615 
L 372.168853 276.396923 
L 373.235237 276.009231 
L 373.517889 275.621538 
L 373.581049 274.846154 
L 373.581818 237.24 
L 373.581818 63.553846 
L 373.581818 63.553846 
" style="fill:none;stroke:#fa8072;stroke-linecap:square;stroke-width:1.5;"/>
   </g>
   <g id="line2d_32">
    <path clip-path="url(#p2eb5bef362)" d="M 69.218182 307.606154 
L 69.341408 305.861538 
L 69.68586 304.116923 
L 70.249815 302.372308 
L 71.030503 300.627692 
L 72.147602 298.689231 
L 73.521442 296.750769 
L 75.320436 294.618462 
L 76.652694 293.261538 
L 77.334475 292.873846 
L 79.04598 292.292308 
L 83.702876 291.129231 
L 95.569145 288.415385 
L 110.996888 285.12 
L 132.075538 280.855385 
L 141.033975 279.110769 
L 144.405093 278.723077 
L 150.522445 278.335385 
L 186.204705 276.590769 
L 193.908699 275.815385 
L 211.315951 273.683077 
L 231.799904 270.969231 
L 250.563778 268.255385 
L 266.503187 265.735385 
L 276.210085 264.184615 
L 280.299107 263.796923 
L 286.554218 263.409231 
L 321.781508 261.664615 
L 326.948742 261.083077 
L 329.959012 260.501538 
L 333.603115 259.532308 
L 339.910321 257.593846 
L 345.431334 255.655385 
L 350.253653 253.716923 
L 354.452848 251.778462 
L 359.905426 249.064615 
L 362.211429 248.483077 
L 367.823004 247.513846 
L 370.738579 246.932308 
L 372.491374 246.350769 
L 373.08498 245.963077 
L 373.381416 245.575385 
L 373.541309 244.993846 
L 373.581693 243.443077 
L 373.581818 63.553846 
L 373.581818 63.553846 
" style="fill:none;stroke:#fa8072;stroke-linecap:square;stroke-width:1.5;"/>
   </g>
   <g id="line2d_33">
    <path clip-path="url(#p2eb5bef362)" d="M 69.218182 307.606154 
L 69.326127 299.270769 
L 69.604292 294.812308 
L 69.986966 291.710769 
L 70.401959 290.16 
L 71.033678 288.609231 
L 71.88947 287.058462 
L 73.12686 285.313846 
L 74.660084 283.569231 
L 76.492001 281.824615 
L 78.878436 279.886154 
L 81.100256 278.335385 
L 82.659509 277.56 
L 85.352532 276.590769 
L 91.138699 274.846154 
L 99.036619 272.713846 
L 108.533259 270.387692 
L 120.595353 267.673846 
L 135.435377 264.572308 
L 139.917191 263.796923 
L 144.775445 263.215385 
L 169.051873 260.695385 
L 192.313242 257.593846 
L 219.949291 253.716923 
L 241.941904 250.421538 
L 251.307207 249.064615 
L 257.079798 248.483077 
L 269.951801 247.513846 
L 281.629527 246.544615 
L 288.050783 245.769231 
L 295.272357 244.606154 
L 305.732955 242.667692 
L 316.031106 240.535385 
L 325.177167 238.403077 
L 332.571235 236.464615 
L 341.772868 233.944615 
L 346.173729 233.169231 
L 355.729687 231.618462 
L 357.942518 231.036923 
L 359.420907 230.455385 
L 360.787166 229.68 
L 362.637717 228.323077 
L 364.666112 226.578462 
L 366.573731 224.64 
L 368.165652 222.701538 
L 369.486148 220.763077 
L 370.793628 218.824615 
L 372.012517 217.661538 
L 372.945568 216.692308 
L 373.361379 215.916923 
L 373.544622 214.947692 
L 373.581706 212.815385 
L 373.581818 63.553846 
L 373.581818 63.553846 
" style="fill:none;stroke:#fa8072;stroke-linecap:square;stroke-width:1.5;"/>
   </g>
   <g id="line2d_34">
    <path clip-path="url(#p2eb5bef362)" d="M 69.218182 307.606154 
L 69.328681 288.415385 
L 69.56912 284.150769 
L 69.986946 280.661538 
L 70.549493 277.753846 
L 71.128114 275.815385 
L 71.897574 274.070769 
L 72.932311 272.326154 
L 74.251786 270.581538 
L 75.872084 268.836923 
L 77.806039 267.092308 
L 80.063352 265.347692 
L 82.665034 263.603077 
L 84.800954 262.44 
L 87.491322 261.276923 
L 91.665882 259.726154 
L 97.575099 257.787692 
L 104.888242 255.655385 
L 113.753198 253.329231 
L 124.28616 250.809231 
L 133.199349 248.870769 
L 138.867453 247.901538 
L 218.153146 235.689231 
L 231.116642 233.750769 
L 239.500535 232.781538 
L 253.208615 231.230769 
L 262.786311 229.873846 
L 277.198637 227.547692 
L 291.414211 225.027692 
L 303.309634 222.701538 
L 314.071803 220.375385 
L 321.317577 218.824615 
L 328.154574 217.661538 
L 334.824125 216.498462 
L 338.96313 215.529231 
L 342.713806 214.366154 
L 347.426875 212.621538 
L 351.978617 210.683077 
L 355.543894 208.938462 
L 358.656801 207.193846 
L 361.65143 205.255385 
L 364.056131 203.704615 
L 368.430834 201.184615 
L 369.204566 200.409231 
L 369.840841 199.44 
L 370.645174 197.695385 
L 371.538546 195.175385 
L 372.255279 192.461538 
L 373.346603 187.033846 
L 373.539295 185.483077 
L 373.581621 182.769231 
L 373.581818 63.553846 
L 373.581818 63.553846 
" style="fill:none;stroke:#fa8072;stroke-linecap:square;stroke-width:1.5;"/>
   </g>
   <g id="line2d_35">
    <path clip-path="url(#p2eb5bef362)" d="M 69.218182 307.606154 
L 69.326173 277.56 
L 69.563037 272.132308 
L 69.943939 268.449231 
L 70.493751 265.347692 
L 71.205018 262.633846 
L 71.996086 260.501538 
L 72.868896 258.756923 
L 73.976503 257.012308 
L 75.342814 255.267692 
L 76.988946 253.523077 
L 78.933148 251.778462 
L 81.190753 250.033846 
L 83.79483 248.289231 
L 86.20775 246.932308 
L 89.479283 245.381538 
L 93.706544 243.636923 
L 99.035801 241.698462 
L 105.008647 239.76 
L 112.287213 237.627692 
L 121.019762 235.301538 
L 128.249113 233.556923 
L 135.789241 232.006154 
L 153.350276 228.710769 
L 175.322088 224.833846 
L 208.557504 219.212308 
L 219.008153 217.661538 
L 236.444744 215.141538 
L 254.45151 212.233846 
L 272.32722 209.132308 
L 287.749348 206.224615 
L 305.879298 202.735385 
L 315.251515 200.990769 
L 321.193513 199.633846 
L 328.507564 197.695385 
L 335.633464 195.563077 
L 341.374908 193.624615 
L 346.466621 191.686154 
L 351.890744 189.36 
L 360.602677 185.483077 
L 362.274494 184.32 
L 364.090042 182.769231 
L 366.002995 180.830769 
L 367.600885 178.892308 
L 368.927253 176.953846 
L 370.234404 174.627692 
L 372.165697 170.750769 
L 372.531567 169.2 
L 372.922088 166.292308 
L 373.286531 161.833846 
L 373.573749 155.049231 
L 373.581818 142.643077 
L 373.581818 63.553846 
L 373.581818 63.553846 
" style="fill:none;stroke:#fa8072;stroke-linecap:square;stroke-width:1.5;"/>
   </g>
   <g id="line2d_36">
    <path clip-path="url(#p2eb5bef362)" d="M 69.218182 307.606154 
L 69.324942 265.735385 
L 69.569632 259.532308 
L 69.938339 255.461538 
L 70.459615 252.166154 
L 71.100027 249.452308 
L 71.915391 246.932308 
L 72.837702 244.8 
L 73.915132 242.861538 
L 75.256122 240.923077 
L 76.892399 238.984615 
L 78.852842 237.046154 
L 81.16311 235.107692 
L 83.568078 233.363077 
L 86.042271 231.812308 
L 89.279782 230.067692 
L 92.984358 228.323077 
L 97.644591 226.384615 
L 102.876747 224.446154 
L 109.282488 222.313846 
L 117.02461 219.987692 
L 124.187441 218.049231 
L 132.274961 216.110769 
L 144.640156 213.396923 
L 159.901099 210.295385 
L 180.221183 206.418462 
L 198.512353 203.123077 
L 248.523492 194.593846 
L 268.40956 190.910769 
L 302.129994 184.32 
L 312.059388 181.993846 
L 321.031891 179.667692 
L 329.090817 177.341538 
L 336.292707 175.015385 
L 347.928774 170.944615 
L 351.022221 169.587692 
L 354.39461 167.843077 
L 357.636313 165.904615 
L 360.436297 163.966154 
L 362.841823 162.027692 
L 364.904936 160.089231 
L 368.017336 156.793846 
L 369.02416 155.436923 
L 369.876064 153.886154 
L 370.768336 151.753846 
L 371.583738 149.233846 
L 372.27923 146.326154 
L 372.980408 142.255385 
L 373.26241 139.541538 
L 373.449668 134.695385 
L 373.578841 125.196923 
L 373.581818 86.621538 
L 373.581818 63.553846 
L 373.581818 63.553846 
" style="fill:none;stroke:#fa8072;stroke-linecap:square;stroke-width:1.5;"/>
   </g>
   <g id="line2d_37">
    <path clip-path="url(#p2eb5bef362)" d="M 69.218182 307.606154 
L 69.328313 253.135385 
L 69.571036 246.544615 
L 69.936386 242.086154 
L 70.431432 238.596923 
L 71.09973 235.495385 
L 71.916441 232.781538 
L 72.839308 230.455385 
L 73.918315 228.323077 
L 75.263231 226.190769 
L 76.749791 224.252308 
L 78.516849 222.313846 
L 80.590732 220.375385 
L 82.998655 218.436923 
L 85.499988 216.692308 
L 88.369472 214.947692 
L 92.00772 213.009231 
L 96.133812 211.070769 
L 100.758818 209.132308 
L 106.427371 207 
L 113.30319 204.673846 
L 120.312919 202.541538 
L 128.109769 200.409231 
L 138.182276 197.889231 
L 150.803711 194.981538 
L 166.185204 191.686154 
L 183.542465 188.196923 
L 204.324523 184.32 
L 249.912987 175.790769 
L 282.411957 169.393846 
L 294.770752 166.68 
L 306.118511 163.966154 
L 315.729486 161.446154 
L 325.176762 158.732308 
L 334.004701 156.018462 
L 338.943078 154.273846 
L 343.778977 152.335385 
L 348.485505 150.203077 
L 352.260971 148.264615 
L 355.594213 146.326154 
L 358.824241 144.193846 
L 362.248708 141.673846 
L 364.010737 140.123077 
L 365.631148 138.378462 
L 367.128848 136.44 
L 368.500244 134.307692 
L 369.717754 131.981538 
L 370.769559 129.461538 
L 371.809902 126.36 
L 372.333835 124.033846 
L 372.805457 120.738462 
L 373.185723 116.473846 
L 373.465746 110.658462 
L 373.5564 103.292308 
L 373.581818 78.867692 
L 373.581818 63.553846 
L 373.581818 63.553846 
" style="fill:none;stroke:#fa8072;stroke-linecap:square;stroke-width:1.5;"/>
   </g>
   <g id="patch_3">
    <path d="M 54 320.4 
L 54 43.2 
" style="fill:none;stroke:#000000;stroke-linecap:square;stroke-linejoin:miter;stroke-width:0.8;"/>
   </g>
   <g id="patch_4">
    <path d="M 388.8 320.4 
L 388.8 43.2 
" style="fill:none;stroke:#000000;stroke-linecap:square;stroke-linejoin:miter;stroke-width:0.8;"/>
   </g>
   <g id="patch_5">
    <path d="M 54 320.4 
L 388.8 320.4 
" style="fill:none;stroke:#000000;stroke-linecap:square;stroke-linejoin:miter;stroke-width:0.8;"/>
   </g>
   <g id="patch_6">
    <path d="M 54 43.2 
L 388.8 43.2 
" style="fill:none;stroke:#000000;stroke-linecap:square;stroke-linejoin:miter;stroke-width:0.8;"/>
   </g>
   <g id="text_14">
    <!-- 50% -->
    <defs>
     <path d="M 27.703125 -1.40625 
C 41.203125 -1.40625 53.5 8.09375 53.5 24.59375 
C 53.5 40.703125 43.203125 48 30.703125 48 
C 27.296875 48 24.703125 47.40625 21.796875 46 
L 23.203125 61.703125 
L 50.09375 61.703125 
L 50.09375 74.09375 
L 10.5 74.09375 
L 8.5 38.09375 
L 15.203125 33.796875 
C 19.59375 36.59375 22 37.59375 26.296875 37.59375 
C 33.703125 37.59375 38.796875 32.796875 38.796875 24.203125 
C 38.796875 15.5 33.40625 10.59375 25.703125 10.59375 
C 18.90625 10.59375 13.59375 14 9.40625 18.09375 
L 2.59375 8.703125 
C 8.203125 3.203125 15.90625 -1.40625 27.703125 -1.40625 
z
" id="SourceHanSansSC-Bold-53"/>
     <path d="M 29.5 -1.40625 
C 44.59375 -1.40625 54.59375 11.796875 54.59375 37.40625 
C 54.59375 62.796875 44.59375 75.40625 29.5 75.40625 
C 14.40625 75.40625 4.40625 62.90625 4.40625 37.40625 
C 4.40625 11.796875 14.40625 -1.40625 29.5 -1.40625 
z
M 29.5 10.09375 
C 23.09375 10.09375 18.296875 16.5 18.296875 37.40625 
C 18.296875 58 23.09375 64.09375 29.5 64.09375 
C 35.90625 64.09375 40.59375 58 40.59375 37.40625 
C 40.59375 16.5 35.90625 10.09375 29.5 10.09375 
z
" id="SourceHanSansSC-Bold-48"/>
     <path d="M 21.203125 28.5 
C 31.796875 28.5 39.296875 37.203125 39.296875 52.09375 
C 39.296875 66.90625 31.796875 75.40625 21.203125 75.40625 
C 10.59375 75.40625 3.203125 66.90625 3.203125 52.09375 
C 3.203125 37.203125 10.59375 28.5 21.203125 28.5 
z
M 21.203125 36.796875 
C 16.90625 36.796875 13.5 41.203125 13.5 52.09375 
C 13.5 62.90625 16.90625 67.09375 21.203125 67.09375 
C 25.5 67.09375 28.90625 62.90625 28.90625 52.09375 
C 28.90625 41.203125 25.5 36.796875 21.203125 36.796875 
z
M 23.59375 -1.40625 
L 32.40625 -1.40625 
L 72.59375 75.40625 
L 63.90625 75.40625 
z
M 75.09375 -1.40625 
C 85.59375 -1.40625 93.09375 7.296875 93.09375 22.203125 
C 93.09375 37 85.59375 45.59375 75.09375 45.59375 
C 64.5 45.59375 57 37 57 22.203125 
C 57 7.296875 64.5 -1.40625 75.09375 -1.40625 
z
M 75.09375 7 
C 70.703125 7 67.40625 11.40625 67.40625 22.203125 
C 67.40625 33.203125 70.703125 37.203125 75.09375 37.203125 
C 79.40625 37.203125 82.703125 33.203125 82.703125 22.203125 
C 82.703125 11.40625 79.40625 7 75.09375 7 
z
" id="SourceHanSansSC-Bold-37"/>
    </defs>
    <g style="fill:#d3d3d3;" transform="translate(197.050909 70.338462)scale(0.1 -0.1)">
     <use xlink:href="#SourceHanSansSC-Bold-53"/>
     <use x="58.999985" xlink:href="#SourceHanSansSC-Bold-48"/>
     <use x="117.999969" xlink:href="#SourceHanSansSC-Bold-37"/>
    </g>
   </g>
   <g id="text_15">
    <!-- 90% -->
    <defs>
     <path d="M 25.5 -1.40625 
C 40.203125 -1.40625 53.90625 10.703125 53.90625 38.703125 
C 53.90625 64.40625 41.40625 75.40625 27.296875 75.40625 
C 14.59375 75.40625 4 65.90625 4 50.703125 
C 4 35 12.796875 27.40625 25.203125 27.40625 
C 30.203125 27.40625 36.5 30.40625 40.40625 35.40625 
C 39.703125 16.90625 32.90625 10.59375 24.703125 10.59375 
C 20.296875 10.59375 15.703125 12.90625 13 15.90625 
L 5.203125 7 
C 9.59375 2.5 16.296875 -1.40625 25.5 -1.40625 
z
M 40.203125 45.90625 
C 36.59375 40.09375 32 37.90625 28 37.90625 
C 21.59375 37.90625 17.5 42 17.5 50.703125 
C 17.5 59.796875 22 64.296875 27.5 64.296875 
C 33.796875 64.296875 38.90625 59.296875 40.203125 45.90625 
z
" id="SourceHanSansSC-Bold-57"/>
    </defs>
    <g style="fill:#d3d3d3;" transform="translate(318.796364 70.338462)scale(0.1 -0.1)">
     <use xlink:href="#SourceHanSansSC-Bold-57"/>
     <use x="58.999985" xlink:href="#SourceHanSansSC-Bold-48"/>
     <use x="117.999969" xlink:href="#SourceHanSansSC-Bold-37"/>
    </g>
   </g>
   <g id="text_16">
    <!-- 99% -->
    <g style="fill:#d3d3d3;" transform="translate(346.189091 70.338462)scale(0.1 -0.1)">
     <use xlink:href="#SourceHanSansSC-Bold-57"/>
     <use x="58.999985" xlink:href="#SourceHanSansSC-Bold-57"/>
     <use x="117.999969" xlink:href="#SourceHanSansSC-Bold-37"/>
    </g>
   </g>
   <g id="text_17">
    <!-- 80 -->
    <defs>
     <path d="M 29.5 -1.40625 
C 44.40625 -1.40625 54.40625 7.203125 54.40625 18.40625 
C 54.40625 28.5 48.796875 34.5 41.90625 38.203125 
L 41.90625 38.703125 
C 46.703125 42.203125 51.40625 48.296875 51.40625 55.59375 
C 51.40625 67.40625 43 75.296875 29.90625 75.296875 
C 17 75.296875 7.59375 67.703125 7.59375 55.703125 
C 7.59375 47.90625 11.703125 42.296875 17.40625 38.203125 
L 17.40625 37.703125 
C 10.5 34.09375 4.703125 27.90625 4.703125 18.40625 
C 4.703125 6.796875 15.203125 -1.40625 29.5 -1.40625 
z
M 34.09375 42.296875 
C 26.40625 45.40625 20.59375 48.796875 20.59375 55.703125 
C 20.59375 61.703125 24.59375 65 29.59375 65 
C 35.796875 65 39.40625 60.703125 39.40625 54.703125 
C 39.40625 50.296875 37.703125 46 34.09375 42.296875 
z
M 29.796875 9 
C 22.90625 9 17.40625 13.296875 17.40625 20 
C 17.40625 25.59375 20.203125 30.5 24.203125 33.796875 
C 33.796875 29.703125 40.703125 26.59375 40.703125 18.90625 
C 40.703125 12.5 36.09375 9 29.796875 9 
z
" id="SourceHanSansSC-Bold-56"/>
    </defs>
    <g transform="translate(203.138182 292.292308)scale(0.1 -0.1)">
     <use xlink:href="#SourceHanSansSC-Bold-56"/>
     <use x="58.999985" xlink:href="#SourceHanSansSC-Bold-48"/>
    </g>
   </g>
   <g id="text_18">
    <!-- 0命 -->
    <defs>
     <path d="M 50.59375 86.59375 
C 41 74.09375 21 62.59375 1.90625 58.203125 
C 4.59375 55.09375 7.40625 50.203125 8.90625 46.703125 
C 15.296875 48.703125 21.796875 51.5 28.09375 54.796875 
L 28.09375 48.203125 
L 71.09375 48.203125 
L 71.09375 54.5 
C 76.90625 51.40625 83 48.90625 89.40625 47.09375 
C 91.296875 50.59375 95 55.796875 98 58.59375 
C 82.203125 61.703125 67.09375 68.90625 58.203125 77.40625 
L 60.09375 79.703125 
z
M 35.59375 59 
C 41 62.296875 46.09375 66 50.5 69.90625 
C 54.40625 65.90625 58.703125 62.203125 63.5 59 
z
M 11.09375 42.40625 
L 11.09375 -1.796875 
L 22.09375 -1.796875 
L 22.09375 6.296875 
L 44.5 6.296875 
L 44.5 42.40625 
z
M 22.09375 32 
L 33.203125 32 
L 33.203125 16.703125 
L 22.09375 16.703125 
z
M 52.203125 42.296875 
L 52.203125 -9.09375 
L 64 -9.09375 
L 64 31.703125 
L 77.796875 31.703125 
L 77.796875 15.09375 
C 77.796875 14 77.40625 13.59375 76.203125 13.59375 
C 75 13.59375 70.796875 13.59375 67 13.703125 
C 68.296875 10.703125 69.796875 6.09375 70.09375 2.90625 
C 76.703125 2.90625 81.5 2.90625 84.90625 4.703125 
C 88.5 6.5 89.40625 9.59375 89.40625 14.90625 
L 89.40625 42.296875 
z
" id="SourceHanSansSC-Bold-21629"/>
    </defs>
    <g style="fill:#d96d62;" transform="translate(184.876364 292.292308)scale(0.1 -0.1)">
     <use xlink:href="#SourceHanSansSC-Bold-48"/>
     <use x="58.999985" xlink:href="#SourceHanSansSC-Bold-21629"/>
    </g>
   </g>
   <g id="text_19">
    <!-- 155 -->
    <defs>
     <path d="M 8.203125 0 
L 52.703125 0 
L 52.703125 12 
L 38.796875 12 
L 38.796875 74.09375 
L 27.90625 74.09375 
C 23.203125 71.09375 18.203125 69.203125 10.703125 67.90625 
L 10.703125 58.703125 
L 24.203125 58.703125 
L 24.203125 12 
L 8.203125 12 
z
" id="SourceHanSansSC-Bold-49"/>
    </defs>
    <g transform="translate(324.883636 277.753846)scale(0.1 -0.1)">
     <use xlink:href="#SourceHanSansSC-Bold-49"/>
     <use x="58.999985" xlink:href="#SourceHanSansSC-Bold-53"/>
     <use x="117.999969" xlink:href="#SourceHanSansSC-Bold-53"/>
    </g>
   </g>
   <g id="text_20">
    <!-- 161 -->
    <defs>
     <path d="M 31.59375 -1.40625 
C 44.203125 -1.40625 54.796875 8.203125 54.796875 23.40625 
C 54.796875 39.203125 45.90625 46.59375 33.5 46.59375 
C 28.796875 46.59375 22.5 43.796875 18.40625 38.796875 
C 19.09375 57.203125 26 63.59375 34.59375 63.59375 
C 38.796875 63.59375 43.296875 61.09375 45.90625 58.203125 
L 53.703125 67 
C 49.296875 71.59375 42.703125 75.40625 33.59375 75.40625 
C 18.703125 75.40625 5 63.59375 5 36 
C 5 10 17.59375 -1.40625 31.59375 -1.40625 
z
M 18.703125 28.40625 
C 22.40625 34 26.90625 36.203125 30.796875 36.203125 
C 37.203125 36.203125 41.40625 32.203125 41.40625 23.40625 
C 41.40625 14.40625 36.90625 9.703125 31.296875 9.703125 
C 25.09375 9.703125 20.09375 14.90625 18.703125 28.40625 
z
" id="SourceHanSansSC-Bold-54"/>
    </defs>
    <g transform="translate(352.276364 276.590769)scale(0.1 -0.1)">
     <use xlink:href="#SourceHanSansSC-Bold-49"/>
     <use x="58.999985" xlink:href="#SourceHanSansSC-Bold-54"/>
     <use x="117.999969" xlink:href="#SourceHanSansSC-Bold-49"/>
    </g>
   </g>
   <g id="text_21">
    <!-- 183 -->
    <defs>
     <path d="M 27.296875 -1.40625 
C 41.5 -1.40625 53.40625 6.40625 53.40625 20 
C 53.40625 29.796875 47 36 38.703125 38.296875 
L 38.703125 38.796875 
C 46.5 41.90625 51 47.703125 51 55.703125 
C 51 68.40625 41.296875 75.40625 27 75.40625 
C 18.296875 75.40625 11.203125 71.90625 4.796875 66.40625 
L 12.40625 57.296875 
C 16.703125 61.40625 21 63.796875 26.296875 63.796875 
C 32.59375 63.796875 36.203125 60.40625 36.203125 54.59375 
C 36.203125 47.90625 31.796875 43.296875 18.296875 43.296875 
L 18.296875 32.703125 
C 34.296875 32.703125 38.59375 28.203125 38.59375 20.90625 
C 38.59375 14.296875 33.5 10.59375 26 10.59375 
C 19.203125 10.59375 13.90625 13.90625 9.5 18.203125 
L 2.59375 8.90625 
C 7.796875 3 15.703125 -1.40625 27.296875 -1.40625 
z
" id="SourceHanSansSC-Bold-51"/>
    </defs>
    <g transform="translate(203.138182 272.326154)scale(0.1 -0.1)">
     <use xlink:href="#SourceHanSansSC-Bold-49"/>
     <use x="58.999985" xlink:href="#SourceHanSansSC-Bold-56"/>
     <use x="117.999969" xlink:href="#SourceHanSansSC-Bold-51"/>
    </g>
   </g>
   <g id="text_22">
    <!-- 1命 -->
    <g style="fill:#d96d62;" transform="translate(184.876364 272.326154)scale(0.1 -0.1)">
     <use xlink:href="#SourceHanSansSC-Bold-49"/>
     <use x="58.999985" xlink:href="#SourceHanSansSC-Bold-21629"/>
    </g>
   </g>
   <g id="text_23">
    <!-- 265 -->
    <defs>
     <path d="M 4.296875 0 
L 53.90625 0 
L 53.90625 12.40625 
L 37.90625 12.40625 
C 34.40625 12.40625 29.5 12 25.703125 11.5 
C 39.203125 24.796875 50.40625 39.203125 50.40625 52.59375 
C 50.40625 66.40625 41.09375 75.40625 27.09375 75.40625 
C 17 75.40625 10.40625 71.5 3.5 64.09375 
L 11.703125 56.203125 
C 15.40625 60.296875 19.796875 63.796875 25.203125 63.796875 
C 32.296875 63.796875 36.296875 59.203125 36.296875 51.90625 
C 36.296875 40.40625 24.5 26.5 4.296875 8.5 
z
" id="SourceHanSansSC-Bold-50"/>
    </defs>
    <g transform="translate(324.883636 256.430769)scale(0.1 -0.1)">
     <use xlink:href="#SourceHanSansSC-Bold-50"/>
     <use x="58.999985" xlink:href="#SourceHanSansSC-Bold-54"/>
     <use x="117.999969" xlink:href="#SourceHanSansSC-Bold-53"/>
    </g>
   </g>
   <g id="text_24">
    <!-- 314 -->
    <defs>
     <path d="M 33.703125 0 
L 47.40625 0 
L 47.40625 19.203125 
L 56.203125 19.203125 
L 56.203125 30.40625 
L 47.40625 30.40625 
L 47.40625 74.09375 
L 29.703125 74.09375 
L 2.09375 29.203125 
L 2.09375 19.203125 
L 33.703125 19.203125 
z
M 33.703125 30.40625 
L 16.40625 30.40625 
L 27.90625 48.796875 
C 30 52.796875 32 56.90625 33.796875 60.90625 
L 34.296875 60.90625 
C 34 56.5 33.703125 49.796875 33.703125 45.5 
z
" id="SourceHanSansSC-Bold-52"/>
    </defs>
    <g transform="translate(352.276364 246.932308)scale(0.1 -0.1)">
     <use xlink:href="#SourceHanSansSC-Bold-51"/>
     <use x="58.999985" xlink:href="#SourceHanSansSC-Bold-49"/>
     <use x="117.999969" xlink:href="#SourceHanSansSC-Bold-52"/>
    </g>
   </g>
   <g id="text_25">
    <!-- 281 -->
    <g transform="translate(203.138182 253.329231)scale(0.1 -0.1)">
     <use xlink:href="#SourceHanSansSC-Bold-50"/>
     <use x="58.999985" xlink:href="#SourceHanSansSC-Bold-56"/>
     <use x="117.999969" xlink:href="#SourceHanSansSC-Bold-49"/>
    </g>
   </g>
   <g id="text_26">
    <!-- 2命 -->
    <g style="fill:#d96d62;" transform="translate(184.876364 253.329231)scale(0.1 -0.1)">
     <use xlink:href="#SourceHanSansSC-Bold-50"/>
     <use x="58.999985" xlink:href="#SourceHanSansSC-Bold-21629"/>
    </g>
   </g>
   <g id="text_27">
    <!-- 383 -->
    <g transform="translate(324.883636 233.556923)scale(0.1 -0.1)">
     <use xlink:href="#SourceHanSansSC-Bold-51"/>
     <use x="58.999985" xlink:href="#SourceHanSansSC-Bold-56"/>
     <use x="117.999969" xlink:href="#SourceHanSansSC-Bold-51"/>
    </g>
   </g>
   <g id="text_28">
    <!-- 458 -->
    <g transform="translate(352.276364 219.018462)scale(0.1 -0.1)">
     <use xlink:href="#SourceHanSansSC-Bold-52"/>
     <use x="58.999985" xlink:href="#SourceHanSansSC-Bold-53"/>
     <use x="117.999969" xlink:href="#SourceHanSansSC-Bold-56"/>
    </g>
   </g>
   <g id="text_29">
    <!-- 375 -->
    <defs>
     <path d="M 18.59375 0 
L 33.40625 0 
C 34.703125 28.90625 37 44.09375 54.203125 65.09375 
L 54.203125 74.09375 
L 5 74.09375 
L 5 61.703125 
L 38.296875 61.703125 
C 24.203125 42.09375 19.90625 25.703125 18.59375 0 
z
" id="SourceHanSansSC-Bold-55"/>
    </defs>
    <g transform="translate(203.138182 235.107692)scale(0.1 -0.1)">
     <use xlink:href="#SourceHanSansSC-Bold-51"/>
     <use x="58.999985" xlink:href="#SourceHanSansSC-Bold-55"/>
     <use x="117.999969" xlink:href="#SourceHanSansSC-Bold-53"/>
    </g>
   </g>
   <g id="text_30">
    <!-- 3命 -->
    <g style="fill:#d96d62;" transform="translate(184.876364 235.107692)scale(0.1 -0.1)">
     <use xlink:href="#SourceHanSansSC-Bold-51"/>
     <use x="58.999985" xlink:href="#SourceHanSansSC-Bold-21629"/>
    </g>
   </g>
   <g id="text_31">
    <!-- 483 -->
    <g transform="translate(324.883636 214.172308)scale(0.1 -0.1)">
     <use xlink:href="#SourceHanSansSC-Bold-52"/>
     <use x="58.999985" xlink:href="#SourceHanSansSC-Bold-56"/>
     <use x="117.999969" xlink:href="#SourceHanSansSC-Bold-51"/>
    </g>
   </g>
   <g id="text_32">
    <!-- 567 -->
    <g transform="translate(352.276364 197.889231)scale(0.1 -0.1)">
     <use xlink:href="#SourceHanSansSC-Bold-53"/>
     <use x="58.999985" xlink:href="#SourceHanSansSC-Bold-54"/>
     <use x="117.999969" xlink:href="#SourceHanSansSC-Bold-55"/>
    </g>
   </g>
   <g id="text_33">
    <!-- 467 -->
    <g transform="translate(203.138182 217.273846)scale(0.1 -0.1)">
     <use xlink:href="#SourceHanSansSC-Bold-52"/>
     <use x="58.999985" xlink:href="#SourceHanSansSC-Bold-54"/>
     <use x="117.999969" xlink:href="#SourceHanSansSC-Bold-55"/>
    </g>
   </g>
   <g id="text_34">
    <!-- 4命 -->
    <g style="fill:#d96d62;" transform="translate(184.876364 217.273846)scale(0.1 -0.1)">
     <use xlink:href="#SourceHanSansSC-Bold-52"/>
     <use x="58.999985" xlink:href="#SourceHanSansSC-Bold-21629"/>
    </g>
   </g>
   <g id="text_35">
    <!-- 593 -->
    <g transform="translate(324.883636 192.849231)scale(0.1 -0.1)">
     <use xlink:href="#SourceHanSansSC-Bold-53"/>
     <use x="58.999985" xlink:href="#SourceHanSansSC-Bold-57"/>
     <use x="117.999969" xlink:href="#SourceHanSansSC-Bold-51"/>
    </g>
   </g>
   <g id="text_36">
    <!-- 690 -->
    <g transform="translate(352.276364 174.046154)scale(0.1 -0.1)">
     <use xlink:href="#SourceHanSansSC-Bold-54"/>
     <use x="58.999985" xlink:href="#SourceHanSansSC-Bold-57"/>
     <use x="117.999969" xlink:href="#SourceHanSansSC-Bold-48"/>
    </g>
   </g>
   <g id="text_37">
    <!-- 560 -->
    <g transform="translate(203.138182 199.246154)scale(0.1 -0.1)">
     <use xlink:href="#SourceHanSansSC-Bold-53"/>
     <use x="58.999985" xlink:href="#SourceHanSansSC-Bold-54"/>
     <use x="117.999969" xlink:href="#SourceHanSansSC-Bold-48"/>
    </g>
   </g>
   <g id="text_38">
    <!-- 5命 -->
    <g style="fill:#d96d62;" transform="translate(184.876364 199.246154)scale(0.1 -0.1)">
     <use xlink:href="#SourceHanSansSC-Bold-53"/>
     <use x="58.999985" xlink:href="#SourceHanSansSC-Bold-21629"/>
    </g>
   </g>
   <g id="text_39">
    <!-- 698 -->
    <g transform="translate(324.883636 172.495385)scale(0.1 -0.1)">
     <use xlink:href="#SourceHanSansSC-Bold-54"/>
     <use x="58.999985" xlink:href="#SourceHanSansSC-Bold-57"/>
     <use x="117.999969" xlink:href="#SourceHanSansSC-Bold-56"/>
    </g>
   </g>
   <g id="text_40">
    <!-- 802 -->
    <g transform="translate(352.276364 152.335385)scale(0.1 -0.1)">
     <use xlink:href="#SourceHanSansSC-Bold-56"/>
     <use x="58.999985" xlink:href="#SourceHanSansSC-Bold-48"/>
     <use x="117.999969" xlink:href="#SourceHanSansSC-Bold-50"/>
    </g>
   </g>
   <g id="text_41">
    <!-- 654 -->
    <g transform="translate(203.138182 181.024615)scale(0.1 -0.1)">
     <use xlink:href="#SourceHanSansSC-Bold-54"/>
     <use x="58.999985" xlink:href="#SourceHanSansSC-Bold-53"/>
     <use x="117.999969" xlink:href="#SourceHanSansSC-Bold-52"/>
    </g>
   </g>
   <g id="text_42">
    <!-- 6命 -->
    <g style="fill:#d96d62;" transform="translate(184.876364 181.024615)scale(0.1 -0.1)">
     <use xlink:href="#SourceHanSansSC-Bold-54"/>
     <use x="58.999985" xlink:href="#SourceHanSansSC-Bold-21629"/>
    </g>
   </g>
   <g id="text_43">
    <!-- 801 -->
    <g transform="translate(324.883636 152.529231)scale(0.1 -0.1)">
     <use xlink:href="#SourceHanSansSC-Bold-56"/>
     <use x="58.999985" xlink:href="#SourceHanSansSC-Bold-48"/>
     <use x="117.999969" xlink:href="#SourceHanSansSC-Bold-49"/>
    </g>
   </g>
   <g id="text_44">
    <!-- 917 -->
    <g transform="translate(352.276364 130.043077)scale(0.1 -0.1)">
     <use xlink:href="#SourceHanSansSC-Bold-57"/>
     <use x="58.999985" xlink:href="#SourceHanSansSC-Bold-49"/>
     <use x="117.999969" xlink:href="#SourceHanSansSC-Bold-55"/>
    </g>
   </g>
   <g id="text_45">
    <!-- @一棵平衡树 -->
    <defs>
     <path d="M 47.796875 -19 
C 55.796875 -19 63 -17.296875 69.796875 -13.5 
L 66.5 -5.40625 
C 61.703125 -7.90625 55.09375 -9.90625 48.90625 -9.90625 
C 30.796875 -9.90625 15.59375 1.296875 15.59375 23.59375 
C 15.59375 49.40625 34.90625 66.203125 54.5 66.203125 
C 76.296875 66.203125 85.703125 52 85.703125 35.09375 
C 85.703125 22.09375 78.5 13.90625 71.59375 13.90625 
C 66.203125 13.90625 64.40625 17.296875 66.203125 24.59375 
L 71.09375 49 
L 62.09375 49 
L 60.5 44.296875 
L 60.296875 44.296875 
C 58.296875 48.203125 55.296875 49.90625 51.5 49.90625 
C 38.40625 49.90625 28.90625 35.90625 28.90625 22.5 
C 28.90625 12.09375 34.90625 5.703125 43.40625 5.703125 
C 48.203125 5.703125 53.90625 8.90625 57.203125 13.296875 
L 57.5 13.296875 
C 58.5 7.703125 63.703125 4.703125 70.09375 4.703125 
C 81.59375 4.703125 95 15.09375 95 35.59375 
C 95 58.90625 79.796875 75.203125 55.703125 75.203125 
C 28.59375 75.203125 5.5 54.59375 5.5 23.203125 
C 5.5 -5.09375 25.203125 -19 47.796875 -19 
z
M 46.59375 15 
C 42.59375 15 40 17.703125 40 23.296875 
C 40 30.59375 44.59375 40.296875 51.90625 40.296875 
C 54.5 40.296875 56.296875 39.203125 57.796875 36.59375 
L 54.90625 20.59375 
C 51.703125 16.59375 49.203125 15 46.59375 15 
z
" id="SourceHanSansSC-Bold-64"/>
     <path d="M 3.796875 45.5 
L 3.796875 32.40625 
L 96.40625 32.40625 
L 96.40625 45.5 
z
" id="SourceHanSansSC-Bold-19968"/>
     <path d="M 17 85 
L 17 66.296875 
L 4 66.296875 
L 4 55.203125 
L 16.296875 55.203125 
C 13.40625 43.09375 8 29 1.796875 21.203125 
C 3.796875 18 6.5 12.5 7.59375 9.09375 
C 11.09375 14.296875 14.296875 21.796875 17 30.09375 
L 17 -8.90625 
L 28.203125 -8.90625 
L 28.203125 36.5 
C 30.09375 32.5 31.796875 28.40625 32.796875 25.59375 
L 37.59375 31.203125 
L 37.59375 23 
L 55.59375 23 
C 50.09375 15 42 7.5 33.796875 3.40625 
C 36.296875 1.296875 39.796875 -2.90625 41.59375 -5.59375 
C 48.59375 -1.09375 55.40625 5.796875 60.796875 13.703125 
L 60.796875 -8.90625 
L 72.59375 -8.90625 
L 72.59375 15.09375 
C 77.703125 7.203125 84.09375 -0.09375 90.203125 -4.796875 
C 92.09375 -1.796875 95.90625 2.296875 98.40625 4.40625 
C 91.296875 8.59375 83.796875 15.703125 78.40625 23 
L 96.5 23 
L 96.5 34 
L 72.59375 34 
L 72.59375 40 
L 92 40 
L 92 80.90625 
L 41.296875 80.90625 
L 41.296875 40 
L 60.796875 40 
L 60.796875 34 
L 39.59375 34 
C 37.796875 37.203125 30.90625 48 28.203125 51.703125 
L 28.203125 55.203125 
L 37.40625 55.203125 
L 37.40625 66.296875 
L 28.203125 66.296875 
L 28.203125 85 
z
M 52.09375 55.90625 
L 61.203125 55.90625 
L 61.203125 49.40625 
L 52.09375 49.40625 
z
M 72.09375 55.90625 
L 80.703125 55.90625 
L 80.703125 49.40625 
L 72.09375 49.40625 
z
M 52.09375 71.5 
L 61.203125 71.5 
L 61.203125 65.09375 
L 52.09375 65.09375 
z
M 72.09375 71.5 
L 80.703125 71.5 
L 80.703125 65.09375 
L 72.09375 65.09375 
z
" id="SourceHanSansSC-Bold-26869"/>
     <path d="M 15.90625 60.40625 
C 19.203125 53.703125 22.296875 44.90625 23.296875 39.5 
L 35 43.203125 
C 33.796875 48.796875 30.296875 57.203125 26.90625 63.703125 
z
M 72.90625 64 
C 71 57.40625 67.40625 48.59375 64.203125 42.796875 
L 74.703125 39.703125 
C 78.09375 44.90625 82.203125 53 85.796875 60.703125 
z
M 4.59375 36.40625 
L 4.59375 24.296875 
L 43.703125 24.296875 
L 43.703125 -8.90625 
L 56.203125 -8.90625 
L 56.203125 24.296875 
L 95.703125 24.296875 
L 95.703125 36.40625 
L 56.203125 36.40625 
L 56.203125 66.90625 
L 89.90625 66.90625 
L 89.90625 78.796875 
L 9.90625 78.796875 
L 9.90625 66.90625 
L 43.703125 66.90625 
L 43.703125 36.40625 
z
" id="SourceHanSansSC-Bold-24179"/>
     <path d="M 18.5 85 
C 15.203125 78.703125 8.5 70.703125 2.40625 65.703125 
C 4.203125 63.5 7 59 8.40625 56.5 
C 15.796875 62.703125 23.90625 72.203125 29.296875 81 
z
M 73.5 78.703125 
L 73.5 68 
L 94.59375 68 
L 94.59375 78.703125 
z
M 45.203125 25.703125 
L 44.90625 21.796875 
L 28.796875 21.796875 
L 28.796875 12.296875 
L 42.796875 12.296875 
C 40.59375 6.59375 36.203125 2.40625 27.40625 -0.40625 
C 29.5 -2.296875 32.203125 -6 33.203125 -8.5 
C 42.5 -5.203125 47.796875 -0.59375 51 5.59375 
C 55.5 1.90625 60 -2.40625 62.296875 -5.5 
L 69.5 1.703125 
C 67 4.796875 62.40625 8.90625 57.90625 12.296875 
L 71.203125 12.296875 
L 71.203125 21.796875 
L 55.203125 21.796875 
L 55.5 25.703125 
z
M 43.90625 68.09375 
L 52.90625 68.09375 
C 52 65.796875 51 63.5 50.09375 61.59375 
L 40.40625 61.59375 
C 41.703125 63.703125 42.90625 65.90625 43.90625 68.09375 
z
M 20.09375 63.90625 
C 15.703125 54 8.5 43.796875 1.59375 37.09375 
C 3.59375 34.59375 6.90625 28.796875 8 26.203125 
C 9.703125 28 11.40625 29.90625 13.09375 32 
L 13.09375 -9 
L 23.90625 -9 
L 23.90625 47.796875 
C 25.296875 50.203125 26.703125 52.703125 28 55.203125 
C 29.203125 54.296875 30.40625 53.203125 31.40625 52.203125 
L 31.40625 27.09375 
L 69.5 27.09375 
L 69.5 61.59375 
L 60.59375 61.59375 
C 62.703125 65.40625 64.796875 69.5 66.296875 73.09375 
L 59.296875 77.59375 
L 57.703125 77.09375 
L 47.703125 77.09375 
L 49.59375 82.703125 
L 38.90625 84.40625 
C 36.90625 77.09375 33.203125 68.5 27.5 61.296875 
z
M 40 40.59375 
L 46.203125 40.59375 
L 46.203125 35.09375 
L 40 35.09375 
z
M 54.59375 40.59375 
L 60.40625 40.59375 
L 60.40625 35.09375 
L 54.59375 35.09375 
z
M 40 53.5 
L 46.203125 53.5 
L 46.203125 48.203125 
L 40 48.203125 
z
M 54.59375 53.5 
L 60.40625 53.5 
L 60.40625 48.203125 
L 54.59375 48.203125 
z
M 71.59375 54 
L 71.59375 43.09375 
L 79.5 43.09375 
L 79.5 3.5 
C 79.5 2.40625 79.203125 2.09375 78.09375 2.09375 
C 77 2.09375 73.796875 2.09375 70.59375 2.203125 
C 72 -1 73.203125 -5.5 73.40625 -8.59375 
C 79.09375 -8.59375 83.203125 -8.40625 86.296875 -6.59375 
C 89.40625 -4.796875 90.09375 -1.796875 90.09375 3.296875 
L 90.09375 43.09375 
L 96.796875 43.09375 
L 96.796875 54 
z
" id="SourceHanSansSC-Bold-34913"/>
     <path d="M 31.703125 50.59375 
C 35.40625 44.796875 39.40625 38.09375 43.296875 31.5 
C 39.59375 19.90625 34.703125 10.203125 28.796875 4.09375 
C 31.40625 2.203125 34.90625 -1.59375 36.703125 -4.203125 
C 42 1.90625 46.5 9.796875 50.09375 19 
C 52.59375 14.296875 54.703125 9.796875 56.203125 6.09375 
L 64.703125 13.703125 
C 62.5 18.90625 58.796875 25.59375 54.59375 32.59375 
C 57.703125 44 59.796875 56.90625 61 71.09375 
L 54.296875 73.09375 
L 52.40625 72.796875 
L 34.59375 72.796875 
L 34.59375 62.59375 
L 49.796875 62.59375 
C 49.09375 56.59375 48.09375 50.703125 46.90625 45.09375 
L 39.203125 56.90625 
z
M 61.09375 43.5 
C 64.90625 36.296875 69.09375 26.5 70.796875 20.296875 
L 79.203125 23.90625 
L 79.203125 4.796875 
C 79.203125 3.296875 78.703125 2.90625 77.203125 2.90625 
C 75.703125 2.796875 71.09375 2.796875 66.296875 3 
C 67.90625 -0.296875 69.296875 -5.296875 69.703125 -8.40625 
C 77.09375 -8.40625 82.203125 -8 85.59375 -6.09375 
C 88.90625 -4.203125 90 -1.09375 90 4.796875 
L 90 53.5 
L 96.703125 53.5 
L 96.703125 64.203125 
L 90 64.203125 
L 90 84.5 
L 79.203125 84.5 
L 79.203125 64.203125 
L 61.796875 64.203125 
L 61.796875 53.5 
L 79.203125 53.5 
L 79.203125 26.296875 
C 77.09375 32.296875 73.40625 40.5 69.703125 46.90625 
z
M 13.59375 85 
L 13.59375 64.796875 
L 4.09375 64.796875 
L 4.09375 53.90625 
L 13.59375 53.90625 
L 13.59375 53.5 
C 11.40625 41.59375 6.796875 27.296875 1.796875 18.796875 
C 3.5 16 6.09375 11.59375 7.203125 8.40625 
C 9.5 12.296875 11.703125 17.5 13.59375 23.203125 
L 13.59375 -8.90625 
L 24 -8.90625 
L 24 35.59375 
C 25.90625 31 27.703125 26.203125 28.703125 23 
L 34.703125 32.796875 
C 33.296875 35.796875 25.90625 49.296875 24 52.5 
L 24 53.90625 
L 31.90625 53.90625 
L 31.90625 64.796875 
L 24 64.796875 
L 24 85 
z
" id="SourceHanSansSC-Bold-26641"/>
    </defs>
    <g style="fill:#d3d3d3;" transform="translate(282.272727 301.984615)scale(0.1 -0.1)">
     <use xlink:href="#SourceHanSansSC-Bold-64"/>
     <use x="100.699982" xlink:href="#SourceHanSansSC-Bold-19968"/>
     <use x="200.699966" xlink:href="#SourceHanSansSC-Bold-26869"/>
     <use x="300.699951" xlink:href="#SourceHanSansSC-Bold-24179"/>
     <use x="400.699936" xlink:href="#SourceHanSansSC-Bold-34913"/>
     <use x="500.699921" xlink:href="#SourceHanSansSC-Bold-26641"/>
    </g>
   </g>
   <g id="text_46">
    <!-- 原神UP角色获取概率 -->
    <defs>
     <path d="M 41.296875 38.703125 
L 75.90625 38.703125 
L 75.90625 32.09375 
L 41.296875 32.09375 
z
M 41.296875 53.5 
L 75.90625 53.5 
L 75.90625 47 
L 41.296875 47 
z
M 69.296875 15.296875 
C 74.703125 8.703125 82.296875 -0.296875 85.703125 -5.703125 
L 96 0.203125 
C 92.09375 5.5 84.203125 14.203125 78.90625 20.296875 
z
M 35.703125 20.203125 
C 31.796875 13.59375 25.59375 6 19.90625 1.203125 
C 22.796875 -0.296875 27.59375 -3.40625 30 -5.296875 
C 35.296875 0.09375 42.296875 8.90625 47.09375 16.5 
z
M 11.09375 80.5 
L 11.09375 51.5 
C 11.09375 36 10.40625 14.203125 2.09375 -0.796875 
C 5.09375 -1.90625 10.40625 -4.90625 12.703125 -6.796875 
C 21.59375 9.40625 22.90625 34.59375 22.90625 51.5 
L 22.90625 69.703125 
L 95.09375 69.703125 
L 95.09375 80.5 
z
M 50.5 69.59375 
C 49.796875 67.5 48.703125 65 47.5 62.5 
L 29.59375 62.5 
L 29.59375 23.09375 
L 52.90625 23.09375 
L 52.90625 3.09375 
C 52.90625 1.90625 52.5 1.59375 51 1.59375 
C 49.59375 1.59375 44.703125 1.59375 40.40625 1.703125 
C 41.703125 -1.296875 43.296875 -5.703125 43.703125 -8.90625 
C 50.796875 -8.90625 56 -8.796875 59.796875 -7.203125 
C 63.59375 -5.59375 64.5 -2.59375 64.5 2.796875 
L 64.5 23.09375 
L 88.203125 23.09375 
L 88.203125 62.5 
L 61.296875 62.5 
L 64.90625 67.796875 
z
" id="SourceHanSansSC-Bold-21407"/>
     <path d="M 52.5 39.796875 
L 61.5 39.796875 
L 61.5 30 
L 52.5 30 
z
M 52.5 50.296875 
L 52.5 59.90625 
L 61.5 59.90625 
L 61.5 50.296875 
z
M 82.296875 39.796875 
L 82.296875 30 
L 73.203125 30 
L 73.203125 39.796875 
z
M 82.296875 50.296875 
L 73.203125 50.296875 
L 73.203125 59.90625 
L 82.296875 59.90625 
z
M 61.5 85 
L 61.5 70.59375 
L 41.59375 70.59375 
L 41.59375 14.796875 
L 52.5 14.796875 
L 52.5 19.40625 
L 61.5 19.40625 
L 61.5 -8.796875 
L 73.203125 -8.796875 
L 73.203125 19.40625 
L 82.296875 19.40625 
L 82.296875 15.796875 
L 93.59375 15.796875 
L 93.59375 70.59375 
L 73.203125 70.59375 
L 73.203125 85 
z
M 13.40625 80 
C 16 76.5 18.90625 71.796875 20.703125 68.203125 
L 4.203125 68.203125 
L 4.203125 57.40625 
L 25.796875 57.40625 
C 20 46.796875 11 37 1.703125 31.5 
C 3.09375 29.09375 5.296875 22.59375 5.90625 19.09375 
C 9.5 21.5 13 24.5 16.5 27.90625 
L 16.5 -8.90625 
L 27.40625 -8.90625 
L 27.40625 30.296875 
C 30.09375 26.796875 32.703125 23.09375 34.40625 20.5 
L 41.296875 30.5 
C 39.5 32.40625 32.703125 39.40625 28.796875 42.90625 
C 33.203125 49.5 37 56.703125 39.59375 64.09375 
L 33.796875 68.59375 
L 31.796875 68.203125 
L 24.296875 68.203125 
L 31.296875 72.40625 
C 29.40625 75.90625 25.90625 81.203125 22.796875 85.09375 
z
" id="SourceHanSansSC-Bold-31070"/>
     <path d="M 37.59375 -1.40625 
C 55.59375 -1.40625 66.09375 8.796875 66.09375 33.296875 
L 66.09375 74.09375 
L 51.90625 74.09375 
L 51.90625 32 
C 51.90625 16.59375 46.203125 11.40625 37.59375 11.40625 
C 28.90625 11.40625 23.5 16.59375 23.5 32 
L 23.5 74.09375 
L 8.796875 74.09375 
L 8.796875 33.296875 
C 8.796875 8.796875 19.40625 -1.40625 37.59375 -1.40625 
z
" id="SourceHanSansSC-Bold-85"/>
     <path d="M 9.09375 0 
L 23.90625 0 
L 23.90625 26.296875 
L 33.796875 26.296875 
C 49.703125 26.296875 62.40625 33.90625 62.40625 50.796875 
C 62.40625 68.296875 49.796875 74.09375 33.40625 74.09375 
L 9.09375 74.09375 
z
M 23.90625 38 
L 23.90625 62.296875 
L 32.296875 62.296875 
C 42.5 62.296875 47.90625 59.40625 47.90625 50.796875 
C 47.90625 42.296875 43 38 32.796875 38 
z
" id="SourceHanSansSC-Bold-80"/>
     <path d="M 30.296875 51.296875 
L 47.09375 51.296875 
L 47.09375 42.59375 
L 30.296875 42.59375 
z
M 30.296875 62 
L 29.796875 62 
C 31.796875 64.40625 33.796875 66.796875 35.5 69.296875 
L 60 69.296875 
C 58.203125 66.796875 56.09375 64.203125 54 62 
z
M 77 51.296875 
L 77 42.59375 
L 59.296875 42.59375 
L 59.296875 51.296875 
z
M 30.59375 85.40625 
C 25.90625 75.5 17.296875 64.203125 4.5 55.796875 
C 7.296875 54 11.296875 49.703125 13.203125 46.796875 
L 18 50.5 
L 18 35.90625 
C 18 24 17 9.09375 6 -1.203125 
C 8.59375 -2.703125 13.5 -7.40625 15.40625 -9.796875 
C 21.90625 -3.796875 25.703125 4.40625 27.796875 12.796875 
L 47.09375 12.796875 
L 47.09375 -6.59375 
L 59.296875 -6.59375 
L 59.296875 12.796875 
L 77 12.796875 
L 77 4.703125 
C 77 3.203125 76.40625 2.59375 74.796875 2.59375 
C 73.09375 2.59375 67.296875 2.59375 62.296875 2.90625 
C 64 -0.203125 65.90625 -5.5 66.40625 -8.796875 
C 74.40625 -8.796875 80.09375 -8.59375 84.09375 -6.796875 
C 88.09375 -4.796875 89.40625 -1.59375 89.40625 4.5 
L 89.40625 62 
L 68 62 
C 71.703125 66 75.203125 70.296875 77.703125 74.09375 
L 69.5 79.703125 
L 67.59375 79.203125 
L 41.796875 79.203125 
L 43.90625 83 
z
M 30.296875 32.296875 
L 47.09375 32.296875 
L 47.09375 23.296875 
L 29.59375 23.296875 
C 30 26.40625 30.203125 29.40625 30.296875 32.296875 
z
M 77 32.296875 
L 77 23.296875 
L 59.296875 23.296875 
L 59.296875 32.296875 
z
" id="SourceHanSansSC-Bold-35282"/>
     <path d="M 45.203125 46.09375 
L 45.203125 34.09375 
L 26.5 34.09375 
L 26.5 46.09375 
z
M 56.90625 46.09375 
L 75.203125 46.09375 
L 75.203125 34.09375 
L 56.90625 34.09375 
z
M 56.5 66.59375 
C 54 63.296875 50.90625 59.796875 48.09375 57.09375 
L 25.59375 57.09375 
C 28.59375 60.09375 31.40625 63.296875 34.09375 66.59375 
z
M 33.40625 85.703125 
C 26.59375 73.203125 14.5 61.59375 2.59375 54.5 
C 4.703125 51.90625 7.90625 45.796875 9 43.09375 
C 11 44.40625 12.90625 45.90625 14.90625 47.40625 
L 14.90625 10.90625 
C 14.90625 -3.5 20.59375 -7.09375 39.296875 -7.09375 
C 43.59375 -7.09375 69.09375 -7.09375 73.703125 -7.09375 
C 90.59375 -7.09375 94.796875 -2.296875 96.90625 14.296875 
C 93.59375 14.796875 88.59375 16.703125 85.59375 18.5 
C 84.296875 6 82.796875 3.796875 73.09375 3.796875 
C 67.203125 3.796875 44.296875 3.796875 39.09375 3.796875 
C 28.203125 3.796875 26.5 4.796875 26.5 11 
L 26.5 22.703125 
L 75.203125 22.703125 
L 75.203125 19.40625 
L 87 19.40625 
L 87 57.09375 
L 62.5 57.09375 
C 67 61.90625 71.40625 67.203125 74.90625 72.09375 
L 67.09375 77.90625 
L 64.796875 77.203125 
L 41.703125 77.203125 
L 44.203125 81.5 
z
" id="SourceHanSansSC-Bold-33394"/>
     <path d="M 59.59375 59.703125 
L 59.59375 44.296875 
L 59.59375 43.796875 
L 39 43.796875 
L 39 32.703125 
L 58.703125 32.703125 
C 56.796875 21.5 51.203125 8.90625 35.5 -1.40625 
C 38.40625 -3.40625 42.296875 -6.703125 44.296875 -9.203125 
C 56.296875 -1.40625 62.90625 8.203125 66.59375 17.796875 
C 71.40625 6.09375 78.40625 -3.09375 88.796875 -8.59375 
C 90.40625 -5.5 93.796875 -1 96.40625 1.203125 
C 83.703125 6.703125 76 18.296875 71.796875 32.703125 
L 94.296875 32.703125 
L 94.296875 43.796875 
L 84.296875 43.796875 
L 91.5 48.90625 
C 89.296875 52.59375 84.296875 57.40625 79.90625 60.703125 
L 71.796875 55.09375 
C 75.59375 51.796875 80 47.296875 82.296875 43.796875 
L 70.796875 43.796875 
L 70.796875 44.203125 
L 70.796875 59.703125 
z
M 61.40625 85 
L 61.40625 78 
L 39 78 
L 39 85 
L 27.09375 85 
L 27.09375 78 
L 5.59375 78 
L 5.59375 67.296875 
L 27.09375 67.296875 
L 27.09375 60.59375 
L 39 60.59375 
L 39 67.296875 
L 61.40625 67.296875 
L 61.40625 61.59375 
L 73.40625 61.59375 
L 73.40625 67.296875 
L 94.59375 67.296875 
L 94.59375 78 
L 73.40625 78 
L 73.40625 85 
z
M 30.203125 60.296875 
C 28.703125 58.59375 26.796875 56.796875 24.796875 55 
C 22.296875 57.296875 19.296875 59.59375 15.703125 61.703125 
L 7.90625 55.5 
C 11.40625 53.40625 14.203125 51.203125 16.59375 48.796875 
C 12.296875 45.90625 7.59375 43.40625 2.90625 41.5 
C 5.203125 39.5 8.40625 35.90625 10 33.5 
C 14.203125 35.40625 18.5 37.796875 22.703125 40.5 
C 23.59375 38.703125 24.296875 36.90625 24.90625 35 
C 20.203125 28.40625 10.796875 21.296875 2.90625 18 
C 5.296875 15.90625 8.203125 12 9.796875 9.296875 
C 15.296875 12.5 21.5 17.40625 26.59375 22.5 
L 26.59375 21.703125 
C 26.59375 12.40625 25.796875 6.203125 23.796875 3.59375 
C 23 2.59375 22.203125 2.09375 20.703125 2 
C 18.59375 1.703125 14.90625 1.703125 10 2 
C 12 -0.90625 13.203125 -4.90625 13.296875 -8.296875 
C 18.09375 -8.5 22 -8.40625 25.796875 -7.59375 
C 28.203125 -7.09375 30.296875 -6 31.703125 -4.296875 
C 36.296875 0.59375 37.703125 9.90625 37.703125 20.90625 
C 37.703125 30 36.703125 38.796875 31.59375 47 
C 34.59375 49.5 37.5 52.203125 39.90625 55 
z
" id="SourceHanSansSC-Bold-33719"/>
     <path d="M 82.09375 63.203125 
C 80.296875 51.703125 77.40625 41.296875 73.5 32.203125 
C 69.703125 41.5 67 52 65 63.203125 
z
M 51 74.5 
L 51 63.203125 
L 54.40625 63.203125 
C 57.203125 46.703125 61.09375 31.90625 67 19.59375 
C 61.703125 11.09375 55.203125 4.40625 47.703125 -0.09375 
C 50.203125 -2.203125 53.5 -6.203125 55.203125 -9.09375 
C 62.203125 -4.40625 68.203125 1.40625 73.40625 8.40625 
C 77.90625 1.796875 83.296875 -3.796875 89.796875 -8.296875 
C 91.703125 -5.296875 95.296875 -1 97.90625 1 
C 90.703125 5.40625 84.90625 11.59375 80.203125 19.203125 
C 87.5 33.09375 92.40625 50.796875 94.59375 72.90625 
L 87.09375 74.90625 
L 85.09375 74.5 
z
M 3.40625 14.90625 
L 5.796875 3.40625 
L 32.703125 8 
L 32.703125 -8.796875 
L 44.40625 -8.796875 
L 44.40625 10.09375 
L 52.796875 11.59375 
L 52.203125 21.59375 
L 44.40625 20.5 
L 44.40625 70.296875 
L 50.296875 70.296875 
L 50.296875 81 
L 4.5 81 
L 4.5 70.296875 
L 10 70.296875 
L 10 15.703125 
z
M 21.5 70.296875 
L 32.703125 70.296875 
L 32.703125 60 
L 21.5 60 
z
M 21.5 49.796875 
L 32.703125 49.796875 
L 32.703125 38.90625 
L 21.5 38.90625 
z
M 21.5 28.703125 
L 32.703125 28.703125 
L 32.703125 18.796875 
L 21.5 17.203125 
z
" id="SourceHanSansSC-Bold-21462"/>
     <path d="M 13.40625 85 
L 13.40625 64.796875 
L 4.09375 64.796875 
L 4.09375 53.90625 
L 13.40625 53.90625 
L 13.40625 53.59375 
C 11.203125 41.59375 6.703125 27.296875 1.703125 18.796875 
C 3.40625 16 6 11.59375 7.09375 8.40625 
C 9.40625 12.203125 11.5 17.203125 13.40625 22.796875 
L 13.40625 -8.90625 
L 23.90625 -8.90625 
L 23.90625 35.09375 
C 25.5 31.09375 27 27 27.90625 24.09375 
L 33.703125 33.5 
L 33.703125 17.59375 
C 33.703125 12.796875 30.90625 9 29 7.40625 
C 30.703125 5.703125 33.59375 1.703125 34.5 -0.40625 
C 36.09375 1.5 38.703125 3.703125 53.40625 12.59375 
L 54.703125 8.296875 
L 63 12.40625 
C 61.59375 17.59375 57.796875 26.09375 54.5 32.5 
L 46.796875 29.09375 
C 48 26.5 49.296875 23.703125 50.40625 20.796875 
L 42.796875 16.703125 
L 42.796875 35.203125 
L 58.796875 35.203125 
L 58.796875 43.09375 
C 59.703125 41.09375 61.59375 37.09375 62.203125 35 
C 63.09375 35.796875 66.59375 36.40625 69.796875 36.40625 
L 72.90625 36.40625 
C 69.40625 22.59375 62.90625 8.40625 51 -3.5 
C 53.703125 -4.796875 57.59375 -7.59375 59.5 -9.296875 
C 66.40625 -2 71.59375 6.09375 75.40625 14.5 
L 75.40625 3.09375 
C 75.40625 -2.40625 75.796875 -4 77.40625 -5.59375 
C 78.796875 -7.09375 81 -7.703125 83.296875 -7.703125 
C 84.5 -7.703125 86.5 -7.703125 87.796875 -7.703125 
C 89.59375 -7.703125 91.40625 -7.09375 92.703125 -6.203125 
C 94.09375 -5.203125 94.90625 -3.703125 95.5 -1.59375 
C 96 0.59375 96.40625 6.296875 96.5 11.296875 
C 94.5 12 91.90625 13.40625 90.40625 14.59375 
C 90.5 10 90.40625 6.09375 90.203125 4.40625 
C 90 3.40625 89.703125 2.59375 89.296875 2.203125 
C 89 1.796875 88.40625 1.703125 87.796875 1.703125 
C 87.203125 1.703125 86.5 1.703125 86 1.703125 
C 85.40625 1.703125 84.90625 1.90625 84.59375 2.203125 
C 84.296875 2.5 84.296875 3.203125 84.296875 3.703125 
L 84.296875 31.59375 
L 81.5 31.59375 
L 82.703125 36.40625 
L 95.90625 36.40625 
L 96 46.09375 
L 84.5 46.09375 
C 85.796875 54.796875 86.203125 63.09375 86.296875 70.09375 
L 94.703125 70.09375 
L 94.703125 80.296875 
L 61.90625 80.296875 
L 61.90625 70.09375 
L 77.09375 70.09375 
C 77 63.09375 76.5 54.796875 75 46.09375 
L 70.203125 46.09375 
L 73.5 65.40625 
L 64.5 65.40625 
C 63.90625 60.796875 62 48.296875 61.203125 46.203125 
C 60.5 44.5 59.90625 43.796875 58.796875 43.40625 
L 58.796875 79.90625 
L 33.703125 79.90625 
L 33.703125 34.59375 
C 32 37.90625 25.796875 49.296875 23.90625 52.40625 
L 23.90625 53.90625 
L 31.59375 53.90625 
L 31.59375 64.796875 
L 23.90625 64.796875 
L 23.90625 85 
z
M 50.296875 53.5 
L 50.296875 44.796875 
L 42.796875 44.796875 
L 42.796875 53.5 
z
M 50.296875 62 
L 42.796875 62 
L 42.796875 70.40625 
L 50.296875 70.40625 
z
" id="SourceHanSansSC-Bold-27010"/>
     <path d="M 81.703125 64.296875 
C 78.5 60.296875 72.90625 54.90625 68.796875 51.703125 
L 77.59375 46.296875 
C 81.796875 49.296875 87.203125 53.90625 91.703125 58.5 
z
M 6.796875 57.5 
C 12.09375 54.296875 18.703125 49.40625 21.703125 46.09375 
L 30.203125 53.203125 
C 26.796875 56.5 20 61 14.796875 63.90625 
z
M 4.296875 20.59375 
L 4.296875 9.5 
L 43.59375 9.5 
L 43.59375 -8.796875 
L 56.40625 -8.796875 
L 56.40625 9.5 
L 95.796875 9.5 
L 95.796875 20.59375 
L 56.40625 20.59375 
L 56.40625 27.296875 
L 43.59375 27.296875 
L 43.59375 20.59375 
z
M 40.90625 82.703125 
L 44.296875 77 
L 6.90625 77 
L 6.90625 66.09375 
L 41.203125 66.09375 
C 39 62.703125 36.796875 60.09375 35.90625 59.09375 
C 34.296875 57.296875 32.796875 56 31.203125 55.59375 
C 32.296875 53.09375 33.90625 48.296875 34.5 46.296875 
C 36 46.90625 38.203125 47.40625 45.90625 47.90625 
C 42.40625 44.59375 39.5 42.09375 38 40.90625 
C 34.40625 38.09375 32.09375 36.296875 29.5 35.796875 
C 30.59375 33.09375 32.09375 28.203125 32.59375 26.203125 
C 35.09375 27.296875 39 28 62.90625 30.296875 
C 63.703125 28.5 64.40625 26.796875 64.90625 25.40625 
L 74.203125 28.90625 
C 73.40625 31.296875 71.90625 34.203125 70.203125 37.203125 
C 76.203125 33.5 82.796875 28.796875 86.296875 25.59375 
L 95.09375 32.703125 
C 90.5 36.59375 81.59375 42.09375 75.09375 45.59375 
L 68.296875 40.203125 
C 66.796875 42.59375 65.203125 44.90625 63.59375 46.90625 
L 54.90625 43.796875 
C 56 42.203125 57.203125 40.5 58.296875 38.703125 
L 47.796875 38 
C 55.796875 44.40625 63.796875 52.203125 70.59375 60.203125 
L 61.59375 65.59375 
C 59.59375 62.90625 57.40625 60.09375 55.09375 57.5 
L 45.90625 57.203125 
C 48.40625 60 50.796875 63 52.90625 66.09375 
L 94.40625 66.09375 
L 94.40625 77 
L 58.59375 77 
C 57.203125 79.703125 55.09375 83 53.09375 85.5 
z
M 4 35.40625 
L 9.796875 25.796875 
C 15.703125 28.59375 22.796875 32.203125 29.5 35.796875 
L 31.296875 36.796875 
L 29 45.5 
C 19.796875 41.703125 10.296875 37.703125 4 35.40625 
z
" id="SourceHanSansSC-Bold-29575"/>
    </defs>
    <g transform="translate(150.7875 37.2)scale(0.15 -0.15)">
     <use xlink:href="#SourceHanSansSC-Bold-21407"/>
     <use x="99.999985" xlink:href="#SourceHanSansSC-Bold-31070"/>
     <use x="199.999969" xlink:href="#SourceHanSansSC-Bold-85"/>
     <use x="274.799957" xlink:href="#SourceHanSansSC-Bold-80"/>
     <use x="341.499954" xlink:href="#SourceHanSansSC-Bold-35282"/>
     <use x="441.499939" xlink:href="#SourceHanSansSC-Bold-33394"/>
     <use x="541.499924" xlink:href="#SourceHanSansSC-Bold-33719"/>
     <use x="641.499908" xlink:href="#SourceHanSansSC-Bold-21462"/>
     <use x="741.499893" xlink:href="#SourceHanSansSC-Bold-27010"/>
     <use x="841.499878" xlink:href="#SourceHanSansSC-Bold-29575"/>
    </g>
   </g>
  </g>
 </g>
 <defs>
  <clipPath id="p2eb5bef362">
   <rect height="277.2" width="334.8" x="54" y="43.2"/>
  </clipPath>
 </defs>
</svg>
