<?xml version="1.0" encoding="utf-8" standalone="no"?>
<!DOCTYPE svg PUBLIC "-//W3C//DTD SVG 1.1//EN"
  "http://www.w3.org/Graphics/SVG/1.1/DTD/svg11.dtd">
<!-- Created with matplotlib (https://matplotlib.org/) -->
<svg height="360pt" version="1.1" viewBox="0 0 432 360" width="432pt" xmlns="http://www.w3.org/2000/svg" xmlns:xlink="http://www.w3.org/1999/xlink">
 <defs>
  <style type="text/css">
*{stroke-linecap:butt;stroke-linejoin:round;}
  </style>
 </defs>
 <g id="figure_1">
  <g id="patch_1">
   <path d="M 0 360 
L 432 360 
L 432 0 
L 0 0 
z
" style="fill:#ffffff;"/>
  </g>
  <g id="axes_1">
   <g id="patch_2">
    <path d="M 54 320.4 
L 388.8 320.4 
L 388.8 43.2 
L 54 43.2 
z
" style="fill:#ffffff;"/>
   </g>
   <g id="matplotlib.axis_1">
    <g id="xtick_1">
     <g id="line2d_1">
      <defs>
       <path d="M 0 0 
L 0 3.5 
" id="m165c791996" style="stroke:#000000;stroke-width:0.8;"/>
      </defs>
      <g>
       <use style="stroke:#000000;stroke-width:0.8;" x="69.065924" xlink:href="#m165c791996" y="320.4"/>
      </g>
     </g>
     <g id="text_1">
      <!-- 0 -->
      <defs>
       <path d="M 31.78125 66.40625 
Q 24.171875 66.40625 20.328125 58.90625 
Q 16.5 51.421875 16.5 36.375 
Q 16.5 21.390625 20.328125 13.890625 
Q 24.171875 6.390625 31.78125 6.390625 
Q 39.453125 6.390625 43.28125 13.890625 
Q 47.125 21.390625 47.125 36.375 
Q 47.125 51.421875 43.28125 58.90625 
Q 39.453125 66.40625 31.78125 66.40625 
z
M 31.78125 74.21875 
Q 44.046875 74.21875 50.515625 64.515625 
Q 56.984375 54.828125 56.984375 36.375 
Q 56.984375 17.96875 50.515625 8.265625 
Q 44.046875 -1.421875 31.78125 -1.421875 
Q 19.53125 -1.421875 13.0625 8.265625 
Q 6.59375 17.96875 6.59375 36.375 
Q 6.59375 54.828125 13.0625 64.515625 
Q 19.53125 74.21875 31.78125 74.21875 
z
" id="DejaVuSans-48"/>
      </defs>
      <g transform="translate(65.884674 334.998438)scale(0.1 -0.1)">
       <use xlink:href="#DejaVuSans-48"/>
      </g>
     </g>
    </g>
    <g id="xtick_2">
     <g id="line2d_2">
      <g>
       <use style="stroke:#000000;stroke-width:0.8;" x="107.130411" xlink:href="#m165c791996" y="320.4"/>
      </g>
     </g>
     <g id="text_2">
      <!-- 250 -->
      <defs>
       <path d="M 19.1875 8.296875 
L 53.609375 8.296875 
L 53.609375 0 
L 7.328125 0 
L 7.328125 8.296875 
Q 12.9375 14.109375 22.625 23.890625 
Q 32.328125 33.6875 34.8125 36.53125 
Q 39.546875 41.84375 41.421875 45.53125 
Q 43.3125 49.21875 43.3125 52.78125 
Q 43.3125 58.59375 39.234375 62.25 
Q 35.15625 65.921875 28.609375 65.921875 
Q 23.96875 65.921875 18.8125 64.3125 
Q 13.671875 62.703125 7.8125 59.421875 
L 7.8125 69.390625 
Q 13.765625 71.78125 18.9375 73 
Q 24.125 74.21875 28.421875 74.21875 
Q 39.75 74.21875 46.484375 68.546875 
Q 53.21875 62.890625 53.21875 53.421875 
Q 53.21875 48.921875 51.53125 44.890625 
Q 49.859375 40.875 45.40625 35.40625 
Q 44.1875 33.984375 37.640625 27.21875 
Q 31.109375 20.453125 19.1875 8.296875 
z
" id="DejaVuSans-50"/>
       <path d="M 10.796875 72.90625 
L 49.515625 72.90625 
L 49.515625 64.59375 
L 19.828125 64.59375 
L 19.828125 46.734375 
Q 21.96875 47.46875 24.109375 47.828125 
Q 26.265625 48.1875 28.421875 48.1875 
Q 40.625 48.1875 47.75 41.5 
Q 54.890625 34.8125 54.890625 23.390625 
Q 54.890625 11.625 47.5625 5.09375 
Q 40.234375 -1.421875 26.90625 -1.421875 
Q 22.3125 -1.421875 17.546875 -0.640625 
Q 12.796875 0.140625 7.71875 1.703125 
L 7.71875 11.625 
Q 12.109375 9.234375 16.796875 8.0625 
Q 21.484375 6.890625 26.703125 6.890625 
Q 35.15625 6.890625 40.078125 11.328125 
Q 45.015625 15.765625 45.015625 23.390625 
Q 45.015625 31 40.078125 35.4375 
Q 35.15625 39.890625 26.703125 39.890625 
Q 22.75 39.890625 18.8125 39.015625 
Q 14.890625 38.140625 10.796875 36.28125 
z
" id="DejaVuSans-53"/>
      </defs>
      <g transform="translate(97.586661 334.998438)scale(0.1 -0.1)">
       <use xlink:href="#DejaVuSans-50"/>
       <use x="63.623047" xlink:href="#DejaVuSans-53"/>
       <use x="127.246094" xlink:href="#DejaVuSans-48"/>
      </g>
     </g>
    </g>
    <g id="xtick_3">
     <g id="line2d_3">
      <g>
       <use style="stroke:#000000;stroke-width:0.8;" x="145.194897" xlink:href="#m165c791996" y="320.4"/>
      </g>
     </g>
     <g id="text_3">
      <!-- 500 -->
      <g transform="translate(135.651147 334.998438)scale(0.1 -0.1)">
       <use xlink:href="#DejaVuSans-53"/>
       <use x="63.623047" xlink:href="#DejaVuSans-48"/>
       <use x="127.246094" xlink:href="#DejaVuSans-48"/>
      </g>
     </g>
    </g>
    <g id="xtick_4">
     <g id="line2d_4">
      <g>
       <use style="stroke:#000000;stroke-width:0.8;" x="183.259384" xlink:href="#m165c791996" y="320.4"/>
      </g>
     </g>
     <g id="text_4">
      <!-- 750 -->
      <defs>
       <path d="M 8.203125 72.90625 
L 55.078125 72.90625 
L 55.078125 68.703125 
L 28.609375 0 
L 18.3125 0 
L 43.21875 64.59375 
L 8.203125 64.59375 
z
" id="DejaVuSans-55"/>
      </defs>
      <g transform="translate(173.715634 334.998438)scale(0.1 -0.1)">
       <use xlink:href="#DejaVuSans-55"/>
       <use x="63.623047" xlink:href="#DejaVuSans-53"/>
       <use x="127.246094" xlink:href="#DejaVuSans-48"/>
      </g>
     </g>
    </g>
    <g id="xtick_5">
     <g id="line2d_5">
      <g>
       <use style="stroke:#000000;stroke-width:0.8;" x="221.323871" xlink:href="#m165c791996" y="320.4"/>
      </g>
     </g>
     <g id="text_5">
      <!-- 1000 -->
      <defs>
       <path d="M 12.40625 8.296875 
L 28.515625 8.296875 
L 28.515625 63.921875 
L 10.984375 60.40625 
L 10.984375 69.390625 
L 28.421875 72.90625 
L 38.28125 72.90625 
L 38.28125 8.296875 
L 54.390625 8.296875 
L 54.390625 0 
L 12.40625 0 
z
" id="DejaVuSans-49"/>
      </defs>
      <g transform="translate(208.598871 334.998438)scale(0.1 -0.1)">
       <use xlink:href="#DejaVuSans-49"/>
       <use x="63.623047" xlink:href="#DejaVuSans-48"/>
       <use x="127.246094" xlink:href="#DejaVuSans-48"/>
       <use x="190.869141" xlink:href="#DejaVuSans-48"/>
      </g>
     </g>
    </g>
    <g id="xtick_6">
     <g id="line2d_6">
      <g>
       <use style="stroke:#000000;stroke-width:0.8;" x="259.388358" xlink:href="#m165c791996" y="320.4"/>
      </g>
     </g>
     <g id="text_6">
      <!-- 1250 -->
      <g transform="translate(246.663358 334.998438)scale(0.1 -0.1)">
       <use xlink:href="#DejaVuSans-49"/>
       <use x="63.623047" xlink:href="#DejaVuSans-50"/>
       <use x="127.246094" xlink:href="#DejaVuSans-53"/>
       <use x="190.869141" xlink:href="#DejaVuSans-48"/>
      </g>
     </g>
    </g>
    <g id="xtick_7">
     <g id="line2d_7">
      <g>
       <use style="stroke:#000000;stroke-width:0.8;" x="297.452845" xlink:href="#m165c791996" y="320.4"/>
      </g>
     </g>
     <g id="text_7">
      <!-- 1500 -->
      <g transform="translate(284.727845 334.998438)scale(0.1 -0.1)">
       <use xlink:href="#DejaVuSans-49"/>
       <use x="63.623047" xlink:href="#DejaVuSans-53"/>
       <use x="127.246094" xlink:href="#DejaVuSans-48"/>
       <use x="190.869141" xlink:href="#DejaVuSans-48"/>
      </g>
     </g>
    </g>
    <g id="xtick_8">
     <g id="line2d_8">
      <g>
       <use style="stroke:#000000;stroke-width:0.8;" x="335.517331" xlink:href="#m165c791996" y="320.4"/>
      </g>
     </g>
     <g id="text_8">
      <!-- 1750 -->
      <g transform="translate(322.792331 334.998438)scale(0.1 -0.1)">
       <use xlink:href="#DejaVuSans-49"/>
       <use x="63.623047" xlink:href="#DejaVuSans-55"/>
       <use x="127.246094" xlink:href="#DejaVuSans-53"/>
       <use x="190.869141" xlink:href="#DejaVuSans-48"/>
      </g>
     </g>
    </g>
    <g id="xtick_9">
     <g id="line2d_9">
      <g>
       <use style="stroke:#000000;stroke-width:0.8;" x="373.581818" xlink:href="#m165c791996" y="320.4"/>
      </g>
     </g>
     <g id="text_9">
      <!-- 2000 -->
      <g transform="translate(360.856818 334.998438)scale(0.1 -0.1)">
       <use xlink:href="#DejaVuSans-50"/>
       <use x="63.623047" xlink:href="#DejaVuSans-48"/>
       <use x="127.246094" xlink:href="#DejaVuSans-48"/>
       <use x="190.869141" xlink:href="#DejaVuSans-48"/>
      </g>
     </g>
    </g>
   </g>
   <g id="matplotlib.axis_2">
    <g id="ytick_1">
     <g id="line2d_10">
      <defs>
       <path d="M 0 0 
L -3.5 0 
" id="m6b16a7f4cf" style="stroke:#000000;stroke-width:0.8;"/>
      </defs>
      <g>
       <use style="stroke:#000000;stroke-width:0.8;" x="54" xlink:href="#m6b16a7f4cf" y="307.8"/>
      </g>
     </g>
     <g id="text_10">
      <!-- 0.0000 -->
      <defs>
       <path d="M 10.6875 12.40625 
L 21 12.40625 
L 21 0 
L 10.6875 0 
z
" id="DejaVuSans-46"/>
      </defs>
      <g transform="translate(12.009375 311.599219)scale(0.1 -0.1)">
       <use xlink:href="#DejaVuSans-48"/>
       <use x="63.623047" xlink:href="#DejaVuSans-46"/>
       <use x="95.410156" xlink:href="#DejaVuSans-48"/>
       <use x="159.033203" xlink:href="#DejaVuSans-48"/>
       <use x="222.65625" xlink:href="#DejaVuSans-48"/>
       <use x="286.279297" xlink:href="#DejaVuSans-48"/>
      </g>
     </g>
    </g>
    <g id="ytick_2">
     <g id="line2d_11">
      <g>
       <use style="stroke:#000000;stroke-width:0.8;" x="54" xlink:href="#m6b16a7f4cf" y="271.288165"/>
      </g>
     </g>
     <g id="text_11">
      <!-- 0.0005 -->
      <g transform="translate(12.009375 275.087384)scale(0.1 -0.1)">
       <use xlink:href="#DejaVuSans-48"/>
       <use x="63.623047" xlink:href="#DejaVuSans-46"/>
       <use x="95.410156" xlink:href="#DejaVuSans-48"/>
       <use x="159.033203" xlink:href="#DejaVuSans-48"/>
       <use x="222.65625" xlink:href="#DejaVuSans-48"/>
       <use x="286.279297" xlink:href="#DejaVuSans-53"/>
      </g>
     </g>
    </g>
    <g id="ytick_3">
     <g id="line2d_12">
      <g>
       <use style="stroke:#000000;stroke-width:0.8;" x="54" xlink:href="#m6b16a7f4cf" y="234.77633"/>
      </g>
     </g>
     <g id="text_12">
      <!-- 0.0010 -->
      <g transform="translate(12.009375 238.575549)scale(0.1 -0.1)">
       <use xlink:href="#DejaVuSans-48"/>
       <use x="63.623047" xlink:href="#DejaVuSans-46"/>
       <use x="95.410156" xlink:href="#DejaVuSans-48"/>
       <use x="159.033203" xlink:href="#DejaVuSans-48"/>
       <use x="222.65625" xlink:href="#DejaVuSans-49"/>
       <use x="286.279297" xlink:href="#DejaVuSans-48"/>
      </g>
     </g>
    </g>
    <g id="ytick_4">
     <g id="line2d_13">
      <g>
       <use style="stroke:#000000;stroke-width:0.8;" x="54" xlink:href="#m6b16a7f4cf" y="198.264495"/>
      </g>
     </g>
     <g id="text_13">
      <!-- 0.0015 -->
      <g transform="translate(12.009375 202.063714)scale(0.1 -0.1)">
       <use xlink:href="#DejaVuSans-48"/>
       <use x="63.623047" xlink:href="#DejaVuSans-46"/>
       <use x="95.410156" xlink:href="#DejaVuSans-48"/>
       <use x="159.033203" xlink:href="#DejaVuSans-48"/>
       <use x="222.65625" xlink:href="#DejaVuSans-49"/>
       <use x="286.279297" xlink:href="#DejaVuSans-53"/>
      </g>
     </g>
    </g>
    <g id="ytick_5">
     <g id="line2d_14">
      <g>
       <use style="stroke:#000000;stroke-width:0.8;" x="54" xlink:href="#m6b16a7f4cf" y="161.75266"/>
      </g>
     </g>
     <g id="text_14">
      <!-- 0.0020 -->
      <g transform="translate(12.009375 165.551879)scale(0.1 -0.1)">
       <use xlink:href="#DejaVuSans-48"/>
       <use x="63.623047" xlink:href="#DejaVuSans-46"/>
       <use x="95.410156" xlink:href="#DejaVuSans-48"/>
       <use x="159.033203" xlink:href="#DejaVuSans-48"/>
       <use x="222.65625" xlink:href="#DejaVuSans-50"/>
       <use x="286.279297" xlink:href="#DejaVuSans-48"/>
      </g>
     </g>
    </g>
    <g id="ytick_6">
     <g id="line2d_15">
      <g>
       <use style="stroke:#000000;stroke-width:0.8;" x="54" xlink:href="#m6b16a7f4cf" y="125.240825"/>
      </g>
     </g>
     <g id="text_15">
      <!-- 0.0025 -->
      <g transform="translate(12.009375 129.040043)scale(0.1 -0.1)">
       <use xlink:href="#DejaVuSans-48"/>
       <use x="63.623047" xlink:href="#DejaVuSans-46"/>
       <use x="95.410156" xlink:href="#DejaVuSans-48"/>
       <use x="159.033203" xlink:href="#DejaVuSans-48"/>
       <use x="222.65625" xlink:href="#DejaVuSans-50"/>
       <use x="286.279297" xlink:href="#DejaVuSans-53"/>
      </g>
     </g>
    </g>
    <g id="ytick_7">
     <g id="line2d_16">
      <g>
       <use style="stroke:#000000;stroke-width:0.8;" x="54" xlink:href="#m6b16a7f4cf" y="88.72899"/>
      </g>
     </g>
     <g id="text_16">
      <!-- 0.0030 -->
      <defs>
       <path d="M 40.578125 39.3125 
Q 47.65625 37.796875 51.625 33 
Q 55.609375 28.21875 55.609375 21.1875 
Q 55.609375 10.40625 48.1875 4.484375 
Q 40.765625 -1.421875 27.09375 -1.421875 
Q 22.515625 -1.421875 17.65625 -0.515625 
Q 12.796875 0.390625 7.625 2.203125 
L 7.625 11.71875 
Q 11.71875 9.328125 16.59375 8.109375 
Q 21.484375 6.890625 26.8125 6.890625 
Q 36.078125 6.890625 40.9375 10.546875 
Q 45.796875 14.203125 45.796875 21.1875 
Q 45.796875 27.640625 41.28125 31.265625 
Q 36.765625 34.90625 28.71875 34.90625 
L 20.21875 34.90625 
L 20.21875 43.015625 
L 29.109375 43.015625 
Q 36.375 43.015625 40.234375 45.921875 
Q 44.09375 48.828125 44.09375 54.296875 
Q 44.09375 59.90625 40.109375 62.90625 
Q 36.140625 65.921875 28.71875 65.921875 
Q 24.65625 65.921875 20.015625 65.03125 
Q 15.375 64.15625 9.8125 62.3125 
L 9.8125 71.09375 
Q 15.4375 72.65625 20.34375 73.4375 
Q 25.25 74.21875 29.59375 74.21875 
Q 40.828125 74.21875 47.359375 69.109375 
Q 53.90625 64.015625 53.90625 55.328125 
Q 53.90625 49.265625 50.4375 45.09375 
Q 46.96875 40.921875 40.578125 39.3125 
z
" id="DejaVuSans-51"/>
      </defs>
      <g transform="translate(12.009375 92.528208)scale(0.1 -0.1)">
       <use xlink:href="#DejaVuSans-48"/>
       <use x="63.623047" xlink:href="#DejaVuSans-46"/>
       <use x="95.410156" xlink:href="#DejaVuSans-48"/>
       <use x="159.033203" xlink:href="#DejaVuSans-48"/>
       <use x="222.65625" xlink:href="#DejaVuSans-51"/>
       <use x="286.279297" xlink:href="#DejaVuSans-48"/>
      </g>
     </g>
    </g>
    <g id="ytick_8">
     <g id="line2d_17">
      <g>
       <use style="stroke:#000000;stroke-width:0.8;" x="54" xlink:href="#m6b16a7f4cf" y="52.217155"/>
      </g>
     </g>
     <g id="text_17">
      <!-- 0.0035 -->
      <g transform="translate(12.009375 56.016373)scale(0.1 -0.1)">
       <use xlink:href="#DejaVuSans-48"/>
       <use x="63.623047" xlink:href="#DejaVuSans-46"/>
       <use x="95.410156" xlink:href="#DejaVuSans-48"/>
       <use x="159.033203" xlink:href="#DejaVuSans-48"/>
       <use x="222.65625" xlink:href="#DejaVuSans-51"/>
       <use x="286.279297" xlink:href="#DejaVuSans-53"/>
      </g>
     </g>
    </g>
   </g>
   <g id="line2d_18">
    <path clip-path="url(#pe19ec0d2ec)" d="M 167.120042 320.4 
L 167.120042 43.2 
" style="fill:none;stroke:#d3d3d3;stroke-dasharray:1.5,2.475;stroke-dashoffset:0;stroke-width:1.5;"/>
   </g>
   <g id="line2d_19">
    <path clip-path="url(#pe19ec0d2ec)" d="M 150.067152 320.4 
L 150.067152 43.2 
" style="fill:none;stroke:#d3d3d3;stroke-dasharray:1.5,2.475;stroke-dashoffset:0;stroke-width:1.5;"/>
   </g>
   <g id="line2d_20">
    <path clip-path="url(#pe19ec0d2ec)" d="M 69.218182 307.8 
L 103.019446 307.690532 
L 107.739442 307.446616 
L 110.784601 307.079549 
L 113.220729 306.570859 
L 115.35234 305.908551 
L 117.179435 305.12961 
L 118.702015 304.255236 
L 120.224594 303.113466 
L 121.747174 301.663679 
L 123.269753 299.870483 
L 124.792333 297.703424 
L 126.314912 295.13742 
L 127.837491 292.122999 
L 129.055555 289.201732 
L 130.425877 285.26249 
L 131.948456 280.170084 
L 133.623293 273.74072 
L 135.450389 265.782399 
L 137.429742 256.133404 
L 139.10458 247.038631 
L 140.322643 239.059157 
L 143.063286 218.793181 
L 147.021993 187.782162 
L 150.676184 158.139212 
L 152.046505 143.69577 
L 153.264569 132.002533 
L 155.091664 117.020516 
L 156.918759 103.708784 
L 158.593597 93.142486 
L 160.116176 84.998482 
L 161.943272 75.881233 
L 162.552303 71.145363 
L 163.922625 59.578605 
L 164.379399 57.660826 
L 164.836173 56.757346 
L 165.292946 56.388548 
L 166.51101 55.899134 
L 167.120042 55.8 
L 167.729074 55.936144 
L 168.338105 56.351437 
L 168.947137 57.050843 
L 169.708427 58.313414 
L 170.621975 60.372395 
L 171.535522 62.990967 
L 173.514876 68.980958 
L 173.819392 69.085976 
L 174.123907 68.719391 
L 174.580681 67.532681 
L 175.037455 66.440267 
L 175.189713 66.305679 
L 175.341971 66.351056 
L 175.494229 66.602453 
L 175.798745 67.768811 
L 176.255519 71.045844 
L 177.169066 80.330597 
L 178.234872 90.420029 
L 180.823257 111.429433 
L 185.238738 147.005412 
L 185.847769 149.666935 
L 186.913575 152.852219 
L 187.370349 155.755817 
L 187.827123 160.297309 
L 188.892928 174.35569 
L 189.806476 185.27121 
L 190.872282 195.270205 
L 192.699377 209.897716 
L 194.830988 225.29685 
L 196.505826 235.971774 
L 197.267115 239.631232 
L 198.028405 242.128689 
L 198.637437 244.129103 
L 199.094211 246.324734 
L 199.703243 250.517601 
L 201.682596 265.688411 
L 202.596144 270.304926 
L 203.814207 275.202933 
L 205.336787 280.460353 
L 207.011624 285.435787 
L 208.229688 288.490646 
L 209.143235 290.205557 
L 210.970331 293.015684 
L 211.73162 295.029084 
L 213.101942 298.71202 
L 213.863232 300.087213 
L 214.776779 301.23246 
L 215.994843 302.378761 
L 217.66968 303.644387 
L 219.344518 304.650099 
L 220.714839 305.249894 
L 223.60774 306.301921 
L 224.978062 306.939948 
L 226.196125 307.227234 
L 228.479995 307.45323 
L 233.047733 307.666665 
L 244.619337 307.8 
L 373.581818 307.8 
L 373.581818 307.8 
" style="fill:none;stroke:#fa8072;stroke-linecap:square;stroke-width:1.5;"/>
   </g>
   <g id="line2d_21">
    <path clip-path="url(#pe19ec0d2ec)" d="M 69.218182 307.8 
L 86.42333 307.692584 
L 90.534294 307.441227 
L 92.818164 307.06835 
L 94.949775 306.502708 
L 97.233644 305.657279 
L 99.060739 304.777861 
L 99.974287 304.086278 
L 101.344609 302.66496 
L 103.323962 300.292493 
L 105.455573 297.400565 
L 107.8917 293.706502 
L 108.65299 292.264555 
L 109.262022 290.427565 
L 110.784601 285.158348 
L 112.916213 279.60844 
L 117.483951 267.42725 
L 118.092983 265.316787 
L 118.549757 262.610369 
L 119.76782 253.546467 
L 120.224594 252.158559 
L 121.2904 250.055662 
L 122.203947 247.344305 
L 126.771686 233.261741 
L 127.685234 230.373 
L 128.142007 228.025196 
L 128.598781 224.018676 
L 129.664587 213.132113 
L 129.969103 212.039978 
L 130.121361 211.89377 
L 130.273619 211.939894 
L 131.187166 212.914926 
L 131.491682 212.726631 
L 131.948456 211.946051 
L 133.014262 209.27828 
L 135.450389 203.219806 
L 137.734258 197.753695 
L 138.191032 195.510075 
L 138.647806 191.689944 
L 139.561353 182.77051 
L 139.865869 181.424091 
L 140.018127 181.212174 
L 140.170385 181.271855 
L 140.474901 181.987772 
L 141.388449 184.79224 
L 141.692965 185.109634 
L 141.997481 185.108646 
L 142.454254 184.736889 
L 143.672318 183.155904 
L 145.347155 181.129661 
L 147.783283 178.346179 
L 148.087798 177.440989 
L 148.544572 175.135739 
L 149.762636 167.478553 
L 149.914894 167.197019 
L 150.067152 167.154286 
L 150.21941 167.332165 
L 150.523926 168.208395 
L 151.741989 172.667073 
L 152.198763 173.326065 
L 152.655537 173.572546 
L 153.416827 173.649247 
L 155.091664 173.78366 
L 156.614243 174.147489 
L 157.527791 174.321758 
L 157.832307 174.190489 
L 158.136823 173.818229 
L 158.441339 173.125239 
L 159.050371 170.908169 
L 159.659402 168.937836 
L 159.963918 168.674814 
L 160.116176 168.779345 
L 160.420692 169.423371 
L 161.029724 171.776763 
L 161.791014 174.625772 
L 162.400045 176.028336 
L 163.161335 177.089886 
L 167.881332 182.393893 
L 168.185847 182.461115 
L 168.490363 182.341934 
L 168.947137 181.849951 
L 169.556169 181.156467 
L 169.860685 181.129173 
L 170.165201 181.457726 
L 170.621975 182.604923 
L 172.601328 188.973203 
L 173.667134 190.986594 
L 178.082614 198.420212 
L 178.691646 198.906118 
L 179.757451 199.393713 
L 180.214225 200.045819 
L 180.670999 201.139793 
L 183.107126 207.949432 
L 185.08648 211.847797 
L 188.131639 217.519638 
L 189.045186 218.69997 
L 189.958734 219.841786 
L 190.567766 221.010667 
L 191.633571 223.742438 
L 192.851635 226.658767 
L 194.526472 229.937508 
L 198.028405 236.28168 
L 199.398727 238.28132 
L 200.464532 239.947741 
L 201.682596 242.443253 
L 203.205175 245.430437 
L 205.489045 249.261563 
L 208.381946 253.761307 
L 211.579362 258.410151 
L 213.558716 261.496151 
L 216.299359 265.223183 
L 218.887744 268.44591 
L 222.085161 272.266896 
L 224.216772 274.747685 
L 227.414189 278.071055 
L 230.154832 280.620651 
L 235.48386 285.301738 
L 238.833535 287.810617 
L 243.705789 291.075551 
L 247.055464 293.030601 
L 250.709655 294.909558 
L 254.972877 296.874586 
L 259.083842 298.485845 
L 263.956096 300.12571 
L 268.523835 301.413599 
L 273.700605 302.633177 
L 279.029633 303.658383 
L 285.119951 304.597935 
L 291.819301 305.39655 
L 299.432198 306.075821 
L 308.415417 306.642802 
L 319.225731 307.090253 
L 332.928946 307.423003 
L 351.96119 307.646725 
L 373.581818 307.74628 
L 373.581818 307.74628 
" style="fill:none;stroke:#847db3;stroke-linecap:square;stroke-width:1.5;"/>
   </g>
   <g id="patch_3">
    <path d="M 54 320.4 
L 54 43.2 
" style="fill:none;stroke:#000000;stroke-linecap:square;stroke-linejoin:miter;stroke-width:0.8;"/>
   </g>
   <g id="patch_4">
    <path d="M 388.8 320.4 
L 388.8 43.2 
" style="fill:none;stroke:#000000;stroke-linecap:square;stroke-linejoin:miter;stroke-width:0.8;"/>
   </g>
   <g id="patch_5">
    <path d="M 54 320.4 
L 388.8 320.4 
" style="fill:none;stroke:#000000;stroke-linecap:square;stroke-linejoin:miter;stroke-width:0.8;"/>
   </g>
   <g id="patch_6">
    <path d="M 54 43.2 
L 388.8 43.2 
" style="fill:none;stroke:#000000;stroke-linecap:square;stroke-linejoin:miter;stroke-width:0.8;"/>
   </g>
   <g id="text_18">
    <!-- 644 -->
    <defs>
     <path d="M 31.59375 -1.40625 
C 44.203125 -1.40625 54.796875 8.203125 54.796875 23.40625 
C 54.796875 39.203125 45.90625 46.59375 33.5 46.59375 
C 28.796875 46.59375 22.5 43.796875 18.40625 38.796875 
C 19.09375 57.203125 26 63.59375 34.59375 63.59375 
C 38.796875 63.59375 43.296875 61.09375 45.90625 58.203125 
L 53.703125 67 
C 49.296875 71.59375 42.703125 75.40625 33.59375 75.40625 
C 18.703125 75.40625 5 63.59375 5 36 
C 5 10 17.59375 -1.40625 31.59375 -1.40625 
z
M 18.703125 28.40625 
C 22.40625 34 26.90625 36.203125 30.796875 36.203125 
C 37.203125 36.203125 41.40625 32.203125 41.40625 23.40625 
C 41.40625 14.40625 36.90625 9.703125 31.296875 9.703125 
C 25.09375 9.703125 20.09375 14.90625 18.703125 28.40625 
z
" id="SourceHanSansSC-Bold-54"/>
     <path d="M 33.703125 0 
L 47.40625 0 
L 47.40625 19.203125 
L 56.203125 19.203125 
L 56.203125 30.40625 
L 47.40625 30.40625 
L 47.40625 74.09375 
L 29.703125 74.09375 
L 2.09375 29.203125 
L 2.09375 19.203125 
L 33.703125 19.203125 
z
M 33.703125 30.40625 
L 16.40625 30.40625 
L 27.90625 48.796875 
C 30 52.796875 32 56.90625 33.796875 60.90625 
L 34.296875 60.90625 
C 34 56.5 33.703125 49.796875 33.703125 45.5 
z
" id="SourceHanSansSC-Bold-52"/>
    </defs>
    <g style="fill:#d3d3d3;" transform="translate(167.881332 55.8)scale(0.1 -0.1)">
     <use xlink:href="#SourceHanSansSC-Bold-54"/>
     <use x="58.999985" xlink:href="#SourceHanSansSC-Bold-52"/>
     <use x="117.999969" xlink:href="#SourceHanSansSC-Bold-52"/>
    </g>
   </g>
   <g id="text_19">
    <!-- 532 -->
    <defs>
     <path d="M 27.703125 -1.40625 
C 41.203125 -1.40625 53.5 8.09375 53.5 24.59375 
C 53.5 40.703125 43.203125 48 30.703125 48 
C 27.296875 48 24.703125 47.40625 21.796875 46 
L 23.203125 61.703125 
L 50.09375 61.703125 
L 50.09375 74.09375 
L 10.5 74.09375 
L 8.5 38.09375 
L 15.203125 33.796875 
C 19.59375 36.59375 22 37.59375 26.296875 37.59375 
C 33.703125 37.59375 38.796875 32.796875 38.796875 24.203125 
C 38.796875 15.5 33.40625 10.59375 25.703125 10.59375 
C 18.90625 10.59375 13.59375 14 9.40625 18.09375 
L 2.59375 8.703125 
C 8.203125 3.203125 15.90625 -1.40625 27.703125 -1.40625 
z
" id="SourceHanSansSC-Bold-53"/>
     <path d="M 27.296875 -1.40625 
C 41.5 -1.40625 53.40625 6.40625 53.40625 20 
C 53.40625 29.796875 47 36 38.703125 38.296875 
L 38.703125 38.796875 
C 46.5 41.90625 51 47.703125 51 55.703125 
C 51 68.40625 41.296875 75.40625 27 75.40625 
C 18.296875 75.40625 11.203125 71.90625 4.796875 66.40625 
L 12.40625 57.296875 
C 16.703125 61.40625 21 63.796875 26.296875 63.796875 
C 32.59375 63.796875 36.203125 60.40625 36.203125 54.59375 
C 36.203125 47.90625 31.796875 43.296875 18.296875 43.296875 
L 18.296875 32.703125 
C 34.296875 32.703125 38.59375 28.203125 38.59375 20.90625 
C 38.59375 14.296875 33.5 10.59375 26 10.59375 
C 19.203125 10.59375 13.90625 13.90625 9.5 18.203125 
L 2.59375 8.90625 
C 7.796875 3 15.703125 -1.40625 27.296875 -1.40625 
z
" id="SourceHanSansSC-Bold-51"/>
     <path d="M 4.296875 0 
L 53.90625 0 
L 53.90625 12.40625 
L 37.90625 12.40625 
C 34.40625 12.40625 29.5 12 25.703125 11.5 
C 39.203125 24.796875 50.40625 39.203125 50.40625 52.59375 
C 50.40625 66.40625 41.09375 75.40625 27.09375 75.40625 
C 17 75.40625 10.40625 71.5 3.5 64.09375 
L 11.703125 56.203125 
C 15.40625 60.296875 19.796875 63.796875 25.203125 63.796875 
C 32.296875 63.796875 36.296875 59.203125 36.296875 51.90625 
C 36.296875 40.40625 24.5 26.5 4.296875 8.5 
z
" id="SourceHanSansSC-Bold-50"/>
    </defs>
    <g style="fill:#d3d3d3;" transform="translate(150.828441 167.154286)scale(0.1 -0.1)">
     <use xlink:href="#SourceHanSansSC-Bold-53"/>
     <use x="58.999985" xlink:href="#SourceHanSansSC-Bold-51"/>
     <use x="117.999969" xlink:href="#SourceHanSansSC-Bold-50"/>
    </g>
   </g>
   <g id="text_20">
    <!-- @一棵平衡树 -->
    <defs>
     <path d="M 47.796875 -19 
C 55.796875 -19 63 -17.296875 69.796875 -13.5 
L 66.5 -5.40625 
C 61.703125 -7.90625 55.09375 -9.90625 48.90625 -9.90625 
C 30.796875 -9.90625 15.59375 1.296875 15.59375 23.59375 
C 15.59375 49.40625 34.90625 66.203125 54.5 66.203125 
C 76.296875 66.203125 85.703125 52 85.703125 35.09375 
C 85.703125 22.09375 78.5 13.90625 71.59375 13.90625 
C 66.203125 13.90625 64.40625 17.296875 66.203125 24.59375 
L 71.09375 49 
L 62.09375 49 
L 60.5 44.296875 
L 60.296875 44.296875 
C 58.296875 48.203125 55.296875 49.90625 51.5 49.90625 
C 38.40625 49.90625 28.90625 35.90625 28.90625 22.5 
C 28.90625 12.09375 34.90625 5.703125 43.40625 5.703125 
C 48.203125 5.703125 53.90625 8.90625 57.203125 13.296875 
L 57.5 13.296875 
C 58.5 7.703125 63.703125 4.703125 70.09375 4.703125 
C 81.59375 4.703125 95 15.09375 95 35.59375 
C 95 58.90625 79.796875 75.203125 55.703125 75.203125 
C 28.59375 75.203125 5.5 54.59375 5.5 23.203125 
C 5.5 -5.09375 25.203125 -19 47.796875 -19 
z
M 46.59375 15 
C 42.59375 15 40 17.703125 40 23.296875 
C 40 30.59375 44.59375 40.296875 51.90625 40.296875 
C 54.5 40.296875 56.296875 39.203125 57.796875 36.59375 
L 54.90625 20.59375 
C 51.703125 16.59375 49.203125 15 46.59375 15 
z
" id="SourceHanSansSC-Bold-64"/>
     <path d="M 3.796875 45.5 
L 3.796875 32.40625 
L 96.40625 32.40625 
L 96.40625 45.5 
z
" id="SourceHanSansSC-Bold-19968"/>
     <path d="M 17 85 
L 17 66.296875 
L 4 66.296875 
L 4 55.203125 
L 16.296875 55.203125 
C 13.40625 43.09375 8 29 1.796875 21.203125 
C 3.796875 18 6.5 12.5 7.59375 9.09375 
C 11.09375 14.296875 14.296875 21.796875 17 30.09375 
L 17 -8.90625 
L 28.203125 -8.90625 
L 28.203125 36.5 
C 30.09375 32.5 31.796875 28.40625 32.796875 25.59375 
L 37.59375 31.203125 
L 37.59375 23 
L 55.59375 23 
C 50.09375 15 42 7.5 33.796875 3.40625 
C 36.296875 1.296875 39.796875 -2.90625 41.59375 -5.59375 
C 48.59375 -1.09375 55.40625 5.796875 60.796875 13.703125 
L 60.796875 -8.90625 
L 72.59375 -8.90625 
L 72.59375 15.09375 
C 77.703125 7.203125 84.09375 -0.09375 90.203125 -4.796875 
C 92.09375 -1.796875 95.90625 2.296875 98.40625 4.40625 
C 91.296875 8.59375 83.796875 15.703125 78.40625 23 
L 96.5 23 
L 96.5 34 
L 72.59375 34 
L 72.59375 40 
L 92 40 
L 92 80.90625 
L 41.296875 80.90625 
L 41.296875 40 
L 60.796875 40 
L 60.796875 34 
L 39.59375 34 
C 37.796875 37.203125 30.90625 48 28.203125 51.703125 
L 28.203125 55.203125 
L 37.40625 55.203125 
L 37.40625 66.296875 
L 28.203125 66.296875 
L 28.203125 85 
z
M 52.09375 55.90625 
L 61.203125 55.90625 
L 61.203125 49.40625 
L 52.09375 49.40625 
z
M 72.09375 55.90625 
L 80.703125 55.90625 
L 80.703125 49.40625 
L 72.09375 49.40625 
z
M 52.09375 71.5 
L 61.203125 71.5 
L 61.203125 65.09375 
L 52.09375 65.09375 
z
M 72.09375 71.5 
L 80.703125 71.5 
L 80.703125 65.09375 
L 72.09375 65.09375 
z
" id="SourceHanSansSC-Bold-26869"/>
     <path d="M 15.90625 60.40625 
C 19.203125 53.703125 22.296875 44.90625 23.296875 39.5 
L 35 43.203125 
C 33.796875 48.796875 30.296875 57.203125 26.90625 63.703125 
z
M 72.90625 64 
C 71 57.40625 67.40625 48.59375 64.203125 42.796875 
L 74.703125 39.703125 
C 78.09375 44.90625 82.203125 53 85.796875 60.703125 
z
M 4.59375 36.40625 
L 4.59375 24.296875 
L 43.703125 24.296875 
L 43.703125 -8.90625 
L 56.203125 -8.90625 
L 56.203125 24.296875 
L 95.703125 24.296875 
L 95.703125 36.40625 
L 56.203125 36.40625 
L 56.203125 66.90625 
L 89.90625 66.90625 
L 89.90625 78.796875 
L 9.90625 78.796875 
L 9.90625 66.90625 
L 43.703125 66.90625 
L 43.703125 36.40625 
z
" id="SourceHanSansSC-Bold-24179"/>
     <path d="M 18.5 85 
C 15.203125 78.703125 8.5 70.703125 2.40625 65.703125 
C 4.203125 63.5 7 59 8.40625 56.5 
C 15.796875 62.703125 23.90625 72.203125 29.296875 81 
z
M 73.5 78.703125 
L 73.5 68 
L 94.59375 68 
L 94.59375 78.703125 
z
M 45.203125 25.703125 
L 44.90625 21.796875 
L 28.796875 21.796875 
L 28.796875 12.296875 
L 42.796875 12.296875 
C 40.59375 6.59375 36.203125 2.40625 27.40625 -0.40625 
C 29.5 -2.296875 32.203125 -6 33.203125 -8.5 
C 42.5 -5.203125 47.796875 -0.59375 51 5.59375 
C 55.5 1.90625 60 -2.40625 62.296875 -5.5 
L 69.5 1.703125 
C 67 4.796875 62.40625 8.90625 57.90625 12.296875 
L 71.203125 12.296875 
L 71.203125 21.796875 
L 55.203125 21.796875 
L 55.5 25.703125 
z
M 43.90625 68.09375 
L 52.90625 68.09375 
C 52 65.796875 51 63.5 50.09375 61.59375 
L 40.40625 61.59375 
C 41.703125 63.703125 42.90625 65.90625 43.90625 68.09375 
z
M 20.09375 63.90625 
C 15.703125 54 8.5 43.796875 1.59375 37.09375 
C 3.59375 34.59375 6.90625 28.796875 8 26.203125 
C 9.703125 28 11.40625 29.90625 13.09375 32 
L 13.09375 -9 
L 23.90625 -9 
L 23.90625 47.796875 
C 25.296875 50.203125 26.703125 52.703125 28 55.203125 
C 29.203125 54.296875 30.40625 53.203125 31.40625 52.203125 
L 31.40625 27.09375 
L 69.5 27.09375 
L 69.5 61.59375 
L 60.59375 61.59375 
C 62.703125 65.40625 64.796875 69.5 66.296875 73.09375 
L 59.296875 77.59375 
L 57.703125 77.09375 
L 47.703125 77.09375 
L 49.59375 82.703125 
L 38.90625 84.40625 
C 36.90625 77.09375 33.203125 68.5 27.5 61.296875 
z
M 40 40.59375 
L 46.203125 40.59375 
L 46.203125 35.09375 
L 40 35.09375 
z
M 54.59375 40.59375 
L 60.40625 40.59375 
L 60.40625 35.09375 
L 54.59375 35.09375 
z
M 40 53.5 
L 46.203125 53.5 
L 46.203125 48.203125 
L 40 48.203125 
z
M 54.59375 53.5 
L 60.40625 53.5 
L 60.40625 48.203125 
L 54.59375 48.203125 
z
M 71.59375 54 
L 71.59375 43.09375 
L 79.5 43.09375 
L 79.5 3.5 
C 79.5 2.40625 79.203125 2.09375 78.09375 2.09375 
C 77 2.09375 73.796875 2.09375 70.59375 2.203125 
C 72 -1 73.203125 -5.5 73.40625 -8.59375 
C 79.09375 -8.59375 83.203125 -8.40625 86.296875 -6.59375 
C 89.40625 -4.796875 90.09375 -1.796875 90.09375 3.296875 
L 90.09375 43.09375 
L 96.796875 43.09375 
L 96.796875 54 
z
" id="SourceHanSansSC-Bold-34913"/>
     <path d="M 31.703125 50.59375 
C 35.40625 44.796875 39.40625 38.09375 43.296875 31.5 
C 39.59375 19.90625 34.703125 10.203125 28.796875 4.09375 
C 31.40625 2.203125 34.90625 -1.59375 36.703125 -4.203125 
C 42 1.90625 46.5 9.796875 50.09375 19 
C 52.59375 14.296875 54.703125 9.796875 56.203125 6.09375 
L 64.703125 13.703125 
C 62.5 18.90625 58.796875 25.59375 54.59375 32.59375 
C 57.703125 44 59.796875 56.90625 61 71.09375 
L 54.296875 73.09375 
L 52.40625 72.796875 
L 34.59375 72.796875 
L 34.59375 62.59375 
L 49.796875 62.59375 
C 49.09375 56.59375 48.09375 50.703125 46.90625 45.09375 
L 39.203125 56.90625 
z
M 61.09375 43.5 
C 64.90625 36.296875 69.09375 26.5 70.796875 20.296875 
L 79.203125 23.90625 
L 79.203125 4.796875 
C 79.203125 3.296875 78.703125 2.90625 77.203125 2.90625 
C 75.703125 2.796875 71.09375 2.796875 66.296875 3 
C 67.90625 -0.296875 69.296875 -5.296875 69.703125 -8.40625 
C 77.09375 -8.40625 82.203125 -8 85.59375 -6.09375 
C 88.90625 -4.203125 90 -1.09375 90 4.796875 
L 90 53.5 
L 96.703125 53.5 
L 96.703125 64.203125 
L 90 64.203125 
L 90 84.5 
L 79.203125 84.5 
L 79.203125 64.203125 
L 61.796875 64.203125 
L 61.796875 53.5 
L 79.203125 53.5 
L 79.203125 26.296875 
C 77.09375 32.296875 73.40625 40.5 69.703125 46.90625 
z
M 13.59375 85 
L 13.59375 64.796875 
L 4.09375 64.796875 
L 4.09375 53.90625 
L 13.59375 53.90625 
L 13.59375 53.5 
C 11.40625 41.59375 6.796875 27.296875 1.796875 18.796875 
C 3.5 16 6.09375 11.59375 7.203125 8.40625 
C 9.5 12.296875 11.703125 17.5 13.59375 23.203125 
L 13.59375 -8.90625 
L 24 -8.90625 
L 24 35.59375 
C 25.90625 31 27.703125 26.203125 28.703125 23 
L 34.703125 32.796875 
C 33.296875 35.796875 25.90625 49.296875 24 52.5 
L 24 53.90625 
L 31.90625 53.90625 
L 31.90625 64.796875 
L 24 64.796875 
L 24 85 
z
" id="SourceHanSansSC-Bold-26641"/>
    </defs>
    <g style="fill:#d3d3d3;" transform="translate(69.172504 -2190402.303099)scale(0.1 -0.1)">
     <use xlink:href="#SourceHanSansSC-Bold-64"/>
     <use x="100.699982" xlink:href="#SourceHanSansSC-Bold-19968"/>
     <use x="200.699966" xlink:href="#SourceHanSansSC-Bold-26869"/>
     <use x="300.699951" xlink:href="#SourceHanSansSC-Bold-24179"/>
     <use x="400.699936" xlink:href="#SourceHanSansSC-Bold-34913"/>
     <use x="500.699921" xlink:href="#SourceHanSansSC-Bold-26641"/>
    </g>
   </g>
   <g id="text_21">
    <!-- 抽满命UP角色和抽满精武器抽数分布对比 -->
    <defs>
     <path d="M 15.703125 85 
L 15.703125 66.09375 
L 3.59375 66.09375 
L 3.59375 55 
L 15.703125 55 
L 15.703125 36.90625 
C 10.59375 35.59375 5.90625 34.59375 2 33.796875 
L 5 22.203125 
L 15.703125 25.09375 
L 15.703125 3.59375 
C 15.703125 2.203125 15.09375 1.703125 13.796875 1.703125 
C 12.5 1.703125 8.40625 1.703125 4.5 1.90625 
C 5.90625 -1.203125 7.40625 -5.90625 7.796875 -9 
C 14.796875 -9 19.5 -8.59375 22.90625 -6.796875 
C 26.203125 -5.09375 27.203125 -2.09375 27.203125 3.59375 
L 27.203125 28.203125 
L 38 31.296875 
L 36.59375 42.09375 
L 27.203125 39.703125 
L 27.203125 55 
L 36.796875 55 
L 36.796875 66.09375 
L 27.203125 66.09375 
L 27.203125 85 
z
M 50.59375 25.5 
L 60.796875 25.5 
L 60.796875 10 
L 50.59375 10 
z
M 50.59375 36.703125 
L 50.59375 51.203125 
L 60.796875 51.203125 
L 60.796875 36.703125 
z
M 83 25.5 
L 83 10 
L 72.203125 10 
L 72.203125 25.5 
z
M 83 36.703125 
L 72.203125 36.703125 
L 72.203125 51.203125 
L 83 51.203125 
z
M 60.796875 84.796875 
L 60.796875 62.59375 
L 39.203125 62.59375 
L 39.203125 -8.796875 
L 50.59375 -8.796875 
L 50.59375 -1.5 
L 83 -1.5 
L 83 -8.09375 
L 94.90625 -8.09375 
L 94.90625 62.59375 
L 72.203125 62.59375 
L 72.203125 84.796875 
z
" id="SourceHanSansSC-Bold-25277"/>
     <path d="M 2.703125 47.40625 
C 8 44.296875 15.09375 39.5 18.296875 36.203125 
L 25.796875 45.296875 
C 22.203125 48.5 15 52.90625 9.796875 55.703125 
z
M 4.796875 0.703125 
L 15.40625 -6.90625 
C 20.59375 2.703125 26 13.90625 30.5 24.40625 
L 21.203125 31.90625 
C 16 20.40625 9.5 8.203125 4.796875 0.703125 
z
M 83.296875 32.59375 
L 83.296875 16.203125 
C 81.40625 19.703125 78.5 24 75.703125 27.59375 
L 76.296875 32.59375 
z
M 29 59.09375 
L 29 49.203125 
L 50 49.203125 
L 50 43 
L 30.796875 43 
L 30.796875 -8.40625 
L 42.296875 -8.40625 
L 42.296875 10.09375 
C 44.59375 8.5 47.90625 5.59375 49.203125 4.09375 
C 52.296875 7.90625 54.5 12.203125 56.09375 17.09375 
C 57.5 15.59375 58.703125 14.09375 59.40625 12.90625 
L 64.203125 18.203125 
C 62.90625 14.296875 61 10.796875 58.40625 7.796875 
C 60.703125 6.59375 65 3.703125 66.59375 2.203125 
C 69.40625 6 71.5 10.296875 73 15.09375 
C 74.703125 12.203125 76.203125 9.40625 77 7.203125 
L 83.296875 12.40625 
L 83.296875 0.59375 
C 83.296875 -0.5 83 -0.796875 81.796875 -0.796875 
C 80.703125 -0.90625 77.296875 -0.90625 74.09375 -0.703125 
C 75.203125 -2.90625 76.5 -6 77 -8.40625 
C 83 -8.40625 87.296875 -8.40625 90.296875 -7.203125 
C 93.296875 -5.796875 94.296875 -3.90625 94.296875 0.59375 
L 94.296875 43 
L 77 43 
L 77.203125 49.203125 
L 96.296875 49.203125 
L 96.296875 59.09375 
z
M 42.296875 11.5 
L 42.296875 32.59375 
L 49.5 32.59375 
C 48.703125 24 46.796875 16.90625 42.296875 11.5 
z
M 58.796875 32.59375 
L 67.203125 32.59375 
C 66.796875 28.203125 66.09375 24.203125 65 20.5 
C 63.40625 22.59375 60.703125 25 58.203125 27.09375 
z
M 59.296875 43 
L 59.296875 49.203125 
L 67.90625 49.203125 
L 67.796875 43 
z
M 7.703125 74.703125 
C 13 71.296875 19.796875 66.203125 23 62.796875 
L 30.09375 70.90625 
L 30.09375 67.59375 
L 44.5 67.59375 
L 44.5 61.5 
L 55.59375 61.5 
L 55.59375 67.59375 
L 69.59375 67.59375 
L 69.59375 61.5 
L 80.90625 61.5 
L 80.90625 67.59375 
L 94.90625 67.59375 
L 94.90625 77.59375 
L 80.90625 77.59375 
L 80.90625 85 
L 69.59375 85 
L 69.59375 77.59375 
L 55.59375 77.59375 
L 55.59375 85 
L 44.5 85 
L 44.5 77.59375 
L 30.09375 77.59375 
L 30.09375 72.296875 
C 26.5 75.5 20 79.796875 15.203125 82.59375 
z
" id="SourceHanSansSC-Bold-28385"/>
     <path d="M 50.59375 86.59375 
C 41 74.09375 21 62.59375 1.90625 58.203125 
C 4.59375 55.09375 7.40625 50.203125 8.90625 46.703125 
C 15.296875 48.703125 21.796875 51.5 28.09375 54.796875 
L 28.09375 48.203125 
L 71.09375 48.203125 
L 71.09375 54.5 
C 76.90625 51.40625 83 48.90625 89.40625 47.09375 
C 91.296875 50.59375 95 55.796875 98 58.59375 
C 82.203125 61.703125 67.09375 68.90625 58.203125 77.40625 
L 60.09375 79.703125 
z
M 35.59375 59 
C 41 62.296875 46.09375 66 50.5 69.90625 
C 54.40625 65.90625 58.703125 62.203125 63.5 59 
z
M 11.09375 42.40625 
L 11.09375 -1.796875 
L 22.09375 -1.796875 
L 22.09375 6.296875 
L 44.5 6.296875 
L 44.5 42.40625 
z
M 22.09375 32 
L 33.203125 32 
L 33.203125 16.703125 
L 22.09375 16.703125 
z
M 52.203125 42.296875 
L 52.203125 -9.09375 
L 64 -9.09375 
L 64 31.703125 
L 77.796875 31.703125 
L 77.796875 15.09375 
C 77.796875 14 77.40625 13.59375 76.203125 13.59375 
C 75 13.59375 70.796875 13.59375 67 13.703125 
C 68.296875 10.703125 69.796875 6.09375 70.09375 2.90625 
C 76.703125 2.90625 81.5 2.90625 84.90625 4.703125 
C 88.5 6.5 89.40625 9.59375 89.40625 14.90625 
L 89.40625 42.296875 
z
" id="SourceHanSansSC-Bold-21629"/>
     <path d="M 37.59375 -1.40625 
C 55.59375 -1.40625 66.09375 8.796875 66.09375 33.296875 
L 66.09375 74.09375 
L 51.90625 74.09375 
L 51.90625 32 
C 51.90625 16.59375 46.203125 11.40625 37.59375 11.40625 
C 28.90625 11.40625 23.5 16.59375 23.5 32 
L 23.5 74.09375 
L 8.796875 74.09375 
L 8.796875 33.296875 
C 8.796875 8.796875 19.40625 -1.40625 37.59375 -1.40625 
z
" id="SourceHanSansSC-Bold-85"/>
     <path d="M 9.09375 0 
L 23.90625 0 
L 23.90625 26.296875 
L 33.796875 26.296875 
C 49.703125 26.296875 62.40625 33.90625 62.40625 50.796875 
C 62.40625 68.296875 49.796875 74.09375 33.40625 74.09375 
L 9.09375 74.09375 
z
M 23.90625 38 
L 23.90625 62.296875 
L 32.296875 62.296875 
C 42.5 62.296875 47.90625 59.40625 47.90625 50.796875 
C 47.90625 42.296875 43 38 32.796875 38 
z
" id="SourceHanSansSC-Bold-80"/>
     <path d="M 30.296875 51.296875 
L 47.09375 51.296875 
L 47.09375 42.59375 
L 30.296875 42.59375 
z
M 30.296875 62 
L 29.796875 62 
C 31.796875 64.40625 33.796875 66.796875 35.5 69.296875 
L 60 69.296875 
C 58.203125 66.796875 56.09375 64.203125 54 62 
z
M 77 51.296875 
L 77 42.59375 
L 59.296875 42.59375 
L 59.296875 51.296875 
z
M 30.59375 85.40625 
C 25.90625 75.5 17.296875 64.203125 4.5 55.796875 
C 7.296875 54 11.296875 49.703125 13.203125 46.796875 
L 18 50.5 
L 18 35.90625 
C 18 24 17 9.09375 6 -1.203125 
C 8.59375 -2.703125 13.5 -7.40625 15.40625 -9.796875 
C 21.90625 -3.796875 25.703125 4.40625 27.796875 12.796875 
L 47.09375 12.796875 
L 47.09375 -6.59375 
L 59.296875 -6.59375 
L 59.296875 12.796875 
L 77 12.796875 
L 77 4.703125 
C 77 3.203125 76.40625 2.59375 74.796875 2.59375 
C 73.09375 2.59375 67.296875 2.59375 62.296875 2.90625 
C 64 -0.203125 65.90625 -5.5 66.40625 -8.796875 
C 74.40625 -8.796875 80.09375 -8.59375 84.09375 -6.796875 
C 88.09375 -4.796875 89.40625 -1.59375 89.40625 4.5 
L 89.40625 62 
L 68 62 
C 71.703125 66 75.203125 70.296875 77.703125 74.09375 
L 69.5 79.703125 
L 67.59375 79.203125 
L 41.796875 79.203125 
L 43.90625 83 
z
M 30.296875 32.296875 
L 47.09375 32.296875 
L 47.09375 23.296875 
L 29.59375 23.296875 
C 30 26.40625 30.203125 29.40625 30.296875 32.296875 
z
M 77 32.296875 
L 77 23.296875 
L 59.296875 23.296875 
L 59.296875 32.296875 
z
" id="SourceHanSansSC-Bold-35282"/>
     <path d="M 45.203125 46.09375 
L 45.203125 34.09375 
L 26.5 34.09375 
L 26.5 46.09375 
z
M 56.90625 46.09375 
L 75.203125 46.09375 
L 75.203125 34.09375 
L 56.90625 34.09375 
z
M 56.5 66.59375 
C 54 63.296875 50.90625 59.796875 48.09375 57.09375 
L 25.59375 57.09375 
C 28.59375 60.09375 31.40625 63.296875 34.09375 66.59375 
z
M 33.40625 85.703125 
C 26.59375 73.203125 14.5 61.59375 2.59375 54.5 
C 4.703125 51.90625 7.90625 45.796875 9 43.09375 
C 11 44.40625 12.90625 45.90625 14.90625 47.40625 
L 14.90625 10.90625 
C 14.90625 -3.5 20.59375 -7.09375 39.296875 -7.09375 
C 43.59375 -7.09375 69.09375 -7.09375 73.703125 -7.09375 
C 90.59375 -7.09375 94.796875 -2.296875 96.90625 14.296875 
C 93.59375 14.796875 88.59375 16.703125 85.59375 18.5 
C 84.296875 6 82.796875 3.796875 73.09375 3.796875 
C 67.203125 3.796875 44.296875 3.796875 39.09375 3.796875 
C 28.203125 3.796875 26.5 4.796875 26.5 11 
L 26.5 22.703125 
L 75.203125 22.703125 
L 75.203125 19.40625 
L 87 19.40625 
L 87 57.09375 
L 62.5 57.09375 
C 67 61.90625 71.40625 67.203125 74.90625 72.09375 
L 67.09375 77.90625 
L 64.796875 77.203125 
L 41.703125 77.203125 
L 44.203125 81.5 
z
" id="SourceHanSansSC-Bold-33394"/>
     <path d="M 51.59375 75.59375 
L 51.59375 -4.09375 
L 63.296875 -4.09375 
L 63.296875 3.90625 
L 79.40625 3.90625 
L 79.40625 -3.40625 
L 91.796875 -3.40625 
L 91.796875 75.59375 
z
M 63.296875 15.40625 
L 63.296875 64.09375 
L 79.40625 64.09375 
L 79.40625 15.40625 
z
M 41.59375 84.09375 
C 32.40625 80.40625 17.796875 77.296875 4.703125 75.5 
C 6 72.90625 7.5 68.703125 8 66.09375 
C 12.59375 66.59375 17.40625 67.296875 22.296875 68.09375 
L 22.296875 55.203125 
L 4.40625 55.203125 
L 4.40625 44.09375 
L 19.40625 44.09375 
C 15.5 33 9.09375 21.5 2.203125 14.203125 
C 4.203125 11.203125 7.09375 6.40625 8.296875 3 
C 13.59375 8.796875 18.40625 17.40625 22.296875 26.796875 
L 22.296875 -8.796875 
L 34.296875 -8.796875 
L 34.296875 28.296875 
C 37.59375 23.59375 40.90625 18.5 42.796875 15.09375 
L 49.703125 25.09375 
C 47.5 27.796875 38.203125 38.59375 34.296875 42.5 
L 34.296875 44.09375 
L 49 44.09375 
L 49 55.203125 
L 34.296875 55.203125 
L 34.296875 70.5 
C 39.703125 71.703125 44.90625 73.09375 49.40625 74.703125 
z
" id="SourceHanSansSC-Bold-21644"/>
     <path d="M 31.09375 79.296875 
C 30.203125 73.203125 28.5 65 26.796875 58.90625 
L 26.796875 84.5 
L 16.203125 84.5 
L 16.203125 51.59375 
L 3.5 51.59375 
L 3.5 40.40625 
L 14.5 40.40625 
C 11.5 31.296875 6.703125 20.59375 1.796875 14.40625 
C 3.59375 11 6.296875 5.59375 7.40625 1.90625 
C 10.5 6.703125 13.59375 13.296875 16.203125 20.40625 
L 16.203125 -8.59375 
L 26.796875 -8.59375 
L 26.796875 25.5 
C 29.203125 20.90625 31.5 16.09375 32.703125 12.90625 
L 40.296875 22.09375 
C 38.296875 25.09375 29.59375 36.90625 27.09375 39.59375 
L 26.796875 39.40625 
L 26.796875 40.40625 
L 36.40625 40.40625 
L 36.40625 51.59375 
L 26.796875 51.59375 
L 26.796875 56.09375 
L 33.09375 54.203125 
C 35.5 60 38.203125 69.40625 40.59375 77.296875 
z
M 3.40625 76.796875 
C 5.703125 69.59375 7.703125 60.09375 7.90625 54 
L 16.203125 56.09375 
C 15.703125 62.203125 13.796875 71.59375 11.203125 78.703125 
z
M 61.296875 84.796875 
L 61.296875 77.59375 
L 41.796875 77.59375 
L 41.796875 69.09375 
L 61.296875 69.09375 
L 61.296875 65.09375 
L 44.296875 65.09375 
L 44.296875 57.09375 
L 61.296875 57.09375 
L 61.296875 52.703125 
L 39 52.703125 
L 39 44.09375 
L 96.59375 44.09375 
L 96.59375 52.703125 
L 72.59375 52.703125 
L 72.59375 57.09375 
L 91.796875 57.09375 
L 91.796875 65.09375 
L 72.59375 65.09375 
L 72.59375 69.09375 
L 94 69.09375 
L 94 77.59375 
L 72.59375 77.59375 
L 72.59375 84.796875 
z
M 79.5 31.5 
L 79.5 26.703125 
L 55.40625 26.703125 
L 55.40625 31.5 
z
M 44.296875 40 
L 44.296875 -9 
L 55.40625 -9 
L 55.40625 6.203125 
L 79.5 6.203125 
L 79.5 2 
C 79.5 0.90625 79.203125 0.5 77.90625 0.5 
C 76.59375 0.40625 72.40625 0.40625 68.703125 0.59375 
C 70 -2.09375 71.40625 -6.09375 71.796875 -8.90625 
C 78.203125 -9 82.90625 -8.796875 86.40625 -7.296875 
C 89.796875 -5.796875 90.796875 -3.09375 90.796875 1.796875 
L 90.796875 40 
z
M 55.40625 18.796875 
L 79.5 18.796875 
L 79.5 14 
L 55.40625 14 
z
" id="SourceHanSansSC-Bold-31934"/>
     <path d="M 72 77.59375 
C 77.09375 73.40625 82.796875 67.296875 85.296875 63.203125 
L 94.09375 70 
C 91.40625 74.09375 85.40625 79.796875 80.296875 83.703125 
z
M 12.703125 80.40625 
L 12.703125 69.796875 
L 50.703125 69.796875 
L 50.703125 80.40625 
z
M 57.296875 84.5 
C 57.296875 76.796875 57.5 69.203125 57.796875 61.703125 
L 5 61.703125 
L 5 50.703125 
L 58.40625 50.703125 
C 60.796875 17.59375 67.40625 -9.09375 82.59375 -9.09375 
C 91.59375 -9.09375 95.40625 -4.5 97 14.296875 
C 93.90625 15.59375 89.703125 18.296875 87.203125 21 
C 86.703125 8.40625 85.703125 2.796875 83.703125 2.796875 
C 77.5 2.796875 72.40625 23.5 70.40625 50.703125 
L 95 50.703125 
L 95 61.703125 
L 69.703125 61.703125 
C 69.40625 69.09375 69.296875 76.796875 69.5 84.5 
z
M 11.40625 41.40625 
L 11.40625 5.203125 
L 3.09375 4 
L 6.09375 -7.703125 
C 20.5 -5.09375 40.703125 -1.5 59.203125 2.09375 
L 58.296875 13.296875 
L 41.40625 10.296875 
L 41.40625 26.09375 
L 55.90625 26.09375 
L 55.90625 36.59375 
L 41.40625 36.59375 
L 41.40625 47.90625 
L 29.90625 47.90625 
L 29.90625 8.296875 
L 22.40625 7 
L 22.40625 41.40625 
z
" id="SourceHanSansSC-Bold-27494"/>
     <path d="M 22.703125 70.796875 
L 33.796875 70.796875 
L 33.796875 61.796875 
L 22.703125 61.796875 
z
M 64.796875 70.796875 
L 76.90625 70.796875 
L 76.90625 61.796875 
L 64.796875 61.796875 
z
M 60.59375 48.203125 
C 63.796875 46.90625 67.59375 45 70.703125 43.09375 
L 48.40625 43.09375 
C 50 45.59375 51.40625 48.203125 52.703125 50.796875 
L 45.203125 52.203125 
L 45.203125 80.90625 
L 12 80.90625 
L 12 51.703125 
L 40.09375 51.703125 
C 38.703125 48.796875 36.90625 45.90625 34.796875 43.09375 
L 4.5 43.09375 
L 4.5 32.703125 
L 24.296875 32.703125 
C 18.40625 28 11 23.90625 2 20.59375 
C 4.203125 18.5 7.203125 14 8.40625 11.203125 
L 12 12.796875 
L 12 -9 
L 23 -9 
L 23 -6.59375 
L 33.703125 -6.59375 
L 33.703125 -8.40625 
L 45.203125 -8.40625 
L 45.203125 22.703125 
L 29.203125 22.703125 
C 33.40625 25.796875 37.09375 29.203125 40.40625 32.703125 
L 57.09375 32.703125 
C 60.203125 29.09375 63.90625 25.703125 67.90625 22.703125 
L 54.09375 22.703125 
L 54.09375 -9 
L 65.09375 -9 
L 65.09375 -6.59375 
L 76.90625 -6.59375 
L 76.90625 -8.40625 
L 88.5 -8.40625 
L 88.5 11.703125 
L 91.09375 10.796875 
C 92.796875 13.703125 96.09375 18.203125 98.703125 20.40625 
C 88.90625 22.90625 79.40625 27.296875 72.203125 32.703125 
L 95.59375 32.703125 
L 95.59375 43.09375 
L 78.5 43.09375 
L 81.59375 46.203125 
C 79.40625 48 75.90625 50 72.203125 51.703125 
L 88.40625 51.703125 
L 88.40625 80.90625 
L 54 80.90625 
L 54 51.703125 
L 64.203125 51.703125 
z
M 23 3.703125 
L 23 12.40625 
L 33.703125 12.40625 
L 33.703125 3.703125 
z
M 65.09375 3.703125 
L 65.09375 12.40625 
L 76.90625 12.40625 
L 76.90625 3.703125 
z
" id="SourceHanSansSC-Bold-22120"/>
     <path d="M 42.40625 83.796875 
C 40.796875 80 38 74.5 35.796875 71 
L 43.40625 67.59375 
C 46 70.703125 49.203125 75.296875 52.5 79.796875 
z
M 37.40625 23.796875 
C 35.59375 20.296875 33.203125 17.203125 30.5 14.5 
L 22.296875 18.5 
L 25.296875 23.796875 
z
M 8 14.703125 
C 12.59375 12.90625 17.5 10.5 22.296875 8 
C 16.59375 4.5 9.90625 1.90625 2.59375 0.296875 
C 4.59375 -1.796875 6.90625 -6 8 -8.703125 
C 17 -6.203125 25.09375 -2.59375 31.90625 2.5 
C 34.796875 0.703125 37.40625 -1.09375 39.5 -2.703125 
L 46.59375 5.09375 
C 44.59375 6.5 42.09375 8 39.5 9.59375 
C 44.59375 15.40625 48.5 22.59375 51 31.5 
L 44.5 33.90625 
L 42.703125 33.5 
L 30.09375 33.5 
L 31.703125 37.40625 
L 21.09375 39.296875 
C 20.40625 37.40625 19.59375 35.5 18.703125 33.5 
L 6 33.5 
L 6 23.796875 
L 13.703125 23.796875 
C 11.796875 20.40625 9.796875 17.296875 8 14.703125 
z
M 6.703125 79.703125 
C 9.09375 75.796875 11.5 70.59375 12.203125 67.203125 
L 4.296875 67.203125 
L 4.296875 57.796875 
L 19.09375 57.796875 
C 14.5 52.90625 8.09375 48.5 2.203125 46.09375 
C 4.40625 43.90625 7 40 8.40625 37.296875 
C 13.40625 40.09375 18.703125 44.203125 23.296875 48.796875 
L 23.296875 39.90625 
L 34.40625 39.90625 
L 34.40625 50.703125 
C 38.203125 47.703125 42.09375 44.40625 44.296875 42.296875 
L 50.59375 50.59375 
C 48.796875 51.90625 43.296875 55.203125 38.703125 57.796875 
L 53.40625 57.796875 
L 53.40625 67.203125 
L 34.40625 67.203125 
L 34.40625 85 
L 23.296875 85 
L 23.296875 67.203125 
L 13 67.203125 
L 21.296875 70.796875 
C 20.5 74.40625 17.90625 79.5 15.296875 83.296875 
z
M 61.203125 84.703125 
C 59 66.703125 54.5 49.59375 46.5 39.203125 
C 48.90625 37.5 53.40625 33.59375 55.09375 31.59375 
C 57 34.296875 58.796875 37.296875 60.40625 40.59375 
C 62.296875 33 64.59375 25.90625 67.5 19.59375 
C 62.296875 11.203125 55 4.90625 44.90625 0.296875 
C 46.90625 -2 50.09375 -7 51.09375 -9.40625 
C 60.5 -4.59375 67.796875 1.40625 73.40625 8.90625 
C 77.90625 2 83.5 -3.796875 90.40625 -8.09375 
C 92.09375 -5.09375 95.59375 -0.796875 98.203125 1.296875 
C 90.59375 5.5 84.59375 11.796875 79.90625 19.59375 
C 84.703125 29.5 87.703125 41.296875 89.59375 55.40625 
L 95.90625 55.40625 
L 95.90625 66.5 
L 69.09375 66.5 
C 70.296875 71.90625 71.40625 77.40625 72.203125 83.09375 
z
M 78.40625 55.40625 
C 77.40625 46.90625 75.90625 39.296875 73.59375 32.703125 
C 70.90625 39.703125 68.90625 47.296875 67.5 55.40625 
z
" id="SourceHanSansSC-Bold-25968"/>
     <path d="M 68.796875 83.90625 
L 57.59375 79.5 
C 62.90625 68.796875 70.203125 57.5 77.90625 48.203125 
L 24.796875 48.203125 
C 32.296875 57.296875 39 68.40625 43.703125 80 
L 30.703125 83.703125 
C 25.09375 68.59375 14.90625 54.5 3.203125 46.09375 
C 6.09375 44 11.203125 39.09375 13.40625 36.59375 
C 15.5 38.296875 17.5 40.203125 19.5 42.296875 
L 19.5 36.40625 
L 35.59375 36.40625 
C 33.5 21.90625 28.09375 8.703125 5.703125 1.40625 
C 8.5 -1.203125 11.90625 -6.09375 13.296875 -9.203125 
C 39.09375 0.296875 45.703125 17.40625 48.296875 36.40625 
L 69.203125 36.40625 
C 68.40625 16 67.40625 7.296875 65.296875 5.09375 
C 64.203125 4.09375 63.09375 3.796875 61.296875 3.796875 
C 58.796875 3.796875 53.59375 3.796875 48.09375 4.296875 
C 50.203125 0.90625 51.796875 -4.203125 52 -7.796875 
C 57.90625 -8 63.703125 -8 67.203125 -7.5 
C 71 -7.09375 73.796875 -6 76.296875 -2.796875 
C 79.796875 1.40625 81 13.203125 82 43 
L 82 43.296875 
C 83.90625 41.203125 85.796875 39.296875 87.59375 37.5 
C 89.796875 40.703125 94.296875 45.40625 97.296875 47.703125 
C 86.90625 56.296875 74.90625 71.09375 68.796875 83.90625 
z
" id="SourceHanSansSC-Bold-20998"/>
     <path d="M 37.40625 85.203125 
C 36.203125 80.40625 34.703125 75.5 32.90625 70.703125 
L 5.296875 70.703125 
L 5.296875 59.203125 
L 27.796875 59.203125 
C 21.5 47 12.90625 35.796875 1.703125 28.5 
C 3.90625 25.796875 7.09375 21 8.59375 18 
C 13.203125 21.203125 17.5 24.90625 21.296875 29 
L 21.296875 0 
L 33.296875 0 
L 33.296875 32.703125 
L 49.203125 32.703125 
L 49.203125 -8.90625 
L 61.296875 -8.90625 
L 61.296875 32.703125 
L 78 32.703125 
L 78 13.09375 
C 78 11.796875 77.5 11.40625 75.90625 11.40625 
C 74.5 11.40625 69.09375 11.296875 64.5 11.5 
C 66 8.5 67.703125 3.90625 68.203125 0.59375 
C 75.703125 0.59375 81.203125 0.796875 85 2.5 
C 89 4.203125 90.09375 7.296875 90.09375 12.796875 
L 90.09375 44.09375 
L 61.296875 44.09375 
L 61.296875 55.59375 
L 49.203125 55.59375 
L 49.203125 44.09375 
L 33 44.09375 
C 36 48.90625 38.703125 54 41.203125 59.203125 
L 94.90625 59.203125 
L 94.90625 70.703125 
L 45.90625 70.703125 
C 47.40625 74.59375 48.59375 78.5 49.796875 82.40625 
z
" id="SourceHanSansSC-Bold-24067"/>
     <path d="M 47.90625 38.59375 
C 52.40625 31.703125 56.796875 22.59375 58.203125 16.703125 
L 68.59375 21.90625 
C 67 28 62.203125 36.703125 57.5 43.203125 
z
M 6.40625 44.203125 
C 12.203125 39.09375 18.40625 33.09375 24.09375 27 
C 18.703125 15.703125 11.703125 6.703125 3.203125 1 
C 6 -1.203125 9.796875 -5.703125 11.59375 -8.796875 
C 20.203125 -2.203125 27.296875 6.296875 32.796875 16.90625 
C 36.703125 12.09375 39.90625 7.5 42 3.5 
L 51.296875 12.59375 
C 48.40625 17.59375 43.796875 23.5 38.40625 29.40625 
C 42.796875 41.296875 45.703125 55.203125 47.296875 71.203125 
L 39.40625 73.5 
L 37.40625 73 
L 6.5 73 
L 6.5 61.59375 
L 34.203125 61.59375 
C 33 53.59375 31.203125 46.09375 28.90625 39.09375 
C 24.09375 43.703125 19.203125 48.09375 14.59375 51.90625 
z
M 74.09375 85 
L 74.09375 62.703125 
L 48.703125 62.703125 
L 48.703125 51.203125 
L 74.09375 51.203125 
L 74.09375 6 
C 74.09375 4.296875 73.40625 3.796875 71.703125 3.796875 
C 70 3.796875 64.59375 3.703125 59 4 
C 60.59375 0.40625 62.40625 -5.40625 62.703125 -8.90625 
C 71.09375 -8.90625 77.09375 -8.40625 80.90625 -6.296875 
C 84.703125 -4.296875 86 -0.796875 86 6 
L 86 51.203125 
L 96.703125 51.203125 
L 96.703125 62.703125 
L 86 62.703125 
L 86 85 
z
" id="SourceHanSansSC-Bold-23545"/>
     <path d="M 11.203125 -8.90625 
C 14.09375 -6.59375 18.796875 -4.296875 45.59375 5.296875 
C 45.09375 8.203125 44.796875 13.796875 45 17.59375 
L 23.5 10.40625 
L 23.5 43.203125 
L 46.203125 43.203125 
L 46.203125 55.09375 
L 23.5 55.09375 
L 23.5 83.5 
L 10.703125 83.5 
L 10.703125 10.59375 
C 10.703125 5.703125 7.796875 2.703125 5.5 1.09375 
C 7.5 -1 10.296875 -6 11.203125 -8.90625 
z
M 51.296875 84 
L 51.296875 12 
C 51.296875 -2.296875 54.703125 -6.59375 66.40625 -6.59375 
C 68.59375 -6.59375 77.296875 -6.59375 79.59375 -6.59375 
C 91.40625 -6.59375 94.296875 1.296875 95.5 21.90625 
C 92.203125 22.703125 86.90625 25.203125 83.90625 27.40625 
C 83.203125 9.703125 82.5 5.203125 78.40625 5.203125 
C 76.703125 5.203125 69.90625 5.203125 68.203125 5.203125 
C 64.5 5.203125 64 6.09375 64 11.796875 
L 64 34.796875 
C 74.703125 42.09375 86.203125 50.703125 95.796875 59 
L 85.90625 69.90625 
C 80.09375 63.40625 72.09375 55.40625 64 48.796875 
L 64 84 
z
" id="SourceHanSansSC-Bold-27604"/>
    </defs>
    <g transform="translate(83.2875 37.2)scale(0.15 -0.15)">
     <use xlink:href="#SourceHanSansSC-Bold-25277"/>
     <use x="99.999985" xlink:href="#SourceHanSansSC-Bold-28385"/>
     <use x="199.999969" xlink:href="#SourceHanSansSC-Bold-21629"/>
     <use x="299.999954" xlink:href="#SourceHanSansSC-Bold-85"/>
     <use x="374.799942" xlink:href="#SourceHanSansSC-Bold-80"/>
     <use x="441.499939" xlink:href="#SourceHanSansSC-Bold-35282"/>
     <use x="541.499924" xlink:href="#SourceHanSansSC-Bold-33394"/>
     <use x="641.499908" xlink:href="#SourceHanSansSC-Bold-21644"/>
     <use x="741.499893" xlink:href="#SourceHanSansSC-Bold-25277"/>
     <use x="841.499878" xlink:href="#SourceHanSansSC-Bold-28385"/>
     <use x="941.499863" xlink:href="#SourceHanSansSC-Bold-31934"/>
     <use x="1041.499847" xlink:href="#SourceHanSansSC-Bold-27494"/>
     <use x="1141.499832" xlink:href="#SourceHanSansSC-Bold-22120"/>
     <use x="1241.499817" xlink:href="#SourceHanSansSC-Bold-25277"/>
     <use x="1341.499802" xlink:href="#SourceHanSansSC-Bold-25968"/>
     <use x="1441.499786" xlink:href="#SourceHanSansSC-Bold-20998"/>
     <use x="1541.499771" xlink:href="#SourceHanSansSC-Bold-24067"/>
     <use x="1641.499756" xlink:href="#SourceHanSansSC-Bold-23545"/>
     <use x="1741.499741" xlink:href="#SourceHanSansSC-Bold-27604"/>
    </g>
   </g>
   <g id="legend_1">
    <g id="patch_7">
     <path d="M 329.8 81.459375 
L 381.8 81.459375 
Q 383.8 81.459375 383.8 79.459375 
L 383.8 50.2 
Q 383.8 48.2 381.8 48.2 
L 329.8 48.2 
Q 327.8 48.2 327.8 50.2 
L 327.8 79.459375 
Q 327.8 81.459375 329.8 81.459375 
z
" style="fill:#ffffff;opacity:0.8;stroke:#cccccc;stroke-linejoin:miter;"/>
    </g>
    <g id="line2d_22">
     <path d="M 331.8 56.679687 
L 351.8 56.679687 
" style="fill:none;stroke:#fa8072;stroke-linecap:square;stroke-width:1.5;"/>
    </g>
    <g id="line2d_23"/>
    <g id="text_22">
     <!-- 角色 -->
     <g transform="translate(359.8 60.179687)scale(0.1 -0.1)">
      <use xlink:href="#SourceHanSansSC-Bold-35282"/>
      <use x="99.999985" xlink:href="#SourceHanSansSC-Bold-33394"/>
     </g>
    </g>
    <g id="line2d_24">
     <path d="M 331.8 71.809375 
L 351.8 71.809375 
" style="fill:none;stroke:#847db3;stroke-linecap:square;stroke-width:1.5;"/>
    </g>
    <g id="line2d_25"/>
    <g id="text_23">
     <!-- 武器 -->
     <g transform="translate(359.8 75.309375)scale(0.1 -0.1)">
      <use xlink:href="#SourceHanSansSC-Bold-27494"/>
      <use x="99.999985" xlink:href="#SourceHanSansSC-Bold-22120"/>
     </g>
    </g>
   </g>
  </g>
 </g>
 <defs>
  <clipPath id="pe19ec0d2ec">
   <rect height="277.2" width="334.8" x="54" y="43.2"/>
  </clipPath>
 </defs>
</svg>
