<?xml version="1.0" encoding="utf-8" standalone="no"?>
<!DOCTYPE svg PUBLIC "-//W3C//DTD SVG 1.1//EN"
  "http://www.w3.org/Graphics/SVG/1.1/DTD/svg11.dtd">
<!-- Created with matplotlib (https://matplotlib.org/) -->
<svg height="360pt" version="1.1" viewBox="0 0 432 360" width="432pt" xmlns="http://www.w3.org/2000/svg" xmlns:xlink="http://www.w3.org/1999/xlink">
 <defs>
  <style type="text/css">
*{stroke-linecap:butt;stroke-linejoin:round;}
  </style>
 </defs>
 <g id="figure_1">
  <g id="patch_1">
   <path d="M 0 360 
L 432 360 
L 432 0 
L 0 0 
z
" style="fill:#ffffff;"/>
  </g>
  <g id="axes_1">
   <g id="patch_2">
    <path d="M 54 320.4 
L 388.8 320.4 
L 388.8 43.2 
L 54 43.2 
z
" style="fill:#ffffff;"/>
   </g>
   <g id="matplotlib.axis_1">
    <g id="xtick_1">
     <g id="line2d_1">
      <defs>
       <path d="M 0 0 
L 0 3.5 
" id="m41fffbf6bf" style="stroke:#000000;stroke-width:0.8;"/>
      </defs>
      <g>
       <use style="stroke:#000000;stroke-width:0.8;" x="68.608235" xlink:href="#m41fffbf6bf" y="320.4"/>
      </g>
     </g>
     <g id="text_1">
      <!-- 0 -->
      <defs>
       <path d="M 31.78125 66.40625 
Q 24.171875 66.40625 20.328125 58.90625 
Q 16.5 51.421875 16.5 36.375 
Q 16.5 21.390625 20.328125 13.890625 
Q 24.171875 6.390625 31.78125 6.390625 
Q 39.453125 6.390625 43.28125 13.890625 
Q 47.125 21.390625 47.125 36.375 
Q 47.125 51.421875 43.28125 58.90625 
Q 39.453125 66.40625 31.78125 66.40625 
z
M 31.78125 74.21875 
Q 44.046875 74.21875 50.515625 64.515625 
Q 56.984375 54.828125 56.984375 36.375 
Q 56.984375 17.96875 50.515625 8.265625 
Q 44.046875 -1.421875 31.78125 -1.421875 
Q 19.53125 -1.421875 13.0625 8.265625 
Q 6.59375 17.96875 6.59375 36.375 
Q 6.59375 54.828125 13.0625 64.515625 
Q 19.53125 74.21875 31.78125 74.21875 
z
" id="DejaVuSans-48"/>
      </defs>
      <g transform="translate(65.426985 334.998438)scale(0.1 -0.1)">
       <use xlink:href="#DejaVuSans-48"/>
      </g>
     </g>
    </g>
    <g id="xtick_2">
     <g id="line2d_2">
      <g>
       <use style="stroke:#000000;stroke-width:0.8;" x="129.602951" xlink:href="#m41fffbf6bf" y="320.4"/>
      </g>
     </g>
     <g id="text_2">
      <!-- 100 -->
      <defs>
       <path d="M 12.40625 8.296875 
L 28.515625 8.296875 
L 28.515625 63.921875 
L 10.984375 60.40625 
L 10.984375 69.390625 
L 28.421875 72.90625 
L 38.28125 72.90625 
L 38.28125 8.296875 
L 54.390625 8.296875 
L 54.390625 0 
L 12.40625 0 
z
" id="DejaVuSans-49"/>
      </defs>
      <g transform="translate(120.059201 334.998438)scale(0.1 -0.1)">
       <use xlink:href="#DejaVuSans-49"/>
       <use x="63.623047" xlink:href="#DejaVuSans-48"/>
       <use x="127.246094" xlink:href="#DejaVuSans-48"/>
      </g>
     </g>
    </g>
    <g id="xtick_3">
     <g id="line2d_3">
      <g>
       <use style="stroke:#000000;stroke-width:0.8;" x="190.597668" xlink:href="#m41fffbf6bf" y="320.4"/>
      </g>
     </g>
     <g id="text_3">
      <!-- 200 -->
      <defs>
       <path d="M 19.1875 8.296875 
L 53.609375 8.296875 
L 53.609375 0 
L 7.328125 0 
L 7.328125 8.296875 
Q 12.9375 14.109375 22.625 23.890625 
Q 32.328125 33.6875 34.8125 36.53125 
Q 39.546875 41.84375 41.421875 45.53125 
Q 43.3125 49.21875 43.3125 52.78125 
Q 43.3125 58.59375 39.234375 62.25 
Q 35.15625 65.921875 28.609375 65.921875 
Q 23.96875 65.921875 18.8125 64.3125 
Q 13.671875 62.703125 7.8125 59.421875 
L 7.8125 69.390625 
Q 13.765625 71.78125 18.9375 73 
Q 24.125 74.21875 28.421875 74.21875 
Q 39.75 74.21875 46.484375 68.546875 
Q 53.21875 62.890625 53.21875 53.421875 
Q 53.21875 48.921875 51.53125 44.890625 
Q 49.859375 40.875 45.40625 35.40625 
Q 44.1875 33.984375 37.640625 27.21875 
Q 31.109375 20.453125 19.1875 8.296875 
z
" id="DejaVuSans-50"/>
      </defs>
      <g transform="translate(181.053918 334.998438)scale(0.1 -0.1)">
       <use xlink:href="#DejaVuSans-50"/>
       <use x="63.623047" xlink:href="#DejaVuSans-48"/>
       <use x="127.246094" xlink:href="#DejaVuSans-48"/>
      </g>
     </g>
    </g>
    <g id="xtick_4">
     <g id="line2d_4">
      <g>
       <use style="stroke:#000000;stroke-width:0.8;" x="251.592385" xlink:href="#m41fffbf6bf" y="320.4"/>
      </g>
     </g>
     <g id="text_4">
      <!-- 300 -->
      <defs>
       <path d="M 40.578125 39.3125 
Q 47.65625 37.796875 51.625 33 
Q 55.609375 28.21875 55.609375 21.1875 
Q 55.609375 10.40625 48.1875 4.484375 
Q 40.765625 -1.421875 27.09375 -1.421875 
Q 22.515625 -1.421875 17.65625 -0.515625 
Q 12.796875 0.390625 7.625 2.203125 
L 7.625 11.71875 
Q 11.71875 9.328125 16.59375 8.109375 
Q 21.484375 6.890625 26.8125 6.890625 
Q 36.078125 6.890625 40.9375 10.546875 
Q 45.796875 14.203125 45.796875 21.1875 
Q 45.796875 27.640625 41.28125 31.265625 
Q 36.765625 34.90625 28.71875 34.90625 
L 20.21875 34.90625 
L 20.21875 43.015625 
L 29.109375 43.015625 
Q 36.375 43.015625 40.234375 45.921875 
Q 44.09375 48.828125 44.09375 54.296875 
Q 44.09375 59.90625 40.109375 62.90625 
Q 36.140625 65.921875 28.71875 65.921875 
Q 24.65625 65.921875 20.015625 65.03125 
Q 15.375 64.15625 9.8125 62.3125 
L 9.8125 71.09375 
Q 15.4375 72.65625 20.34375 73.4375 
Q 25.25 74.21875 29.59375 74.21875 
Q 40.828125 74.21875 47.359375 69.109375 
Q 53.90625 64.015625 53.90625 55.328125 
Q 53.90625 49.265625 50.4375 45.09375 
Q 46.96875 40.921875 40.578125 39.3125 
z
" id="DejaVuSans-51"/>
      </defs>
      <g transform="translate(242.048635 334.998438)scale(0.1 -0.1)">
       <use xlink:href="#DejaVuSans-51"/>
       <use x="63.623047" xlink:href="#DejaVuSans-48"/>
       <use x="127.246094" xlink:href="#DejaVuSans-48"/>
      </g>
     </g>
    </g>
    <g id="xtick_5">
     <g id="line2d_5">
      <g>
       <use style="stroke:#000000;stroke-width:0.8;" x="312.587101" xlink:href="#m41fffbf6bf" y="320.4"/>
      </g>
     </g>
     <g id="text_5">
      <!-- 400 -->
      <defs>
       <path d="M 37.796875 64.3125 
L 12.890625 25.390625 
L 37.796875 25.390625 
z
M 35.203125 72.90625 
L 47.609375 72.90625 
L 47.609375 25.390625 
L 58.015625 25.390625 
L 58.015625 17.1875 
L 47.609375 17.1875 
L 47.609375 0 
L 37.796875 0 
L 37.796875 17.1875 
L 4.890625 17.1875 
L 4.890625 26.703125 
z
" id="DejaVuSans-52"/>
      </defs>
      <g transform="translate(303.043351 334.998438)scale(0.1 -0.1)">
       <use xlink:href="#DejaVuSans-52"/>
       <use x="63.623047" xlink:href="#DejaVuSans-48"/>
       <use x="127.246094" xlink:href="#DejaVuSans-48"/>
      </g>
     </g>
    </g>
    <g id="xtick_6">
     <g id="line2d_6">
      <g>
       <use style="stroke:#000000;stroke-width:0.8;" x="373.581818" xlink:href="#m41fffbf6bf" y="320.4"/>
      </g>
     </g>
     <g id="text_6">
      <!-- 500 -->
      <defs>
       <path d="M 10.796875 72.90625 
L 49.515625 72.90625 
L 49.515625 64.59375 
L 19.828125 64.59375 
L 19.828125 46.734375 
Q 21.96875 47.46875 24.109375 47.828125 
Q 26.265625 48.1875 28.421875 48.1875 
Q 40.625 48.1875 47.75 41.5 
Q 54.890625 34.8125 54.890625 23.390625 
Q 54.890625 11.625 47.5625 5.09375 
Q 40.234375 -1.421875 26.90625 -1.421875 
Q 22.3125 -1.421875 17.546875 -0.640625 
Q 12.796875 0.140625 7.71875 1.703125 
L 7.71875 11.625 
Q 12.109375 9.234375 16.796875 8.0625 
Q 21.484375 6.890625 26.703125 6.890625 
Q 35.15625 6.890625 40.078125 11.328125 
Q 45.015625 15.765625 45.015625 23.390625 
Q 45.015625 31 40.078125 35.4375 
Q 35.15625 39.890625 26.703125 39.890625 
Q 22.75 39.890625 18.8125 39.015625 
Q 14.890625 38.140625 10.796875 36.28125 
z
" id="DejaVuSans-53"/>
      </defs>
      <g transform="translate(364.038068 334.998438)scale(0.1 -0.1)">
       <use xlink:href="#DejaVuSans-53"/>
       <use x="63.623047" xlink:href="#DejaVuSans-48"/>
       <use x="127.246094" xlink:href="#DejaVuSans-48"/>
      </g>
     </g>
    </g>
   </g>
   <g id="matplotlib.axis_2">
    <g id="ytick_1">
     <g id="line2d_7">
      <defs>
       <path d="M 0 0 
L -3.5 0 
" id="m452d6ad5d0" style="stroke:#000000;stroke-width:0.8;"/>
      </defs>
      <g>
       <use style="stroke:#000000;stroke-width:0.8;" x="54" xlink:href="#m452d6ad5d0" y="307.8"/>
      </g>
     </g>
     <g id="text_7">
      <!-- 0.00 -->
      <defs>
       <path d="M 10.6875 12.40625 
L 21 12.40625 
L 21 0 
L 10.6875 0 
z
" id="DejaVuSans-46"/>
      </defs>
      <g transform="translate(24.734375 311.599219)scale(0.1 -0.1)">
       <use xlink:href="#DejaVuSans-48"/>
       <use x="63.623047" xlink:href="#DejaVuSans-46"/>
       <use x="95.410156" xlink:href="#DejaVuSans-48"/>
       <use x="159.033203" xlink:href="#DejaVuSans-48"/>
      </g>
     </g>
    </g>
    <g id="ytick_2">
     <g id="line2d_8">
      <g>
       <use style="stroke:#000000;stroke-width:0.8;" x="54" xlink:href="#m452d6ad5d0" y="261.787434"/>
      </g>
     </g>
     <g id="text_8">
      <!-- 0.01 -->
      <g transform="translate(24.734375 265.586653)scale(0.1 -0.1)">
       <use xlink:href="#DejaVuSans-48"/>
       <use x="63.623047" xlink:href="#DejaVuSans-46"/>
       <use x="95.410156" xlink:href="#DejaVuSans-48"/>
       <use x="159.033203" xlink:href="#DejaVuSans-49"/>
      </g>
     </g>
    </g>
    <g id="ytick_3">
     <g id="line2d_9">
      <g>
       <use style="stroke:#000000;stroke-width:0.8;" x="54" xlink:href="#m452d6ad5d0" y="215.774868"/>
      </g>
     </g>
     <g id="text_9">
      <!-- 0.02 -->
      <g transform="translate(24.734375 219.574087)scale(0.1 -0.1)">
       <use xlink:href="#DejaVuSans-48"/>
       <use x="63.623047" xlink:href="#DejaVuSans-46"/>
       <use x="95.410156" xlink:href="#DejaVuSans-48"/>
       <use x="159.033203" xlink:href="#DejaVuSans-50"/>
      </g>
     </g>
    </g>
    <g id="ytick_4">
     <g id="line2d_10">
      <g>
       <use style="stroke:#000000;stroke-width:0.8;" x="54" xlink:href="#m452d6ad5d0" y="169.762302"/>
      </g>
     </g>
     <g id="text_10">
      <!-- 0.03 -->
      <g transform="translate(24.734375 173.561521)scale(0.1 -0.1)">
       <use xlink:href="#DejaVuSans-48"/>
       <use x="63.623047" xlink:href="#DejaVuSans-46"/>
       <use x="95.410156" xlink:href="#DejaVuSans-48"/>
       <use x="159.033203" xlink:href="#DejaVuSans-51"/>
      </g>
     </g>
    </g>
    <g id="ytick_5">
     <g id="line2d_11">
      <g>
       <use style="stroke:#000000;stroke-width:0.8;" x="54" xlink:href="#m452d6ad5d0" y="123.749736"/>
      </g>
     </g>
     <g id="text_11">
      <!-- 0.04 -->
      <g transform="translate(24.734375 127.548955)scale(0.1 -0.1)">
       <use xlink:href="#DejaVuSans-48"/>
       <use x="63.623047" xlink:href="#DejaVuSans-46"/>
       <use x="95.410156" xlink:href="#DejaVuSans-48"/>
       <use x="159.033203" xlink:href="#DejaVuSans-52"/>
      </g>
     </g>
    </g>
    <g id="ytick_6">
     <g id="line2d_12">
      <g>
       <use style="stroke:#000000;stroke-width:0.8;" x="54" xlink:href="#m452d6ad5d0" y="77.73717"/>
      </g>
     </g>
     <g id="text_12">
      <!-- 0.05 -->
      <g transform="translate(24.734375 81.536388)scale(0.1 -0.1)">
       <use xlink:href="#DejaVuSans-48"/>
       <use x="63.623047" xlink:href="#DejaVuSans-46"/>
       <use x="95.410156" xlink:href="#DejaVuSans-48"/>
       <use x="159.033203" xlink:href="#DejaVuSans-53"/>
      </g>
     </g>
    </g>
   </g>
   <g id="line2d_13">
    <path clip-path="url(#p546da28209)" d="M 69.218182 293.99623 
L 82.637019 294.10222 
L 98.495646 294.463379 
L 113.134378 294.960429 
L 114.354272 128.292794 
L 114.964219 75.646812 
L 115.574167 55.8 
L 116.184114 68.052138 
L 116.794061 104.076777 
L 118.013955 197.946468 
L 118.623902 235.543344 
L 119.23385 261.201663 
L 119.843797 276.097246 
L 120.453744 283.43647 
L 121.063691 286.499303 
L 121.673638 287.609431 
L 122.283585 288.013456 
L 124.113427 288.558587 
L 132.652687 290.737161 
L 141.191948 292.689296 
L 150.341155 294.554962 
L 158.270468 296.001591 
L 158.880415 292.666761 
L 159.490363 283.400497 
L 160.10031 267.657232 
L 161.930151 207.274563 
L 162.540098 195.84541 
L 163.150046 193.34649 
L 163.759993 199.681662 
L 164.36994 212.952445 
L 166.809729 279.431212 
L 167.419676 290.019074 
L 168.029623 297.37897 
L 168.63957 302.099843 
L 169.249517 304.897759 
L 169.859464 306.429215 
L 170.469412 307.201923 
L 171.079359 307.560197 
L 172.299253 307.770859 
L 175.958936 307.799998 
L 373.581818 307.8 
L 373.581818 307.8 
" style="fill:none;stroke:#fa8072;stroke-linecap:square;stroke-width:1.5;"/>
   </g>
   <g id="line2d_14">
    <path clip-path="url(#p546da28209)" d="M 69.218182 295.721701 
L 106.424959 297.230108 
L 107.644853 152.809362 
L 108.254801 112.100035 
L 108.864748 103.472797 
L 109.474695 123.902013 
L 111.304536 243.706596 
L 111.914484 269.72922 
L 112.524431 285.014096 
L 113.134378 291.266801 
L 113.744325 293.586888 
L 114.354272 294.378218 
L 114.964219 294.644046 
L 116.794061 294.87779 
L 134.482529 296.413662 
L 144.851631 297.226038 
L 145.461578 294.765575 
L 146.071525 288.070166 
L 146.681472 277.010639 
L 147.901366 249.79647 
L 148.511314 239.741465 
L 149.121261 235.324033 
L 149.731208 237.155269 
L 150.341155 244.236693 
L 152.780944 284.496853 
L 153.390891 290.519864 
L 154.000838 294.458738 
L 154.610785 296.804644 
L 155.220732 298.085316 
L 155.83068 298.733919 
L 156.440627 299.047079 
L 157.660521 299.284379 
L 162.540098 299.633032 
L 183.278302 300.907548 
L 183.888249 300.879751 
L 184.498196 300.630615 
L 185.108144 299.929779 
L 185.718091 298.557782 
L 186.328038 296.415433 
L 187.547932 290.466753 
L 188.157879 287.471414 
L 188.767827 285.13242 
L 189.377774 283.847345 
L 189.987721 283.80018 
L 190.597668 284.931093 
L 191.207615 286.978428 
L 193.647404 297.101126 
L 194.257351 298.846371 
L 194.867298 300.131503 
L 195.477245 301.019627 
L 196.087193 301.599784 
L 196.69714 301.96145 
L 197.917034 302.31128 
L 200.356823 302.526622 
L 217.435343 303.345019 
L 223.534815 303.557045 
L 224.754709 303.310694 
L 225.364657 302.990483 
L 225.974604 302.494944 
L 227.194498 301.020292 
L 228.414392 299.352324 
L 229.02434 298.704196 
L 229.634287 298.30741 
L 230.244234 298.214568 
L 230.854181 298.431053 
L 231.464128 298.917534 
L 232.684023 300.397082 
L 234.513864 302.672532 
L 235.733758 303.676776 
L 236.953653 304.242632 
L 238.173547 304.518203 
L 240.613336 304.713931 
L 252.812279 305.105469 
L 263.791328 305.365194 
L 265.62117 305.1483 
L 267.451011 304.564725 
L 269.280853 303.922158 
L 270.500747 303.763526 
L 271.720641 303.92678 
L 273.550483 304.590799 
L 275.380324 305.298083 
L 277.210166 305.745881 
L 279.040007 305.951849 
L 283.309637 306.099113 
L 304.657788 306.434265 
L 307.097577 306.271403 
L 310.75726 305.978898 
L 312.587101 306.077373 
L 319.29652 306.765273 
L 325.395992 306.879275 
L 346.744143 307.03274 
L 352.843615 306.971376 
L 363.822664 307.283649 
L 373.581818 307.347843 
L 373.581818 307.347843 
" style="fill:none;stroke:#847db3;stroke-linecap:square;stroke-width:1.5;"/>
   </g>
   <g id="patch_3">
    <path d="M 54 320.4 
L 54 43.2 
" style="fill:none;stroke:#000000;stroke-linecap:square;stroke-linejoin:miter;stroke-width:0.8;"/>
   </g>
   <g id="patch_4">
    <path d="M 388.8 320.4 
L 388.8 43.2 
" style="fill:none;stroke:#000000;stroke-linecap:square;stroke-linejoin:miter;stroke-width:0.8;"/>
   </g>
   <g id="patch_5">
    <path d="M 54 320.4 
L 388.8 320.4 
" style="fill:none;stroke:#000000;stroke-linecap:square;stroke-linejoin:miter;stroke-width:0.8;"/>
   </g>
   <g id="patch_6">
    <path d="M 54 43.2 
L 388.8 43.2 
" style="fill:none;stroke:#000000;stroke-linecap:square;stroke-linejoin:miter;stroke-width:0.8;"/>
   </g>
   <g id="text_13">
    <!-- @一棵平衡树 -->
    <defs>
     <path d="M 47.796875 -19 
C 55.796875 -19 63 -17.296875 69.796875 -13.5 
L 66.5 -5.40625 
C 61.703125 -7.90625 55.09375 -9.90625 48.90625 -9.90625 
C 30.796875 -9.90625 15.59375 1.296875 15.59375 23.59375 
C 15.59375 49.40625 34.90625 66.203125 54.5 66.203125 
C 76.296875 66.203125 85.703125 52 85.703125 35.09375 
C 85.703125 22.09375 78.5 13.90625 71.59375 13.90625 
C 66.203125 13.90625 64.40625 17.296875 66.203125 24.59375 
L 71.09375 49 
L 62.09375 49 
L 60.5 44.296875 
L 60.296875 44.296875 
C 58.296875 48.203125 55.296875 49.90625 51.5 49.90625 
C 38.40625 49.90625 28.90625 35.90625 28.90625 22.5 
C 28.90625 12.09375 34.90625 5.703125 43.40625 5.703125 
C 48.203125 5.703125 53.90625 8.90625 57.203125 13.296875 
L 57.5 13.296875 
C 58.5 7.703125 63.703125 4.703125 70.09375 4.703125 
C 81.59375 4.703125 95 15.09375 95 35.59375 
C 95 58.90625 79.796875 75.203125 55.703125 75.203125 
C 28.59375 75.203125 5.5 54.59375 5.5 23.203125 
C 5.5 -5.09375 25.203125 -19 47.796875 -19 
z
M 46.59375 15 
C 42.59375 15 40 17.703125 40 23.296875 
C 40 30.59375 44.59375 40.296875 51.90625 40.296875 
C 54.5 40.296875 56.296875 39.203125 57.796875 36.59375 
L 54.90625 20.59375 
C 51.703125 16.59375 49.203125 15 46.59375 15 
z
" id="SourceHanSansSC-Bold-64"/>
     <path d="M 3.796875 45.5 
L 3.796875 32.40625 
L 96.40625 32.40625 
L 96.40625 45.5 
z
" id="SourceHanSansSC-Bold-19968"/>
     <path d="M 17 85 
L 17 66.296875 
L 4 66.296875 
L 4 55.203125 
L 16.296875 55.203125 
C 13.40625 43.09375 8 29 1.796875 21.203125 
C 3.796875 18 6.5 12.5 7.59375 9.09375 
C 11.09375 14.296875 14.296875 21.796875 17 30.09375 
L 17 -8.90625 
L 28.203125 -8.90625 
L 28.203125 36.5 
C 30.09375 32.5 31.796875 28.40625 32.796875 25.59375 
L 37.59375 31.203125 
L 37.59375 23 
L 55.59375 23 
C 50.09375 15 42 7.5 33.796875 3.40625 
C 36.296875 1.296875 39.796875 -2.90625 41.59375 -5.59375 
C 48.59375 -1.09375 55.40625 5.796875 60.796875 13.703125 
L 60.796875 -8.90625 
L 72.59375 -8.90625 
L 72.59375 15.09375 
C 77.703125 7.203125 84.09375 -0.09375 90.203125 -4.796875 
C 92.09375 -1.796875 95.90625 2.296875 98.40625 4.40625 
C 91.296875 8.59375 83.796875 15.703125 78.40625 23 
L 96.5 23 
L 96.5 34 
L 72.59375 34 
L 72.59375 40 
L 92 40 
L 92 80.90625 
L 41.296875 80.90625 
L 41.296875 40 
L 60.796875 40 
L 60.796875 34 
L 39.59375 34 
C 37.796875 37.203125 30.90625 48 28.203125 51.703125 
L 28.203125 55.203125 
L 37.40625 55.203125 
L 37.40625 66.296875 
L 28.203125 66.296875 
L 28.203125 85 
z
M 52.09375 55.90625 
L 61.203125 55.90625 
L 61.203125 49.40625 
L 52.09375 49.40625 
z
M 72.09375 55.90625 
L 80.703125 55.90625 
L 80.703125 49.40625 
L 72.09375 49.40625 
z
M 52.09375 71.5 
L 61.203125 71.5 
L 61.203125 65.09375 
L 52.09375 65.09375 
z
M 72.09375 71.5 
L 80.703125 71.5 
L 80.703125 65.09375 
L 72.09375 65.09375 
z
" id="SourceHanSansSC-Bold-26869"/>
     <path d="M 15.90625 60.40625 
C 19.203125 53.703125 22.296875 44.90625 23.296875 39.5 
L 35 43.203125 
C 33.796875 48.796875 30.296875 57.203125 26.90625 63.703125 
z
M 72.90625 64 
C 71 57.40625 67.40625 48.59375 64.203125 42.796875 
L 74.703125 39.703125 
C 78.09375 44.90625 82.203125 53 85.796875 60.703125 
z
M 4.59375 36.40625 
L 4.59375 24.296875 
L 43.703125 24.296875 
L 43.703125 -8.90625 
L 56.203125 -8.90625 
L 56.203125 24.296875 
L 95.703125 24.296875 
L 95.703125 36.40625 
L 56.203125 36.40625 
L 56.203125 66.90625 
L 89.90625 66.90625 
L 89.90625 78.796875 
L 9.90625 78.796875 
L 9.90625 66.90625 
L 43.703125 66.90625 
L 43.703125 36.40625 
z
" id="SourceHanSansSC-Bold-24179"/>
     <path d="M 18.5 85 
C 15.203125 78.703125 8.5 70.703125 2.40625 65.703125 
C 4.203125 63.5 7 59 8.40625 56.5 
C 15.796875 62.703125 23.90625 72.203125 29.296875 81 
z
M 73.5 78.703125 
L 73.5 68 
L 94.59375 68 
L 94.59375 78.703125 
z
M 45.203125 25.703125 
L 44.90625 21.796875 
L 28.796875 21.796875 
L 28.796875 12.296875 
L 42.796875 12.296875 
C 40.59375 6.59375 36.203125 2.40625 27.40625 -0.40625 
C 29.5 -2.296875 32.203125 -6 33.203125 -8.5 
C 42.5 -5.203125 47.796875 -0.59375 51 5.59375 
C 55.5 1.90625 60 -2.40625 62.296875 -5.5 
L 69.5 1.703125 
C 67 4.796875 62.40625 8.90625 57.90625 12.296875 
L 71.203125 12.296875 
L 71.203125 21.796875 
L 55.203125 21.796875 
L 55.5 25.703125 
z
M 43.90625 68.09375 
L 52.90625 68.09375 
C 52 65.796875 51 63.5 50.09375 61.59375 
L 40.40625 61.59375 
C 41.703125 63.703125 42.90625 65.90625 43.90625 68.09375 
z
M 20.09375 63.90625 
C 15.703125 54 8.5 43.796875 1.59375 37.09375 
C 3.59375 34.59375 6.90625 28.796875 8 26.203125 
C 9.703125 28 11.40625 29.90625 13.09375 32 
L 13.09375 -9 
L 23.90625 -9 
L 23.90625 47.796875 
C 25.296875 50.203125 26.703125 52.703125 28 55.203125 
C 29.203125 54.296875 30.40625 53.203125 31.40625 52.203125 
L 31.40625 27.09375 
L 69.5 27.09375 
L 69.5 61.59375 
L 60.59375 61.59375 
C 62.703125 65.40625 64.796875 69.5 66.296875 73.09375 
L 59.296875 77.59375 
L 57.703125 77.09375 
L 47.703125 77.09375 
L 49.59375 82.703125 
L 38.90625 84.40625 
C 36.90625 77.09375 33.203125 68.5 27.5 61.296875 
z
M 40 40.59375 
L 46.203125 40.59375 
L 46.203125 35.09375 
L 40 35.09375 
z
M 54.59375 40.59375 
L 60.40625 40.59375 
L 60.40625 35.09375 
L 54.59375 35.09375 
z
M 40 53.5 
L 46.203125 53.5 
L 46.203125 48.203125 
L 40 48.203125 
z
M 54.59375 53.5 
L 60.40625 53.5 
L 60.40625 48.203125 
L 54.59375 48.203125 
z
M 71.59375 54 
L 71.59375 43.09375 
L 79.5 43.09375 
L 79.5 3.5 
C 79.5 2.40625 79.203125 2.09375 78.09375 2.09375 
C 77 2.09375 73.796875 2.09375 70.59375 2.203125 
C 72 -1 73.203125 -5.5 73.40625 -8.59375 
C 79.09375 -8.59375 83.203125 -8.40625 86.296875 -6.59375 
C 89.40625 -4.796875 90.09375 -1.796875 90.09375 3.296875 
L 90.09375 43.09375 
L 96.796875 43.09375 
L 96.796875 54 
z
" id="SourceHanSansSC-Bold-34913"/>
     <path d="M 31.703125 50.59375 
C 35.40625 44.796875 39.40625 38.09375 43.296875 31.5 
C 39.59375 19.90625 34.703125 10.203125 28.796875 4.09375 
C 31.40625 2.203125 34.90625 -1.59375 36.703125 -4.203125 
C 42 1.90625 46.5 9.796875 50.09375 19 
C 52.59375 14.296875 54.703125 9.796875 56.203125 6.09375 
L 64.703125 13.703125 
C 62.5 18.90625 58.796875 25.59375 54.59375 32.59375 
C 57.703125 44 59.796875 56.90625 61 71.09375 
L 54.296875 73.09375 
L 52.40625 72.796875 
L 34.59375 72.796875 
L 34.59375 62.59375 
L 49.796875 62.59375 
C 49.09375 56.59375 48.09375 50.703125 46.90625 45.09375 
L 39.203125 56.90625 
z
M 61.09375 43.5 
C 64.90625 36.296875 69.09375 26.5 70.796875 20.296875 
L 79.203125 23.90625 
L 79.203125 4.796875 
C 79.203125 3.296875 78.703125 2.90625 77.203125 2.90625 
C 75.703125 2.796875 71.09375 2.796875 66.296875 3 
C 67.90625 -0.296875 69.296875 -5.296875 69.703125 -8.40625 
C 77.09375 -8.40625 82.203125 -8 85.59375 -6.09375 
C 88.90625 -4.203125 90 -1.09375 90 4.796875 
L 90 53.5 
L 96.703125 53.5 
L 96.703125 64.203125 
L 90 64.203125 
L 90 84.5 
L 79.203125 84.5 
L 79.203125 64.203125 
L 61.796875 64.203125 
L 61.796875 53.5 
L 79.203125 53.5 
L 79.203125 26.296875 
C 77.09375 32.296875 73.40625 40.5 69.703125 46.90625 
z
M 13.59375 85 
L 13.59375 64.796875 
L 4.09375 64.796875 
L 4.09375 53.90625 
L 13.59375 53.90625 
L 13.59375 53.5 
C 11.40625 41.59375 6.796875 27.296875 1.796875 18.796875 
C 3.5 16 6.09375 11.59375 7.203125 8.40625 
C 9.5 12.296875 11.703125 17.5 13.59375 23.203125 
L 13.59375 -8.90625 
L 24 -8.90625 
L 24 35.59375 
C 25.90625 31 27.703125 26.203125 28.703125 23 
L 34.703125 32.796875 
C 33.296875 35.796875 25.90625 49.296875 24 52.5 
L 24 53.90625 
L 31.90625 53.90625 
L 31.90625 64.796875 
L 24 64.796875 
L 24 85 
z
" id="SourceHanSansSC-Bold-26641"/>
    </defs>
    <g style="fill:#d3d3d3;" transform="translate(69.035198 -137729.898166)scale(0.1 -0.1)">
     <use xlink:href="#SourceHanSansSC-Bold-64"/>
     <use x="100.699982" xlink:href="#SourceHanSansSC-Bold-19968"/>
     <use x="200.699966" xlink:href="#SourceHanSansSC-Bold-26869"/>
     <use x="300.699951" xlink:href="#SourceHanSansSC-Bold-24179"/>
     <use x="400.699936" xlink:href="#SourceHanSansSC-Bold-34913"/>
     <use x="500.699921" xlink:href="#SourceHanSansSC-Bold-26641"/>
    </g>
   </g>
   <g id="text_14">
    <!-- 抽0命UP角色和抽1精武器抽数分布对比 -->
    <defs>
     <path d="M 15.703125 85 
L 15.703125 66.09375 
L 3.59375 66.09375 
L 3.59375 55 
L 15.703125 55 
L 15.703125 36.90625 
C 10.59375 35.59375 5.90625 34.59375 2 33.796875 
L 5 22.203125 
L 15.703125 25.09375 
L 15.703125 3.59375 
C 15.703125 2.203125 15.09375 1.703125 13.796875 1.703125 
C 12.5 1.703125 8.40625 1.703125 4.5 1.90625 
C 5.90625 -1.203125 7.40625 -5.90625 7.796875 -9 
C 14.796875 -9 19.5 -8.59375 22.90625 -6.796875 
C 26.203125 -5.09375 27.203125 -2.09375 27.203125 3.59375 
L 27.203125 28.203125 
L 38 31.296875 
L 36.59375 42.09375 
L 27.203125 39.703125 
L 27.203125 55 
L 36.796875 55 
L 36.796875 66.09375 
L 27.203125 66.09375 
L 27.203125 85 
z
M 50.59375 25.5 
L 60.796875 25.5 
L 60.796875 10 
L 50.59375 10 
z
M 50.59375 36.703125 
L 50.59375 51.203125 
L 60.796875 51.203125 
L 60.796875 36.703125 
z
M 83 25.5 
L 83 10 
L 72.203125 10 
L 72.203125 25.5 
z
M 83 36.703125 
L 72.203125 36.703125 
L 72.203125 51.203125 
L 83 51.203125 
z
M 60.796875 84.796875 
L 60.796875 62.59375 
L 39.203125 62.59375 
L 39.203125 -8.796875 
L 50.59375 -8.796875 
L 50.59375 -1.5 
L 83 -1.5 
L 83 -8.09375 
L 94.90625 -8.09375 
L 94.90625 62.59375 
L 72.203125 62.59375 
L 72.203125 84.796875 
z
" id="SourceHanSansSC-Bold-25277"/>
     <path d="M 29.5 -1.40625 
C 44.59375 -1.40625 54.59375 11.796875 54.59375 37.40625 
C 54.59375 62.796875 44.59375 75.40625 29.5 75.40625 
C 14.40625 75.40625 4.40625 62.90625 4.40625 37.40625 
C 4.40625 11.796875 14.40625 -1.40625 29.5 -1.40625 
z
M 29.5 10.09375 
C 23.09375 10.09375 18.296875 16.5 18.296875 37.40625 
C 18.296875 58 23.09375 64.09375 29.5 64.09375 
C 35.90625 64.09375 40.59375 58 40.59375 37.40625 
C 40.59375 16.5 35.90625 10.09375 29.5 10.09375 
z
" id="SourceHanSansSC-Bold-48"/>
     <path d="M 50.59375 86.59375 
C 41 74.09375 21 62.59375 1.90625 58.203125 
C 4.59375 55.09375 7.40625 50.203125 8.90625 46.703125 
C 15.296875 48.703125 21.796875 51.5 28.09375 54.796875 
L 28.09375 48.203125 
L 71.09375 48.203125 
L 71.09375 54.5 
C 76.90625 51.40625 83 48.90625 89.40625 47.09375 
C 91.296875 50.59375 95 55.796875 98 58.59375 
C 82.203125 61.703125 67.09375 68.90625 58.203125 77.40625 
L 60.09375 79.703125 
z
M 35.59375 59 
C 41 62.296875 46.09375 66 50.5 69.90625 
C 54.40625 65.90625 58.703125 62.203125 63.5 59 
z
M 11.09375 42.40625 
L 11.09375 -1.796875 
L 22.09375 -1.796875 
L 22.09375 6.296875 
L 44.5 6.296875 
L 44.5 42.40625 
z
M 22.09375 32 
L 33.203125 32 
L 33.203125 16.703125 
L 22.09375 16.703125 
z
M 52.203125 42.296875 
L 52.203125 -9.09375 
L 64 -9.09375 
L 64 31.703125 
L 77.796875 31.703125 
L 77.796875 15.09375 
C 77.796875 14 77.40625 13.59375 76.203125 13.59375 
C 75 13.59375 70.796875 13.59375 67 13.703125 
C 68.296875 10.703125 69.796875 6.09375 70.09375 2.90625 
C 76.703125 2.90625 81.5 2.90625 84.90625 4.703125 
C 88.5 6.5 89.40625 9.59375 89.40625 14.90625 
L 89.40625 42.296875 
z
" id="SourceHanSansSC-Bold-21629"/>
     <path d="M 37.59375 -1.40625 
C 55.59375 -1.40625 66.09375 8.796875 66.09375 33.296875 
L 66.09375 74.09375 
L 51.90625 74.09375 
L 51.90625 32 
C 51.90625 16.59375 46.203125 11.40625 37.59375 11.40625 
C 28.90625 11.40625 23.5 16.59375 23.5 32 
L 23.5 74.09375 
L 8.796875 74.09375 
L 8.796875 33.296875 
C 8.796875 8.796875 19.40625 -1.40625 37.59375 -1.40625 
z
" id="SourceHanSansSC-Bold-85"/>
     <path d="M 9.09375 0 
L 23.90625 0 
L 23.90625 26.296875 
L 33.796875 26.296875 
C 49.703125 26.296875 62.40625 33.90625 62.40625 50.796875 
C 62.40625 68.296875 49.796875 74.09375 33.40625 74.09375 
L 9.09375 74.09375 
z
M 23.90625 38 
L 23.90625 62.296875 
L 32.296875 62.296875 
C 42.5 62.296875 47.90625 59.40625 47.90625 50.796875 
C 47.90625 42.296875 43 38 32.796875 38 
z
" id="SourceHanSansSC-Bold-80"/>
     <path d="M 30.296875 51.296875 
L 47.09375 51.296875 
L 47.09375 42.59375 
L 30.296875 42.59375 
z
M 30.296875 62 
L 29.796875 62 
C 31.796875 64.40625 33.796875 66.796875 35.5 69.296875 
L 60 69.296875 
C 58.203125 66.796875 56.09375 64.203125 54 62 
z
M 77 51.296875 
L 77 42.59375 
L 59.296875 42.59375 
L 59.296875 51.296875 
z
M 30.59375 85.40625 
C 25.90625 75.5 17.296875 64.203125 4.5 55.796875 
C 7.296875 54 11.296875 49.703125 13.203125 46.796875 
L 18 50.5 
L 18 35.90625 
C 18 24 17 9.09375 6 -1.203125 
C 8.59375 -2.703125 13.5 -7.40625 15.40625 -9.796875 
C 21.90625 -3.796875 25.703125 4.40625 27.796875 12.796875 
L 47.09375 12.796875 
L 47.09375 -6.59375 
L 59.296875 -6.59375 
L 59.296875 12.796875 
L 77 12.796875 
L 77 4.703125 
C 77 3.203125 76.40625 2.59375 74.796875 2.59375 
C 73.09375 2.59375 67.296875 2.59375 62.296875 2.90625 
C 64 -0.203125 65.90625 -5.5 66.40625 -8.796875 
C 74.40625 -8.796875 80.09375 -8.59375 84.09375 -6.796875 
C 88.09375 -4.796875 89.40625 -1.59375 89.40625 4.5 
L 89.40625 62 
L 68 62 
C 71.703125 66 75.203125 70.296875 77.703125 74.09375 
L 69.5 79.703125 
L 67.59375 79.203125 
L 41.796875 79.203125 
L 43.90625 83 
z
M 30.296875 32.296875 
L 47.09375 32.296875 
L 47.09375 23.296875 
L 29.59375 23.296875 
C 30 26.40625 30.203125 29.40625 30.296875 32.296875 
z
M 77 32.296875 
L 77 23.296875 
L 59.296875 23.296875 
L 59.296875 32.296875 
z
" id="SourceHanSansSC-Bold-35282"/>
     <path d="M 45.203125 46.09375 
L 45.203125 34.09375 
L 26.5 34.09375 
L 26.5 46.09375 
z
M 56.90625 46.09375 
L 75.203125 46.09375 
L 75.203125 34.09375 
L 56.90625 34.09375 
z
M 56.5 66.59375 
C 54 63.296875 50.90625 59.796875 48.09375 57.09375 
L 25.59375 57.09375 
C 28.59375 60.09375 31.40625 63.296875 34.09375 66.59375 
z
M 33.40625 85.703125 
C 26.59375 73.203125 14.5 61.59375 2.59375 54.5 
C 4.703125 51.90625 7.90625 45.796875 9 43.09375 
C 11 44.40625 12.90625 45.90625 14.90625 47.40625 
L 14.90625 10.90625 
C 14.90625 -3.5 20.59375 -7.09375 39.296875 -7.09375 
C 43.59375 -7.09375 69.09375 -7.09375 73.703125 -7.09375 
C 90.59375 -7.09375 94.796875 -2.296875 96.90625 14.296875 
C 93.59375 14.796875 88.59375 16.703125 85.59375 18.5 
C 84.296875 6 82.796875 3.796875 73.09375 3.796875 
C 67.203125 3.796875 44.296875 3.796875 39.09375 3.796875 
C 28.203125 3.796875 26.5 4.796875 26.5 11 
L 26.5 22.703125 
L 75.203125 22.703125 
L 75.203125 19.40625 
L 87 19.40625 
L 87 57.09375 
L 62.5 57.09375 
C 67 61.90625 71.40625 67.203125 74.90625 72.09375 
L 67.09375 77.90625 
L 64.796875 77.203125 
L 41.703125 77.203125 
L 44.203125 81.5 
z
" id="SourceHanSansSC-Bold-33394"/>
     <path d="M 51.59375 75.59375 
L 51.59375 -4.09375 
L 63.296875 -4.09375 
L 63.296875 3.90625 
L 79.40625 3.90625 
L 79.40625 -3.40625 
L 91.796875 -3.40625 
L 91.796875 75.59375 
z
M 63.296875 15.40625 
L 63.296875 64.09375 
L 79.40625 64.09375 
L 79.40625 15.40625 
z
M 41.59375 84.09375 
C 32.40625 80.40625 17.796875 77.296875 4.703125 75.5 
C 6 72.90625 7.5 68.703125 8 66.09375 
C 12.59375 66.59375 17.40625 67.296875 22.296875 68.09375 
L 22.296875 55.203125 
L 4.40625 55.203125 
L 4.40625 44.09375 
L 19.40625 44.09375 
C 15.5 33 9.09375 21.5 2.203125 14.203125 
C 4.203125 11.203125 7.09375 6.40625 8.296875 3 
C 13.59375 8.796875 18.40625 17.40625 22.296875 26.796875 
L 22.296875 -8.796875 
L 34.296875 -8.796875 
L 34.296875 28.296875 
C 37.59375 23.59375 40.90625 18.5 42.796875 15.09375 
L 49.703125 25.09375 
C 47.5 27.796875 38.203125 38.59375 34.296875 42.5 
L 34.296875 44.09375 
L 49 44.09375 
L 49 55.203125 
L 34.296875 55.203125 
L 34.296875 70.5 
C 39.703125 71.703125 44.90625 73.09375 49.40625 74.703125 
z
" id="SourceHanSansSC-Bold-21644"/>
     <path d="M 8.203125 0 
L 52.703125 0 
L 52.703125 12 
L 38.796875 12 
L 38.796875 74.09375 
L 27.90625 74.09375 
C 23.203125 71.09375 18.203125 69.203125 10.703125 67.90625 
L 10.703125 58.703125 
L 24.203125 58.703125 
L 24.203125 12 
L 8.203125 12 
z
" id="SourceHanSansSC-Bold-49"/>
     <path d="M 31.09375 79.296875 
C 30.203125 73.203125 28.5 65 26.796875 58.90625 
L 26.796875 84.5 
L 16.203125 84.5 
L 16.203125 51.59375 
L 3.5 51.59375 
L 3.5 40.40625 
L 14.5 40.40625 
C 11.5 31.296875 6.703125 20.59375 1.796875 14.40625 
C 3.59375 11 6.296875 5.59375 7.40625 1.90625 
C 10.5 6.703125 13.59375 13.296875 16.203125 20.40625 
L 16.203125 -8.59375 
L 26.796875 -8.59375 
L 26.796875 25.5 
C 29.203125 20.90625 31.5 16.09375 32.703125 12.90625 
L 40.296875 22.09375 
C 38.296875 25.09375 29.59375 36.90625 27.09375 39.59375 
L 26.796875 39.40625 
L 26.796875 40.40625 
L 36.40625 40.40625 
L 36.40625 51.59375 
L 26.796875 51.59375 
L 26.796875 56.09375 
L 33.09375 54.203125 
C 35.5 60 38.203125 69.40625 40.59375 77.296875 
z
M 3.40625 76.796875 
C 5.703125 69.59375 7.703125 60.09375 7.90625 54 
L 16.203125 56.09375 
C 15.703125 62.203125 13.796875 71.59375 11.203125 78.703125 
z
M 61.296875 84.796875 
L 61.296875 77.59375 
L 41.796875 77.59375 
L 41.796875 69.09375 
L 61.296875 69.09375 
L 61.296875 65.09375 
L 44.296875 65.09375 
L 44.296875 57.09375 
L 61.296875 57.09375 
L 61.296875 52.703125 
L 39 52.703125 
L 39 44.09375 
L 96.59375 44.09375 
L 96.59375 52.703125 
L 72.59375 52.703125 
L 72.59375 57.09375 
L 91.796875 57.09375 
L 91.796875 65.09375 
L 72.59375 65.09375 
L 72.59375 69.09375 
L 94 69.09375 
L 94 77.59375 
L 72.59375 77.59375 
L 72.59375 84.796875 
z
M 79.5 31.5 
L 79.5 26.703125 
L 55.40625 26.703125 
L 55.40625 31.5 
z
M 44.296875 40 
L 44.296875 -9 
L 55.40625 -9 
L 55.40625 6.203125 
L 79.5 6.203125 
L 79.5 2 
C 79.5 0.90625 79.203125 0.5 77.90625 0.5 
C 76.59375 0.40625 72.40625 0.40625 68.703125 0.59375 
C 70 -2.09375 71.40625 -6.09375 71.796875 -8.90625 
C 78.203125 -9 82.90625 -8.796875 86.40625 -7.296875 
C 89.796875 -5.796875 90.796875 -3.09375 90.796875 1.796875 
L 90.796875 40 
z
M 55.40625 18.796875 
L 79.5 18.796875 
L 79.5 14 
L 55.40625 14 
z
" id="SourceHanSansSC-Bold-31934"/>
     <path d="M 72 77.59375 
C 77.09375 73.40625 82.796875 67.296875 85.296875 63.203125 
L 94.09375 70 
C 91.40625 74.09375 85.40625 79.796875 80.296875 83.703125 
z
M 12.703125 80.40625 
L 12.703125 69.796875 
L 50.703125 69.796875 
L 50.703125 80.40625 
z
M 57.296875 84.5 
C 57.296875 76.796875 57.5 69.203125 57.796875 61.703125 
L 5 61.703125 
L 5 50.703125 
L 58.40625 50.703125 
C 60.796875 17.59375 67.40625 -9.09375 82.59375 -9.09375 
C 91.59375 -9.09375 95.40625 -4.5 97 14.296875 
C 93.90625 15.59375 89.703125 18.296875 87.203125 21 
C 86.703125 8.40625 85.703125 2.796875 83.703125 2.796875 
C 77.5 2.796875 72.40625 23.5 70.40625 50.703125 
L 95 50.703125 
L 95 61.703125 
L 69.703125 61.703125 
C 69.40625 69.09375 69.296875 76.796875 69.5 84.5 
z
M 11.40625 41.40625 
L 11.40625 5.203125 
L 3.09375 4 
L 6.09375 -7.703125 
C 20.5 -5.09375 40.703125 -1.5 59.203125 2.09375 
L 58.296875 13.296875 
L 41.40625 10.296875 
L 41.40625 26.09375 
L 55.90625 26.09375 
L 55.90625 36.59375 
L 41.40625 36.59375 
L 41.40625 47.90625 
L 29.90625 47.90625 
L 29.90625 8.296875 
L 22.40625 7 
L 22.40625 41.40625 
z
" id="SourceHanSansSC-Bold-27494"/>
     <path d="M 22.703125 70.796875 
L 33.796875 70.796875 
L 33.796875 61.796875 
L 22.703125 61.796875 
z
M 64.796875 70.796875 
L 76.90625 70.796875 
L 76.90625 61.796875 
L 64.796875 61.796875 
z
M 60.59375 48.203125 
C 63.796875 46.90625 67.59375 45 70.703125 43.09375 
L 48.40625 43.09375 
C 50 45.59375 51.40625 48.203125 52.703125 50.796875 
L 45.203125 52.203125 
L 45.203125 80.90625 
L 12 80.90625 
L 12 51.703125 
L 40.09375 51.703125 
C 38.703125 48.796875 36.90625 45.90625 34.796875 43.09375 
L 4.5 43.09375 
L 4.5 32.703125 
L 24.296875 32.703125 
C 18.40625 28 11 23.90625 2 20.59375 
C 4.203125 18.5 7.203125 14 8.40625 11.203125 
L 12 12.796875 
L 12 -9 
L 23 -9 
L 23 -6.59375 
L 33.703125 -6.59375 
L 33.703125 -8.40625 
L 45.203125 -8.40625 
L 45.203125 22.703125 
L 29.203125 22.703125 
C 33.40625 25.796875 37.09375 29.203125 40.40625 32.703125 
L 57.09375 32.703125 
C 60.203125 29.09375 63.90625 25.703125 67.90625 22.703125 
L 54.09375 22.703125 
L 54.09375 -9 
L 65.09375 -9 
L 65.09375 -6.59375 
L 76.90625 -6.59375 
L 76.90625 -8.40625 
L 88.5 -8.40625 
L 88.5 11.703125 
L 91.09375 10.796875 
C 92.796875 13.703125 96.09375 18.203125 98.703125 20.40625 
C 88.90625 22.90625 79.40625 27.296875 72.203125 32.703125 
L 95.59375 32.703125 
L 95.59375 43.09375 
L 78.5 43.09375 
L 81.59375 46.203125 
C 79.40625 48 75.90625 50 72.203125 51.703125 
L 88.40625 51.703125 
L 88.40625 80.90625 
L 54 80.90625 
L 54 51.703125 
L 64.203125 51.703125 
z
M 23 3.703125 
L 23 12.40625 
L 33.703125 12.40625 
L 33.703125 3.703125 
z
M 65.09375 3.703125 
L 65.09375 12.40625 
L 76.90625 12.40625 
L 76.90625 3.703125 
z
" id="SourceHanSansSC-Bold-22120"/>
     <path d="M 42.40625 83.796875 
C 40.796875 80 38 74.5 35.796875 71 
L 43.40625 67.59375 
C 46 70.703125 49.203125 75.296875 52.5 79.796875 
z
M 37.40625 23.796875 
C 35.59375 20.296875 33.203125 17.203125 30.5 14.5 
L 22.296875 18.5 
L 25.296875 23.796875 
z
M 8 14.703125 
C 12.59375 12.90625 17.5 10.5 22.296875 8 
C 16.59375 4.5 9.90625 1.90625 2.59375 0.296875 
C 4.59375 -1.796875 6.90625 -6 8 -8.703125 
C 17 -6.203125 25.09375 -2.59375 31.90625 2.5 
C 34.796875 0.703125 37.40625 -1.09375 39.5 -2.703125 
L 46.59375 5.09375 
C 44.59375 6.5 42.09375 8 39.5 9.59375 
C 44.59375 15.40625 48.5 22.59375 51 31.5 
L 44.5 33.90625 
L 42.703125 33.5 
L 30.09375 33.5 
L 31.703125 37.40625 
L 21.09375 39.296875 
C 20.40625 37.40625 19.59375 35.5 18.703125 33.5 
L 6 33.5 
L 6 23.796875 
L 13.703125 23.796875 
C 11.796875 20.40625 9.796875 17.296875 8 14.703125 
z
M 6.703125 79.703125 
C 9.09375 75.796875 11.5 70.59375 12.203125 67.203125 
L 4.296875 67.203125 
L 4.296875 57.796875 
L 19.09375 57.796875 
C 14.5 52.90625 8.09375 48.5 2.203125 46.09375 
C 4.40625 43.90625 7 40 8.40625 37.296875 
C 13.40625 40.09375 18.703125 44.203125 23.296875 48.796875 
L 23.296875 39.90625 
L 34.40625 39.90625 
L 34.40625 50.703125 
C 38.203125 47.703125 42.09375 44.40625 44.296875 42.296875 
L 50.59375 50.59375 
C 48.796875 51.90625 43.296875 55.203125 38.703125 57.796875 
L 53.40625 57.796875 
L 53.40625 67.203125 
L 34.40625 67.203125 
L 34.40625 85 
L 23.296875 85 
L 23.296875 67.203125 
L 13 67.203125 
L 21.296875 70.796875 
C 20.5 74.40625 17.90625 79.5 15.296875 83.296875 
z
M 61.203125 84.703125 
C 59 66.703125 54.5 49.59375 46.5 39.203125 
C 48.90625 37.5 53.40625 33.59375 55.09375 31.59375 
C 57 34.296875 58.796875 37.296875 60.40625 40.59375 
C 62.296875 33 64.59375 25.90625 67.5 19.59375 
C 62.296875 11.203125 55 4.90625 44.90625 0.296875 
C 46.90625 -2 50.09375 -7 51.09375 -9.40625 
C 60.5 -4.59375 67.796875 1.40625 73.40625 8.90625 
C 77.90625 2 83.5 -3.796875 90.40625 -8.09375 
C 92.09375 -5.09375 95.59375 -0.796875 98.203125 1.296875 
C 90.59375 5.5 84.59375 11.796875 79.90625 19.59375 
C 84.703125 29.5 87.703125 41.296875 89.59375 55.40625 
L 95.90625 55.40625 
L 95.90625 66.5 
L 69.09375 66.5 
C 70.296875 71.90625 71.40625 77.40625 72.203125 83.09375 
z
M 78.40625 55.40625 
C 77.40625 46.90625 75.90625 39.296875 73.59375 32.703125 
C 70.90625 39.703125 68.90625 47.296875 67.5 55.40625 
z
" id="SourceHanSansSC-Bold-25968"/>
     <path d="M 68.796875 83.90625 
L 57.59375 79.5 
C 62.90625 68.796875 70.203125 57.5 77.90625 48.203125 
L 24.796875 48.203125 
C 32.296875 57.296875 39 68.40625 43.703125 80 
L 30.703125 83.703125 
C 25.09375 68.59375 14.90625 54.5 3.203125 46.09375 
C 6.09375 44 11.203125 39.09375 13.40625 36.59375 
C 15.5 38.296875 17.5 40.203125 19.5 42.296875 
L 19.5 36.40625 
L 35.59375 36.40625 
C 33.5 21.90625 28.09375 8.703125 5.703125 1.40625 
C 8.5 -1.203125 11.90625 -6.09375 13.296875 -9.203125 
C 39.09375 0.296875 45.703125 17.40625 48.296875 36.40625 
L 69.203125 36.40625 
C 68.40625 16 67.40625 7.296875 65.296875 5.09375 
C 64.203125 4.09375 63.09375 3.796875 61.296875 3.796875 
C 58.796875 3.796875 53.59375 3.796875 48.09375 4.296875 
C 50.203125 0.90625 51.796875 -4.203125 52 -7.796875 
C 57.90625 -8 63.703125 -8 67.203125 -7.5 
C 71 -7.09375 73.796875 -6 76.296875 -2.796875 
C 79.796875 1.40625 81 13.203125 82 43 
L 82 43.296875 
C 83.90625 41.203125 85.796875 39.296875 87.59375 37.5 
C 89.796875 40.703125 94.296875 45.40625 97.296875 47.703125 
C 86.90625 56.296875 74.90625 71.09375 68.796875 83.90625 
z
" id="SourceHanSansSC-Bold-20998"/>
     <path d="M 37.40625 85.203125 
C 36.203125 80.40625 34.703125 75.5 32.90625 70.703125 
L 5.296875 70.703125 
L 5.296875 59.203125 
L 27.796875 59.203125 
C 21.5 47 12.90625 35.796875 1.703125 28.5 
C 3.90625 25.796875 7.09375 21 8.59375 18 
C 13.203125 21.203125 17.5 24.90625 21.296875 29 
L 21.296875 0 
L 33.296875 0 
L 33.296875 32.703125 
L 49.203125 32.703125 
L 49.203125 -8.90625 
L 61.296875 -8.90625 
L 61.296875 32.703125 
L 78 32.703125 
L 78 13.09375 
C 78 11.796875 77.5 11.40625 75.90625 11.40625 
C 74.5 11.40625 69.09375 11.296875 64.5 11.5 
C 66 8.5 67.703125 3.90625 68.203125 0.59375 
C 75.703125 0.59375 81.203125 0.796875 85 2.5 
C 89 4.203125 90.09375 7.296875 90.09375 12.796875 
L 90.09375 44.09375 
L 61.296875 44.09375 
L 61.296875 55.59375 
L 49.203125 55.59375 
L 49.203125 44.09375 
L 33 44.09375 
C 36 48.90625 38.703125 54 41.203125 59.203125 
L 94.90625 59.203125 
L 94.90625 70.703125 
L 45.90625 70.703125 
C 47.40625 74.59375 48.59375 78.5 49.796875 82.40625 
z
" id="SourceHanSansSC-Bold-24067"/>
     <path d="M 47.90625 38.59375 
C 52.40625 31.703125 56.796875 22.59375 58.203125 16.703125 
L 68.59375 21.90625 
C 67 28 62.203125 36.703125 57.5 43.203125 
z
M 6.40625 44.203125 
C 12.203125 39.09375 18.40625 33.09375 24.09375 27 
C 18.703125 15.703125 11.703125 6.703125 3.203125 1 
C 6 -1.203125 9.796875 -5.703125 11.59375 -8.796875 
C 20.203125 -2.203125 27.296875 6.296875 32.796875 16.90625 
C 36.703125 12.09375 39.90625 7.5 42 3.5 
L 51.296875 12.59375 
C 48.40625 17.59375 43.796875 23.5 38.40625 29.40625 
C 42.796875 41.296875 45.703125 55.203125 47.296875 71.203125 
L 39.40625 73.5 
L 37.40625 73 
L 6.5 73 
L 6.5 61.59375 
L 34.203125 61.59375 
C 33 53.59375 31.203125 46.09375 28.90625 39.09375 
C 24.09375 43.703125 19.203125 48.09375 14.59375 51.90625 
z
M 74.09375 85 
L 74.09375 62.703125 
L 48.703125 62.703125 
L 48.703125 51.203125 
L 74.09375 51.203125 
L 74.09375 6 
C 74.09375 4.296875 73.40625 3.796875 71.703125 3.796875 
C 70 3.796875 64.59375 3.703125 59 4 
C 60.59375 0.40625 62.40625 -5.40625 62.703125 -8.90625 
C 71.09375 -8.90625 77.09375 -8.40625 80.90625 -6.296875 
C 84.703125 -4.296875 86 -0.796875 86 6 
L 86 51.203125 
L 96.703125 51.203125 
L 96.703125 62.703125 
L 86 62.703125 
L 86 85 
z
" id="SourceHanSansSC-Bold-23545"/>
     <path d="M 11.203125 -8.90625 
C 14.09375 -6.59375 18.796875 -4.296875 45.59375 5.296875 
C 45.09375 8.203125 44.796875 13.796875 45 17.59375 
L 23.5 10.40625 
L 23.5 43.203125 
L 46.203125 43.203125 
L 46.203125 55.09375 
L 23.5 55.09375 
L 23.5 83.5 
L 10.703125 83.5 
L 10.703125 10.59375 
C 10.703125 5.703125 7.796875 2.703125 5.5 1.09375 
C 7.5 -1 10.296875 -6 11.203125 -8.90625 
z
M 51.296875 84 
L 51.296875 12 
C 51.296875 -2.296875 54.703125 -6.59375 66.40625 -6.59375 
C 68.59375 -6.59375 77.296875 -6.59375 79.59375 -6.59375 
C 91.40625 -6.59375 94.296875 1.296875 95.5 21.90625 
C 92.203125 22.703125 86.90625 25.203125 83.90625 27.40625 
C 83.203125 9.703125 82.5 5.203125 78.40625 5.203125 
C 76.703125 5.203125 69.90625 5.203125 68.203125 5.203125 
C 64.5 5.203125 64 6.09375 64 11.796875 
L 64 34.796875 
C 74.703125 42.09375 86.203125 50.703125 95.796875 59 
L 85.90625 69.90625 
C 80.09375 63.40625 72.09375 55.40625 64 48.796875 
L 64 84 
z
" id="SourceHanSansSC-Bold-27604"/>
    </defs>
    <g transform="translate(89.4375 37.2)scale(0.15 -0.15)">
     <use xlink:href="#SourceHanSansSC-Bold-25277"/>
     <use x="99.999985" xlink:href="#SourceHanSansSC-Bold-48"/>
     <use x="158.999969" xlink:href="#SourceHanSansSC-Bold-21629"/>
     <use x="258.999954" xlink:href="#SourceHanSansSC-Bold-85"/>
     <use x="333.799942" xlink:href="#SourceHanSansSC-Bold-80"/>
     <use x="400.499939" xlink:href="#SourceHanSansSC-Bold-35282"/>
     <use x="500.499924" xlink:href="#SourceHanSansSC-Bold-33394"/>
     <use x="600.499908" xlink:href="#SourceHanSansSC-Bold-21644"/>
     <use x="700.499893" xlink:href="#SourceHanSansSC-Bold-25277"/>
     <use x="800.499878" xlink:href="#SourceHanSansSC-Bold-49"/>
     <use x="859.499863" xlink:href="#SourceHanSansSC-Bold-31934"/>
     <use x="959.499847" xlink:href="#SourceHanSansSC-Bold-27494"/>
     <use x="1059.499832" xlink:href="#SourceHanSansSC-Bold-22120"/>
     <use x="1159.499817" xlink:href="#SourceHanSansSC-Bold-25277"/>
     <use x="1259.499802" xlink:href="#SourceHanSansSC-Bold-25968"/>
     <use x="1359.499786" xlink:href="#SourceHanSansSC-Bold-20998"/>
     <use x="1459.499771" xlink:href="#SourceHanSansSC-Bold-24067"/>
     <use x="1559.499756" xlink:href="#SourceHanSansSC-Bold-23545"/>
     <use x="1659.499741" xlink:href="#SourceHanSansSC-Bold-27604"/>
    </g>
   </g>
   <g id="legend_1">
    <g id="patch_7">
     <path d="M 329.8 81.459375 
L 381.8 81.459375 
Q 383.8 81.459375 383.8 79.459375 
L 383.8 50.2 
Q 383.8 48.2 381.8 48.2 
L 329.8 48.2 
Q 327.8 48.2 327.8 50.2 
L 327.8 79.459375 
Q 327.8 81.459375 329.8 81.459375 
z
" style="fill:#ffffff;opacity:0.8;stroke:#cccccc;stroke-linejoin:miter;"/>
    </g>
    <g id="line2d_15">
     <path d="M 331.8 56.679687 
L 351.8 56.679687 
" style="fill:none;stroke:#fa8072;stroke-linecap:square;stroke-width:1.5;"/>
    </g>
    <g id="line2d_16"/>
    <g id="text_15">
     <!-- 角色 -->
     <g transform="translate(359.8 60.179687)scale(0.1 -0.1)">
      <use xlink:href="#SourceHanSansSC-Bold-35282"/>
      <use x="99.999985" xlink:href="#SourceHanSansSC-Bold-33394"/>
     </g>
    </g>
    <g id="line2d_17">
     <path d="M 331.8 71.809375 
L 351.8 71.809375 
" style="fill:none;stroke:#847db3;stroke-linecap:square;stroke-width:1.5;"/>
    </g>
    <g id="line2d_18"/>
    <g id="text_16">
     <!-- 武器 -->
     <g transform="translate(359.8 75.309375)scale(0.1 -0.1)">
      <use xlink:href="#SourceHanSansSC-Bold-27494"/>
      <use x="99.999985" xlink:href="#SourceHanSansSC-Bold-22120"/>
     </g>
    </g>
   </g>
  </g>
 </g>
 <defs>
  <clipPath id="p546da28209">
   <rect height="277.2" width="334.8" x="54" y="43.2"/>
  </clipPath>
 </defs>
</svg>
