<?xml version="1.0" encoding="utf-8" standalone="no"?>
<!DOCTYPE svg PUBLIC "-//W3C//DTD SVG 1.1//EN"
  "http://www.w3.org/Graphics/SVG/1.1/DTD/svg11.dtd">
<!-- Created with matplotlib (https://matplotlib.org/) -->
<svg height="360pt" version="1.1" viewBox="0 0 432 360" width="432pt" xmlns="http://www.w3.org/2000/svg" xmlns:xlink="http://www.w3.org/1999/xlink">
 <defs>
  <style type="text/css">
*{stroke-linecap:butt;stroke-linejoin:round;}
  </style>
 </defs>
 <g id="figure_1">
  <g id="patch_1">
   <path d="M 0 360 
L 432 360 
L 432 0 
L 0 0 
z
" style="fill:#ffffff;"/>
  </g>
  <g id="axes_1">
   <g id="patch_2">
    <path d="M 54 320.4 
L 388.8 320.4 
L 388.8 43.2 
L 54 43.2 
z
" style="fill:#ffffff;"/>
   </g>
   <g id="matplotlib.axis_1">
    <g id="xtick_1">
     <g id="line2d_1">
      <defs>
       <path d="M 0 0 
L 0 3.5 
" id="m5db4b90184" style="stroke:#000000;stroke-width:0.8;"/>
      </defs>
      <g>
       <use style="stroke:#000000;stroke-width:0.8;" x="69.218182" xlink:href="#m5db4b90184" y="320.4"/>
      </g>
     </g>
     <g id="text_1">
      <!-- 0.0 -->
      <defs>
       <path d="M 31.78125 66.40625 
Q 24.171875 66.40625 20.328125 58.90625 
Q 16.5 51.421875 16.5 36.375 
Q 16.5 21.390625 20.328125 13.890625 
Q 24.171875 6.390625 31.78125 6.390625 
Q 39.453125 6.390625 43.28125 13.890625 
Q 47.125 21.390625 47.125 36.375 
Q 47.125 51.421875 43.28125 58.90625 
Q 39.453125 66.40625 31.78125 66.40625 
z
M 31.78125 74.21875 
Q 44.046875 74.21875 50.515625 64.515625 
Q 56.984375 54.828125 56.984375 36.375 
Q 56.984375 17.96875 50.515625 8.265625 
Q 44.046875 -1.421875 31.78125 -1.421875 
Q 19.53125 -1.421875 13.0625 8.265625 
Q 6.59375 17.96875 6.59375 36.375 
Q 6.59375 54.828125 13.0625 64.515625 
Q 19.53125 74.21875 31.78125 74.21875 
z
" id="DejaVuSans-48"/>
       <path d="M 10.6875 12.40625 
L 21 12.40625 
L 21 0 
L 10.6875 0 
z
" id="DejaVuSans-46"/>
      </defs>
      <g transform="translate(61.266619 334.998438)scale(0.1 -0.1)">
       <use xlink:href="#DejaVuSans-48"/>
       <use x="63.623047" xlink:href="#DejaVuSans-46"/>
       <use x="95.410156" xlink:href="#DejaVuSans-48"/>
      </g>
     </g>
    </g>
    <g id="xtick_2">
     <g id="line2d_2">
      <g>
       <use style="stroke:#000000;stroke-width:0.8;" x="130.090909" xlink:href="#m5db4b90184" y="320.4"/>
      </g>
     </g>
     <g id="text_2">
      <!-- 0.2 -->
      <defs>
       <path d="M 19.1875 8.296875 
L 53.609375 8.296875 
L 53.609375 0 
L 7.328125 0 
L 7.328125 8.296875 
Q 12.9375 14.109375 22.625 23.890625 
Q 32.328125 33.6875 34.8125 36.53125 
Q 39.546875 41.84375 41.421875 45.53125 
Q 43.3125 49.21875 43.3125 52.78125 
Q 43.3125 58.59375 39.234375 62.25 
Q 35.15625 65.921875 28.609375 65.921875 
Q 23.96875 65.921875 18.8125 64.3125 
Q 13.671875 62.703125 7.8125 59.421875 
L 7.8125 69.390625 
Q 13.765625 71.78125 18.9375 73 
Q 24.125 74.21875 28.421875 74.21875 
Q 39.75 74.21875 46.484375 68.546875 
Q 53.21875 62.890625 53.21875 53.421875 
Q 53.21875 48.921875 51.53125 44.890625 
Q 49.859375 40.875 45.40625 35.40625 
Q 44.1875 33.984375 37.640625 27.21875 
Q 31.109375 20.453125 19.1875 8.296875 
z
" id="DejaVuSans-50"/>
      </defs>
      <g transform="translate(122.139347 334.998438)scale(0.1 -0.1)">
       <use xlink:href="#DejaVuSans-48"/>
       <use x="63.623047" xlink:href="#DejaVuSans-46"/>
       <use x="95.410156" xlink:href="#DejaVuSans-50"/>
      </g>
     </g>
    </g>
    <g id="xtick_3">
     <g id="line2d_3">
      <g>
       <use style="stroke:#000000;stroke-width:0.8;" x="190.963637" xlink:href="#m5db4b90184" y="320.4"/>
      </g>
     </g>
     <g id="text_3">
      <!-- 0.4 -->
      <defs>
       <path d="M 37.796875 64.3125 
L 12.890625 25.390625 
L 37.796875 25.390625 
z
M 35.203125 72.90625 
L 47.609375 72.90625 
L 47.609375 25.390625 
L 58.015625 25.390625 
L 58.015625 17.1875 
L 47.609375 17.1875 
L 47.609375 0 
L 37.796875 0 
L 37.796875 17.1875 
L 4.890625 17.1875 
L 4.890625 26.703125 
z
" id="DejaVuSans-52"/>
      </defs>
      <g transform="translate(183.012075 334.998438)scale(0.1 -0.1)">
       <use xlink:href="#DejaVuSans-48"/>
       <use x="63.623047" xlink:href="#DejaVuSans-46"/>
       <use x="95.410156" xlink:href="#DejaVuSans-52"/>
      </g>
     </g>
    </g>
    <g id="xtick_4">
     <g id="line2d_4">
      <g>
       <use style="stroke:#000000;stroke-width:0.8;" x="251.836365" xlink:href="#m5db4b90184" y="320.4"/>
      </g>
     </g>
     <g id="text_4">
      <!-- 0.6 -->
      <defs>
       <path d="M 33.015625 40.375 
Q 26.375 40.375 22.484375 35.828125 
Q 18.609375 31.296875 18.609375 23.390625 
Q 18.609375 15.53125 22.484375 10.953125 
Q 26.375 6.390625 33.015625 6.390625 
Q 39.65625 6.390625 43.53125 10.953125 
Q 47.40625 15.53125 47.40625 23.390625 
Q 47.40625 31.296875 43.53125 35.828125 
Q 39.65625 40.375 33.015625 40.375 
z
M 52.59375 71.296875 
L 52.59375 62.3125 
Q 48.875 64.0625 45.09375 64.984375 
Q 41.3125 65.921875 37.59375 65.921875 
Q 27.828125 65.921875 22.671875 59.328125 
Q 17.53125 52.734375 16.796875 39.40625 
Q 19.671875 43.65625 24.015625 45.921875 
Q 28.375 48.1875 33.59375 48.1875 
Q 44.578125 48.1875 50.953125 41.515625 
Q 57.328125 34.859375 57.328125 23.390625 
Q 57.328125 12.15625 50.6875 5.359375 
Q 44.046875 -1.421875 33.015625 -1.421875 
Q 20.359375 -1.421875 13.671875 8.265625 
Q 6.984375 17.96875 6.984375 36.375 
Q 6.984375 53.65625 15.1875 63.9375 
Q 23.390625 74.21875 37.203125 74.21875 
Q 40.921875 74.21875 44.703125 73.484375 
Q 48.484375 72.75 52.59375 71.296875 
z
" id="DejaVuSans-54"/>
      </defs>
      <g transform="translate(243.884802 334.998438)scale(0.1 -0.1)">
       <use xlink:href="#DejaVuSans-48"/>
       <use x="63.623047" xlink:href="#DejaVuSans-46"/>
       <use x="95.410156" xlink:href="#DejaVuSans-54"/>
      </g>
     </g>
    </g>
    <g id="xtick_5">
     <g id="line2d_5">
      <g>
       <use style="stroke:#000000;stroke-width:0.8;" x="312.709092" xlink:href="#m5db4b90184" y="320.4"/>
      </g>
     </g>
     <g id="text_5">
      <!-- 0.8 -->
      <defs>
       <path d="M 31.78125 34.625 
Q 24.75 34.625 20.71875 30.859375 
Q 16.703125 27.09375 16.703125 20.515625 
Q 16.703125 13.921875 20.71875 10.15625 
Q 24.75 6.390625 31.78125 6.390625 
Q 38.8125 6.390625 42.859375 10.171875 
Q 46.921875 13.96875 46.921875 20.515625 
Q 46.921875 27.09375 42.890625 30.859375 
Q 38.875 34.625 31.78125 34.625 
z
M 21.921875 38.8125 
Q 15.578125 40.375 12.03125 44.71875 
Q 8.5 49.078125 8.5 55.328125 
Q 8.5 64.0625 14.71875 69.140625 
Q 20.953125 74.21875 31.78125 74.21875 
Q 42.671875 74.21875 48.875 69.140625 
Q 55.078125 64.0625 55.078125 55.328125 
Q 55.078125 49.078125 51.53125 44.71875 
Q 48 40.375 41.703125 38.8125 
Q 48.828125 37.15625 52.796875 32.3125 
Q 56.78125 27.484375 56.78125 20.515625 
Q 56.78125 9.90625 50.3125 4.234375 
Q 43.84375 -1.421875 31.78125 -1.421875 
Q 19.734375 -1.421875 13.25 4.234375 
Q 6.78125 9.90625 6.78125 20.515625 
Q 6.78125 27.484375 10.78125 32.3125 
Q 14.796875 37.15625 21.921875 38.8125 
z
M 18.3125 54.390625 
Q 18.3125 48.734375 21.84375 45.5625 
Q 25.390625 42.390625 31.78125 42.390625 
Q 38.140625 42.390625 41.71875 45.5625 
Q 45.3125 48.734375 45.3125 54.390625 
Q 45.3125 60.0625 41.71875 63.234375 
Q 38.140625 66.40625 31.78125 66.40625 
Q 25.390625 66.40625 21.84375 63.234375 
Q 18.3125 60.0625 18.3125 54.390625 
z
" id="DejaVuSans-56"/>
      </defs>
      <g transform="translate(304.75753 334.998438)scale(0.1 -0.1)">
       <use xlink:href="#DejaVuSans-48"/>
       <use x="63.623047" xlink:href="#DejaVuSans-46"/>
       <use x="95.410156" xlink:href="#DejaVuSans-56"/>
      </g>
     </g>
    </g>
    <g id="xtick_6">
     <g id="line2d_6">
      <g>
       <use style="stroke:#000000;stroke-width:0.8;" x="373.58182" xlink:href="#m5db4b90184" y="320.4"/>
      </g>
     </g>
     <g id="text_6">
      <!-- 1.0 -->
      <defs>
       <path d="M 12.40625 8.296875 
L 28.515625 8.296875 
L 28.515625 63.921875 
L 10.984375 60.40625 
L 10.984375 69.390625 
L 28.421875 72.90625 
L 38.28125 72.90625 
L 38.28125 8.296875 
L 54.390625 8.296875 
L 54.390625 0 
L 12.40625 0 
z
" id="DejaVuSans-49"/>
      </defs>
      <g transform="translate(365.630257 334.998438)scale(0.1 -0.1)">
       <use xlink:href="#DejaVuSans-49"/>
       <use x="63.623047" xlink:href="#DejaVuSans-46"/>
       <use x="95.410156" xlink:href="#DejaVuSans-48"/>
      </g>
     </g>
    </g>
   </g>
   <g id="matplotlib.axis_2">
    <g id="ytick_1">
     <g id="line2d_7">
      <defs>
       <path d="M 0 0 
L -3.5 0 
" id="m501129a145" style="stroke:#000000;stroke-width:0.8;"/>
      </defs>
      <g>
       <use style="stroke:#000000;stroke-width:0.8;" x="54" xlink:href="#m501129a145" y="307.8"/>
      </g>
     </g>
     <g id="text_7">
      <!-- 0 -->
      <g transform="translate(40.6375 311.599219)scale(0.1 -0.1)">
       <use xlink:href="#DejaVuSans-48"/>
      </g>
     </g>
    </g>
    <g id="ytick_2">
     <g id="line2d_8">
      <g>
       <use style="stroke:#000000;stroke-width:0.8;" x="54" xlink:href="#m501129a145" y="276.3"/>
      </g>
     </g>
     <g id="text_8">
      <!-- 250 -->
      <defs>
       <path d="M 10.796875 72.90625 
L 49.515625 72.90625 
L 49.515625 64.59375 
L 19.828125 64.59375 
L 19.828125 46.734375 
Q 21.96875 47.46875 24.109375 47.828125 
Q 26.265625 48.1875 28.421875 48.1875 
Q 40.625 48.1875 47.75 41.5 
Q 54.890625 34.8125 54.890625 23.390625 
Q 54.890625 11.625 47.5625 5.09375 
Q 40.234375 -1.421875 26.90625 -1.421875 
Q 22.3125 -1.421875 17.546875 -0.640625 
Q 12.796875 0.140625 7.71875 1.703125 
L 7.71875 11.625 
Q 12.109375 9.234375 16.796875 8.0625 
Q 21.484375 6.890625 26.703125 6.890625 
Q 35.15625 6.890625 40.078125 11.328125 
Q 45.015625 15.765625 45.015625 23.390625 
Q 45.015625 31 40.078125 35.4375 
Q 35.15625 39.890625 26.703125 39.890625 
Q 22.75 39.890625 18.8125 39.015625 
Q 14.890625 38.140625 10.796875 36.28125 
z
" id="DejaVuSans-53"/>
      </defs>
      <g transform="translate(27.9125 280.099219)scale(0.1 -0.1)">
       <use xlink:href="#DejaVuSans-50"/>
       <use x="63.623047" xlink:href="#DejaVuSans-53"/>
       <use x="127.246094" xlink:href="#DejaVuSans-48"/>
      </g>
     </g>
    </g>
    <g id="ytick_3">
     <g id="line2d_9">
      <g>
       <use style="stroke:#000000;stroke-width:0.8;" x="54" xlink:href="#m501129a145" y="244.8"/>
      </g>
     </g>
     <g id="text_9">
      <!-- 500 -->
      <g transform="translate(27.9125 248.599219)scale(0.1 -0.1)">
       <use xlink:href="#DejaVuSans-53"/>
       <use x="63.623047" xlink:href="#DejaVuSans-48"/>
       <use x="127.246094" xlink:href="#DejaVuSans-48"/>
      </g>
     </g>
    </g>
    <g id="ytick_4">
     <g id="line2d_10">
      <g>
       <use style="stroke:#000000;stroke-width:0.8;" x="54" xlink:href="#m501129a145" y="213.3"/>
      </g>
     </g>
     <g id="text_10">
      <!-- 750 -->
      <defs>
       <path d="M 8.203125 72.90625 
L 55.078125 72.90625 
L 55.078125 68.703125 
L 28.609375 0 
L 18.3125 0 
L 43.21875 64.59375 
L 8.203125 64.59375 
z
" id="DejaVuSans-55"/>
      </defs>
      <g transform="translate(27.9125 217.099219)scale(0.1 -0.1)">
       <use xlink:href="#DejaVuSans-55"/>
       <use x="63.623047" xlink:href="#DejaVuSans-53"/>
       <use x="127.246094" xlink:href="#DejaVuSans-48"/>
      </g>
     </g>
    </g>
    <g id="ytick_5">
     <g id="line2d_11">
      <g>
       <use style="stroke:#000000;stroke-width:0.8;" x="54" xlink:href="#m501129a145" y="181.8"/>
      </g>
     </g>
     <g id="text_11">
      <!-- 1000 -->
      <g transform="translate(21.55 185.599219)scale(0.1 -0.1)">
       <use xlink:href="#DejaVuSans-49"/>
       <use x="63.623047" xlink:href="#DejaVuSans-48"/>
       <use x="127.246094" xlink:href="#DejaVuSans-48"/>
       <use x="190.869141" xlink:href="#DejaVuSans-48"/>
      </g>
     </g>
    </g>
    <g id="ytick_6">
     <g id="line2d_12">
      <g>
       <use style="stroke:#000000;stroke-width:0.8;" x="54" xlink:href="#m501129a145" y="150.3"/>
      </g>
     </g>
     <g id="text_12">
      <!-- 1250 -->
      <g transform="translate(21.55 154.099219)scale(0.1 -0.1)">
       <use xlink:href="#DejaVuSans-49"/>
       <use x="63.623047" xlink:href="#DejaVuSans-50"/>
       <use x="127.246094" xlink:href="#DejaVuSans-53"/>
       <use x="190.869141" xlink:href="#DejaVuSans-48"/>
      </g>
     </g>
    </g>
    <g id="ytick_7">
     <g id="line2d_13">
      <g>
       <use style="stroke:#000000;stroke-width:0.8;" x="54" xlink:href="#m501129a145" y="118.8"/>
      </g>
     </g>
     <g id="text_13">
      <!-- 1500 -->
      <g transform="translate(21.55 122.599219)scale(0.1 -0.1)">
       <use xlink:href="#DejaVuSans-49"/>
       <use x="63.623047" xlink:href="#DejaVuSans-53"/>
       <use x="127.246094" xlink:href="#DejaVuSans-48"/>
       <use x="190.869141" xlink:href="#DejaVuSans-48"/>
      </g>
     </g>
    </g>
    <g id="ytick_8">
     <g id="line2d_14">
      <g>
       <use style="stroke:#000000;stroke-width:0.8;" x="54" xlink:href="#m501129a145" y="87.3"/>
      </g>
     </g>
     <g id="text_14">
      <!-- 1750 -->
      <g transform="translate(21.55 91.099219)scale(0.1 -0.1)">
       <use xlink:href="#DejaVuSans-49"/>
       <use x="63.623047" xlink:href="#DejaVuSans-55"/>
       <use x="127.246094" xlink:href="#DejaVuSans-53"/>
       <use x="190.869141" xlink:href="#DejaVuSans-48"/>
      </g>
     </g>
    </g>
    <g id="ytick_9">
     <g id="line2d_15">
      <g>
       <use style="stroke:#000000;stroke-width:0.8;" x="54" xlink:href="#m501129a145" y="55.8"/>
      </g>
     </g>
     <g id="text_15">
      <!-- 2000 -->
      <g transform="translate(21.55 59.599219)scale(0.1 -0.1)">
       <use xlink:href="#DejaVuSans-50"/>
       <use x="63.623047" xlink:href="#DejaVuSans-48"/>
       <use x="127.246094" xlink:href="#DejaVuSans-48"/>
       <use x="190.869141" xlink:href="#DejaVuSans-48"/>
      </g>
     </g>
    </g>
   </g>
   <g id="line2d_16">
    <path clip-path="url(#p8795349abd)" d="M 54 307.8 
L 388.8 307.8 
" style="fill:none;stroke:#d3d3d3;stroke-dasharray:1.5,2.475;stroke-dashoffset:0;stroke-width:1.5;"/>
   </g>
   <g id="line2d_17">
    <path clip-path="url(#p8795349abd)" d="M 54 270 
L 388.8 270 
" style="fill:none;stroke:#d3d3d3;stroke-dasharray:1.5,2.475;stroke-dashoffset:0;stroke-width:1.5;"/>
   </g>
   <g id="line2d_18">
    <path clip-path="url(#p8795349abd)" d="M 54 232.2 
L 388.8 232.2 
" style="fill:none;stroke:#d3d3d3;stroke-dasharray:1.5,2.475;stroke-dashoffset:0;stroke-width:1.5;"/>
   </g>
   <g id="line2d_19">
    <path clip-path="url(#p8795349abd)" d="M 54 194.4 
L 388.8 194.4 
" style="fill:none;stroke:#d3d3d3;stroke-dasharray:1.5,2.475;stroke-dashoffset:0;stroke-width:1.5;"/>
   </g>
   <g id="line2d_20">
    <path clip-path="url(#p8795349abd)" d="M 54 156.6 
L 388.8 156.6 
" style="fill:none;stroke:#d3d3d3;stroke-dasharray:1.5,2.475;stroke-dashoffset:0;stroke-width:1.5;"/>
   </g>
   <g id="line2d_21">
    <path clip-path="url(#p8795349abd)" d="M 54 118.8 
L 388.8 118.8 
" style="fill:none;stroke:#d3d3d3;stroke-dasharray:1.5,2.475;stroke-dashoffset:0;stroke-width:1.5;"/>
   </g>
   <g id="line2d_22">
    <path clip-path="url(#p8795349abd)" d="M 54 81 
L 388.8 81 
" style="fill:none;stroke:#d3d3d3;stroke-dasharray:1.5,2.475;stroke-dashoffset:0;stroke-width:1.5;"/>
   </g>
   <g id="line2d_23">
    <path clip-path="url(#p8795349abd)" d="M 221.400001 320.4 
L 221.400001 43.2 
" style="fill:none;stroke:#d3d3d3;stroke-dasharray:5.55,2.4;stroke-dashoffset:0;stroke-width:1.5;"/>
   </g>
   <g id="line2d_24">
    <path clip-path="url(#p8795349abd)" d="M 343.145456 320.4 
L 343.145456 43.2 
" style="fill:none;stroke:#d3d3d3;stroke-dasharray:5.55,2.4;stroke-dashoffset:0;stroke-width:1.5;"/>
   </g>
   <g id="line2d_25">
    <path clip-path="url(#p8795349abd)" d="M 370.538184 320.4 
L 370.538184 43.2 
" style="fill:none;stroke:#d3d3d3;stroke-dasharray:5.55,2.4;stroke-dashoffset:0;stroke-width:1.5;"/>
   </g>
   <g id="line2d_26">
    <path clip-path="url(#p8795349abd)" d="M 70.017136 307.674 
L 92.474444 304.02 
L 113.553248 300.366 
L 115.655633 299.988 
L 131.774135 299.736 
L 186.716942 299.106 
L 193.474893 298.854 
L 197.015938 298.476 
L 211.321641 296.334 
L 227.563199 293.688 
L 239.065149 291.798 
L 244.04745 291.546 
L 275.990102 290.412 
L 278.742964 290.034 
L 283.36617 289.026 
L 293.383563 286.632 
L 302.496631 284.238 
L 305.016505 283.608 
L 307.854833 283.23 
L 320.55295 281.97 
L 322.511109 281.466 
L 326.417874 280.08 
L 332.209475 277.812 
L 339.459895 274.914 
L 345.280426 273.528 
L 346.565812 272.898 
L 349.387019 271.134 
L 352.629357 268.866 
L 356.010984 266.472 
L 358.379575 265.212 
L 359.355753 264.33 
L 361.246497 262.188 
L 363.185006 259.668 
L 364.464395 258.03 
L 365.631036 256.644 
L 366.447374 255.132 
L 367.75512 252.234 
L 369.653739 247.32 
L 370.560114 243.666 
L 371.552637 238.626 
L 372.183978 233.586 
L 372.646067 228.42 
L 373.057704 220.86 
L 373.336525 210.906 
L 373.504765 195.786 
L 373.574623 164.79 
L 373.581818 55.8 
L 373.581818 55.8 
" style="fill:none;stroke:#b3aaf2;stroke-linecap:square;stroke-width:1.5;"/>
   </g>
   <g id="line2d_27">
    <path clip-path="url(#p8795349abd)" d="M 69.218182 307.674 
L 69.332119 306.414 
L 69.689492 305.028 
L 70.279011 303.642 
L 71.173767 302.13 
L 72.423297 300.492 
L 73.315147 299.61 
L 74.294378 299.232 
L 77.717292 298.35 
L 90.980587 295.2 
L 105.662574 291.924 
L 107.855998 291.672 
L 114.604983 291.294 
L 127.197281 290.664 
L 132.242139 290.16 
L 141.512196 288.774 
L 168.793819 284.49 
L 174.576882 283.608 
L 178.957605 283.23 
L 199.814599 281.844 
L 205.041651 281.088 
L 222.689441 278.19 
L 241.423279 275.04 
L 248.188878 274.41 
L 255.573983 273.654 
L 259.463853 273.024 
L 268.228592 271.26 
L 280.34184 268.614 
L 289.60099 266.598 
L 299.266707 264.96 
L 303.539107 263.826 
L 311.601362 261.432 
L 325.231416 257.274 
L 327.932123 256.392 
L 331.602385 254.88 
L 336.566403 252.612 
L 345.99458 247.95 
L 348.699991 246.186 
L 351.968768 243.792 
L 356.808082 239.886 
L 358.416514 238.248 
L 360.581548 235.728 
L 363.156451 232.326 
L 364.294433 230.562 
L 365.780729 227.79 
L 367.276095 224.514 
L 368.252091 221.994 
L 369.303244 218.592 
L 370.343796 214.434 
L 371.11887 210.276 
L 371.828623 205.236 
L 372.394335 199.44 
L 372.827133 192.762 
L 373.169366 183.942 
L 373.404695 171.72 
L 373.537736 151.812 
L 373.58055 101.916 
L 373.581774 55.8 
L 373.581774 55.8 
" style="fill:none;stroke:#b3aaf2;stroke-linecap:square;stroke-width:1.5;"/>
   </g>
   <g id="line2d_28">
    <path clip-path="url(#p8795349abd)" d="M 69.218182 307.674 
L 69.324533 301.374 
L 69.577701 298.476 
L 69.939781 297.09 
L 70.518577 295.704 
L 71.396832 294.192 
L 72.530952 292.68 
L 73.700603 291.42 
L 74.433221 290.916 
L 76.252891 290.034 
L 80.472335 288.27 
L 85.902884 286.254 
L 92.314246 284.112 
L 94.526985 283.482 
L 97.399538 282.978 
L 104.637357 281.844 
L 116.62 279.324 
L 135.976459 275.418 
L 139.34054 274.914 
L 154.080337 273.024 
L 175.552075 269.244 
L 190.979683 266.598 
L 205.611052 264.582 
L 220.075358 261.936 
L 243.357575 257.652 
L 249.993027 256.518 
L 257.786289 254.88 
L 270.566999 251.982 
L 283.280031 249.084 
L 288.081793 247.95 
L 295.380446 245.934 
L 304.169115 243.288 
L 317.791219 238.878 
L 323.858674 236.484 
L 329.655928 233.964 
L 336.405631 230.814 
L 340.466854 228.546 
L 344.519871 226.026 
L 349.121297 222.876 
L 351.768701 220.734 
L 354.542886 218.214 
L 357.510795 215.19 
L 359.419511 212.922 
L 361.4508 210.15 
L 363.382194 207.126 
L 364.821149 204.48 
L 366.274799 201.33 
L 367.645976 197.802 
L 368.757987 194.274 
L 369.790509 190.242 
L 370.628356 186.084 
L 371.391558 181.17 
L 372.02218 175.626 
L 372.551219 168.948 
L 372.965403 160.758 
L 373.269832 150.048 
L 373.466199 134.676 
L 373.563219 106.956 
L 373.581237 55.8 
L 373.581237 55.8 
" style="fill:none;stroke:#b3aaf2;stroke-linecap:square;stroke-width:1.5;"/>
   </g>
   <g id="line2d_29">
    <path clip-path="url(#p8795349abd)" d="M 69.218182 307.674 
L 69.32709 294.444 
L 69.594112 291.042 
L 69.934996 289.152 
L 70.492318 287.388 
L 71.300207 285.624 
L 72.372857 283.86 
L 73.26701 282.726 
L 74.404527 281.718 
L 76.474544 280.206 
L 79.088092 278.568 
L 82.321613 276.804 
L 85.771161 275.166 
L 87.952525 274.41 
L 109.029764 267.984 
L 114.460864 266.598 
L 145.269581 259.92 
L 153.945054 258.156 
L 167.620776 255.636 
L 201.564235 248.958 
L 209.976539 247.32 
L 228.501417 243.414 
L 256.450483 237.24 
L 269.512846 233.964 
L 283.822371 230.184 
L 293.474441 227.286 
L 304.365592 223.758 
L 310.024289 221.742 
L 316.792258 219.096 
L 323.581457 216.198 
L 328.46531 213.93 
L 333.321887 211.41 
L 337.941708 208.764 
L 342.154744 206.118 
L 345.533846 203.724 
L 348.889338 201.078 
L 352.046662 198.306 
L 354.576693 195.786 
L 357.040909 193.014 
L 359.316645 190.116 
L 361.211987 187.344 
L 363.009598 184.32 
L 364.62905 181.17 
L 366.059092 177.894 
L 367.359437 174.366 
L 368.516228 170.586 
L 369.551306 166.428 
L 370.450576 161.892 
L 371.24097 156.726 
L 371.899449 150.93 
L 372.454524 144 
L 372.889398 135.684 
L 373.21591 124.974 
L 373.434514 109.98 
L 373.551317 84.654 
L 373.57698 55.8 
L 373.57698 55.8 
" style="fill:none;stroke:#b3aaf2;stroke-linecap:square;stroke-width:1.5;"/>
   </g>
   <g id="line2d_30">
    <path clip-path="url(#p8795349abd)" d="M 69.218182 307.674 
L 69.327416 286.758 
L 69.593937 282.852 
L 69.952 280.458 
L 70.499303 278.316 
L 71.245542 276.3 
L 72.11713 274.536 
L 73.063868 273.15 
L 74.463509 271.512 
L 76.283489 269.748 
L 78.434826 267.984 
L 80.611843 266.472 
L 83.333999 264.96 
L 87.354218 262.944 
L 91.879193 260.928 
L 97.242723 258.786 
L 100.97201 257.526 
L 115.296397 253.116 
L 125.224604 250.344 
L 132.428206 248.58 
L 161.446383 241.65 
L 209.50304 230.94 
L 228.32308 226.53 
L 249.884102 221.238 
L 263.071871 217.71 
L 276.808331 213.804 
L 286.900563 210.654 
L 296.645853 207.378 
L 303.913014 204.732 
L 311.215441 201.834 
L 318.223742 198.81 
L 323.815272 196.164 
L 329.150483 193.392 
L 334.232517 190.494 
L 338.429714 187.848 
L 342.399698 185.076 
L 345.985821 182.304 
L 349.065457 179.658 
L 351.956134 176.886 
L 354.655078 173.988 
L 357.04686 171.09 
L 359.245065 168.066 
L 361.252341 164.916 
L 362.996861 161.766 
L 364.623292 158.364 
L 366.064023 154.836 
L 367.364979 151.056 
L 368.519374 147.024 
L 369.548995 142.614 
L 370.462518 137.7 
L 371.240787 132.282 
L 371.901713 126.108 
L 372.454148 118.8 
L 372.890431 109.98 
L 373.217533 98.64 
L 373.436193 82.764 
L 373.552042 56.052 
L 373.552491 55.8 
L 373.552491 55.8 
" style="fill:none;stroke:#b3aaf2;stroke-linecap:square;stroke-width:1.5;"/>
   </g>
   <g id="patch_3">
    <path d="M 54 320.4 
L 54 43.2 
" style="fill:none;stroke:#000000;stroke-linecap:square;stroke-linejoin:miter;stroke-width:0.8;"/>
   </g>
   <g id="patch_4">
    <path d="M 388.8 320.4 
L 388.8 43.2 
" style="fill:none;stroke:#000000;stroke-linecap:square;stroke-linejoin:miter;stroke-width:0.8;"/>
   </g>
   <g id="patch_5">
    <path d="M 54 320.4 
L 388.8 320.4 
" style="fill:none;stroke:#000000;stroke-linecap:square;stroke-linejoin:miter;stroke-width:0.8;"/>
   </g>
   <g id="patch_6">
    <path d="M 54 43.2 
L 388.8 43.2 
" style="fill:none;stroke:#000000;stroke-linecap:square;stroke-linejoin:miter;stroke-width:0.8;"/>
   </g>
   <g id="text_16">
    <!-- 50% -->
    <defs>
     <path d="M 27.703125 -1.40625 
C 41.203125 -1.40625 53.5 8.09375 53.5 24.59375 
C 53.5 40.703125 43.203125 48 30.703125 48 
C 27.296875 48 24.703125 47.40625 21.796875 46 
L 23.203125 61.703125 
L 50.09375 61.703125 
L 50.09375 74.09375 
L 10.5 74.09375 
L 8.5 38.09375 
L 15.203125 33.796875 
C 19.59375 36.59375 22 37.59375 26.296875 37.59375 
C 33.703125 37.59375 38.796875 32.796875 38.796875 24.203125 
C 38.796875 15.5 33.40625 10.59375 25.703125 10.59375 
C 18.90625 10.59375 13.59375 14 9.40625 18.09375 
L 2.59375 8.703125 
C 8.203125 3.203125 15.90625 -1.40625 27.703125 -1.40625 
z
" id="SourceHanSansSC-Bold-53"/>
     <path d="M 29.5 -1.40625 
C 44.59375 -1.40625 54.59375 11.796875 54.59375 37.40625 
C 54.59375 62.796875 44.59375 75.40625 29.5 75.40625 
C 14.40625 75.40625 4.40625 62.90625 4.40625 37.40625 
C 4.40625 11.796875 14.40625 -1.40625 29.5 -1.40625 
z
M 29.5 10.09375 
C 23.09375 10.09375 18.296875 16.5 18.296875 37.40625 
C 18.296875 58 23.09375 64.09375 29.5 64.09375 
C 35.90625 64.09375 40.59375 58 40.59375 37.40625 
C 40.59375 16.5 35.90625 10.09375 29.5 10.09375 
z
" id="SourceHanSansSC-Bold-48"/>
     <path d="M 21.203125 28.5 
C 31.796875 28.5 39.296875 37.203125 39.296875 52.09375 
C 39.296875 66.90625 31.796875 75.40625 21.203125 75.40625 
C 10.59375 75.40625 3.203125 66.90625 3.203125 52.09375 
C 3.203125 37.203125 10.59375 28.5 21.203125 28.5 
z
M 21.203125 36.796875 
C 16.90625 36.796875 13.5 41.203125 13.5 52.09375 
C 13.5 62.90625 16.90625 67.09375 21.203125 67.09375 
C 25.5 67.09375 28.90625 62.90625 28.90625 52.09375 
C 28.90625 41.203125 25.5 36.796875 21.203125 36.796875 
z
M 23.59375 -1.40625 
L 32.40625 -1.40625 
L 72.59375 75.40625 
L 63.90625 75.40625 
z
M 75.09375 -1.40625 
C 85.59375 -1.40625 93.09375 7.296875 93.09375 22.203125 
C 93.09375 37 85.59375 45.59375 75.09375 45.59375 
C 64.5 45.59375 57 37 57 22.203125 
C 57 7.296875 64.5 -1.40625 75.09375 -1.40625 
z
M 75.09375 7 
C 70.703125 7 67.40625 11.40625 67.40625 22.203125 
C 67.40625 33.203125 70.703125 37.203125 75.09375 37.203125 
C 79.40625 37.203125 82.703125 33.203125 82.703125 22.203125 
C 82.703125 11.40625 79.40625 7 75.09375 7 
z
" id="SourceHanSansSC-Bold-37"/>
    </defs>
    <g style="fill:#d3d3d3;" transform="translate(197.05091 103.05)scale(0.1 -0.1)">
     <use xlink:href="#SourceHanSansSC-Bold-53"/>
     <use x="58.999985" xlink:href="#SourceHanSansSC-Bold-48"/>
     <use x="117.999969" xlink:href="#SourceHanSansSC-Bold-37"/>
    </g>
   </g>
   <g id="text_17">
    <!-- 90% -->
    <defs>
     <path d="M 25.5 -1.40625 
C 40.203125 -1.40625 53.90625 10.703125 53.90625 38.703125 
C 53.90625 64.40625 41.40625 75.40625 27.296875 75.40625 
C 14.59375 75.40625 4 65.90625 4 50.703125 
C 4 35 12.796875 27.40625 25.203125 27.40625 
C 30.203125 27.40625 36.5 30.40625 40.40625 35.40625 
C 39.703125 16.90625 32.90625 10.59375 24.703125 10.59375 
C 20.296875 10.59375 15.703125 12.90625 13 15.90625 
L 5.203125 7 
C 9.59375 2.5 16.296875 -1.40625 25.5 -1.40625 
z
M 40.203125 45.90625 
C 36.59375 40.09375 32 37.90625 28 37.90625 
C 21.59375 37.90625 17.5 42 17.5 50.703125 
C 17.5 59.796875 22 64.296875 27.5 64.296875 
C 33.796875 64.296875 38.90625 59.296875 40.203125 45.90625 
z
" id="SourceHanSansSC-Bold-57"/>
    </defs>
    <g style="fill:#d3d3d3;" transform="translate(318.796365 103.05)scale(0.1 -0.1)">
     <use xlink:href="#SourceHanSansSC-Bold-57"/>
     <use x="58.999985" xlink:href="#SourceHanSansSC-Bold-48"/>
     <use x="117.999969" xlink:href="#SourceHanSansSC-Bold-37"/>
    </g>
   </g>
   <g id="text_18">
    <!-- 99% -->
    <g style="fill:#d3d3d3;" transform="translate(346.189092 103.05)scale(0.1 -0.1)">
     <use xlink:href="#SourceHanSansSC-Bold-57"/>
     <use x="58.999985" xlink:href="#SourceHanSansSC-Bold-57"/>
     <use x="117.999969" xlink:href="#SourceHanSansSC-Bold-37"/>
    </g>
   </g>
   <g id="text_19">
    <!-- 104 -->
    <defs>
     <path d="M 8.203125 0 
L 52.703125 0 
L 52.703125 12 
L 38.796875 12 
L 38.796875 74.09375 
L 27.90625 74.09375 
C 23.203125 71.09375 18.203125 69.203125 10.703125 67.90625 
L 10.703125 58.703125 
L 24.203125 58.703125 
L 24.203125 12 
L 8.203125 12 
z
" id="SourceHanSansSC-Bold-49"/>
     <path d="M 33.703125 0 
L 47.40625 0 
L 47.40625 19.203125 
L 56.203125 19.203125 
L 56.203125 30.40625 
L 47.40625 30.40625 
L 47.40625 74.09375 
L 29.703125 74.09375 
L 2.09375 29.203125 
L 2.09375 19.203125 
L 33.703125 19.203125 
z
M 33.703125 30.40625 
L 16.40625 30.40625 
L 27.90625 48.796875 
C 30 52.796875 32 56.90625 33.796875 60.90625 
L 34.296875 60.90625 
C 34 56.5 33.703125 49.796875 33.703125 45.5 
z
" id="SourceHanSansSC-Bold-52"/>
    </defs>
    <g style="fill:#262433;" transform="translate(203.138183 294.696)scale(0.1 -0.1)">
     <use xlink:href="#SourceHanSansSC-Bold-49"/>
     <use x="58.999985" xlink:href="#SourceHanSansSC-Bold-48"/>
     <use x="117.999969" xlink:href="#SourceHanSansSC-Bold-52"/>
    </g>
   </g>
   <g id="text_20">
    <!-- 1精 -->
    <defs>
     <path d="M 31.09375 79.296875 
C 30.203125 73.203125 28.5 65 26.796875 58.90625 
L 26.796875 84.5 
L 16.203125 84.5 
L 16.203125 51.59375 
L 3.5 51.59375 
L 3.5 40.40625 
L 14.5 40.40625 
C 11.5 31.296875 6.703125 20.59375 1.796875 14.40625 
C 3.59375 11 6.296875 5.59375 7.40625 1.90625 
C 10.5 6.703125 13.59375 13.296875 16.203125 20.40625 
L 16.203125 -8.59375 
L 26.796875 -8.59375 
L 26.796875 25.5 
C 29.203125 20.90625 31.5 16.09375 32.703125 12.90625 
L 40.296875 22.09375 
C 38.296875 25.09375 29.59375 36.90625 27.09375 39.59375 
L 26.796875 39.40625 
L 26.796875 40.40625 
L 36.40625 40.40625 
L 36.40625 51.59375 
L 26.796875 51.59375 
L 26.796875 56.09375 
L 33.09375 54.203125 
C 35.5 60 38.203125 69.40625 40.59375 77.296875 
z
M 3.40625 76.796875 
C 5.703125 69.59375 7.703125 60.09375 7.90625 54 
L 16.203125 56.09375 
C 15.703125 62.203125 13.796875 71.59375 11.203125 78.703125 
z
M 61.296875 84.796875 
L 61.296875 77.59375 
L 41.796875 77.59375 
L 41.796875 69.09375 
L 61.296875 69.09375 
L 61.296875 65.09375 
L 44.296875 65.09375 
L 44.296875 57.09375 
L 61.296875 57.09375 
L 61.296875 52.703125 
L 39 52.703125 
L 39 44.09375 
L 96.59375 44.09375 
L 96.59375 52.703125 
L 72.59375 52.703125 
L 72.59375 57.09375 
L 91.796875 57.09375 
L 91.796875 65.09375 
L 72.59375 65.09375 
L 72.59375 69.09375 
L 94 69.09375 
L 94 77.59375 
L 72.59375 77.59375 
L 72.59375 84.796875 
z
M 79.5 31.5 
L 79.5 26.703125 
L 55.40625 26.703125 
L 55.40625 31.5 
z
M 44.296875 40 
L 44.296875 -9 
L 55.40625 -9 
L 55.40625 6.203125 
L 79.5 6.203125 
L 79.5 2 
C 79.5 0.90625 79.203125 0.5 77.90625 0.5 
C 76.59375 0.40625 72.40625 0.40625 68.703125 0.59375 
C 70 -2.09375 71.40625 -6.09375 71.796875 -8.90625 
C 78.203125 -9 82.90625 -8.796875 86.40625 -7.296875 
C 89.796875 -5.796875 90.796875 -3.09375 90.796875 1.796875 
L 90.796875 40 
z
M 55.40625 18.796875 
L 79.5 18.796875 
L 79.5 14 
L 55.40625 14 
z
" id="SourceHanSansSC-Bold-31934"/>
    </defs>
    <g style="fill:#847db3;" transform="translate(184.876364 294.696)scale(0.1 -0.1)">
     <use xlink:href="#SourceHanSansSC-Bold-49"/>
     <use x="58.999985" xlink:href="#SourceHanSansSC-Bold-31934"/>
    </g>
   </g>
   <g id="text_21">
    <!-- 268 -->
    <defs>
     <path d="M 4.296875 0 
L 53.90625 0 
L 53.90625 12.40625 
L 37.90625 12.40625 
C 34.40625 12.40625 29.5 12 25.703125 11.5 
C 39.203125 24.796875 50.40625 39.203125 50.40625 52.59375 
C 50.40625 66.40625 41.09375 75.40625 27.09375 75.40625 
C 17 75.40625 10.40625 71.5 3.5 64.09375 
L 11.703125 56.203125 
C 15.40625 60.296875 19.796875 63.796875 25.203125 63.796875 
C 32.296875 63.796875 36.296875 59.203125 36.296875 51.90625 
C 36.296875 40.40625 24.5 26.5 4.296875 8.5 
z
" id="SourceHanSansSC-Bold-50"/>
     <path d="M 31.59375 -1.40625 
C 44.203125 -1.40625 54.796875 8.203125 54.796875 23.40625 
C 54.796875 39.203125 45.90625 46.59375 33.5 46.59375 
C 28.796875 46.59375 22.5 43.796875 18.40625 38.796875 
C 19.09375 57.203125 26 63.59375 34.59375 63.59375 
C 38.796875 63.59375 43.296875 61.09375 45.90625 58.203125 
L 53.703125 67 
C 49.296875 71.59375 42.703125 75.40625 33.59375 75.40625 
C 18.703125 75.40625 5 63.59375 5 36 
C 5 10 17.59375 -1.40625 31.59375 -1.40625 
z
M 18.703125 28.40625 
C 22.40625 34 26.90625 36.203125 30.796875 36.203125 
C 37.203125 36.203125 41.40625 32.203125 41.40625 23.40625 
C 41.40625 14.40625 36.90625 9.703125 31.296875 9.703125 
C 25.09375 9.703125 20.09375 14.90625 18.703125 28.40625 
z
" id="SourceHanSansSC-Bold-54"/>
     <path d="M 29.5 -1.40625 
C 44.40625 -1.40625 54.40625 7.203125 54.40625 18.40625 
C 54.40625 28.5 48.796875 34.5 41.90625 38.203125 
L 41.90625 38.703125 
C 46.703125 42.203125 51.40625 48.296875 51.40625 55.59375 
C 51.40625 67.40625 43 75.296875 29.90625 75.296875 
C 17 75.296875 7.59375 67.703125 7.59375 55.703125 
C 7.59375 47.90625 11.703125 42.296875 17.40625 38.203125 
L 17.40625 37.703125 
C 10.5 34.09375 4.703125 27.90625 4.703125 18.40625 
C 4.703125 6.796875 15.203125 -1.40625 29.5 -1.40625 
z
M 34.09375 42.296875 
C 26.40625 45.40625 20.59375 48.796875 20.59375 55.703125 
C 20.59375 61.703125 24.59375 65 29.59375 65 
C 35.796875 65 39.40625 60.703125 39.40625 54.703125 
C 39.40625 50.296875 37.703125 46 34.09375 42.296875 
z
M 29.796875 9 
C 22.90625 9 17.40625 13.296875 17.40625 20 
C 17.40625 25.59375 20.203125 30.5 24.203125 33.796875 
C 33.796875 29.703125 40.703125 26.59375 40.703125 18.90625 
C 40.703125 12.5 36.09375 9 29.796875 9 
z
" id="SourceHanSansSC-Bold-56"/>
    </defs>
    <g style="fill:#262433;" transform="translate(324.883638 274.032)scale(0.1 -0.1)">
     <use xlink:href="#SourceHanSansSC-Bold-50"/>
     <use x="58.999985" xlink:href="#SourceHanSansSC-Bold-54"/>
     <use x="117.999969" xlink:href="#SourceHanSansSC-Bold-56"/>
    </g>
   </g>
   <g id="text_22">
    <!-- 509 -->
    <g style="fill:#262433;" transform="translate(352.276365 243.666)scale(0.1 -0.1)">
     <use xlink:href="#SourceHanSansSC-Bold-53"/>
     <use x="58.999985" xlink:href="#SourceHanSansSC-Bold-48"/>
     <use x="117.999969" xlink:href="#SourceHanSansSC-Bold-57"/>
    </g>
   </g>
   <g id="text_23">
    <!-- 234 -->
    <defs>
     <path d="M 27.296875 -1.40625 
C 41.5 -1.40625 53.40625 6.40625 53.40625 20 
C 53.40625 29.796875 47 36 38.703125 38.296875 
L 38.703125 38.796875 
C 46.5 41.90625 51 47.703125 51 55.703125 
C 51 68.40625 41.296875 75.40625 27 75.40625 
C 18.296875 75.40625 11.203125 71.90625 4.796875 66.40625 
L 12.40625 57.296875 
C 16.703125 61.40625 21 63.796875 26.296875 63.796875 
C 32.59375 63.796875 36.203125 60.40625 36.203125 54.59375 
C 36.203125 47.90625 31.796875 43.296875 18.296875 43.296875 
L 18.296875 32.703125 
C 34.296875 32.703125 38.59375 28.203125 38.59375 20.90625 
C 38.59375 14.296875 33.5 10.59375 26 10.59375 
C 19.203125 10.59375 13.90625 13.90625 9.5 18.203125 
L 2.59375 8.90625 
C 7.796875 3 15.703125 -1.40625 27.296875 -1.40625 
z
" id="SourceHanSansSC-Bold-51"/>
    </defs>
    <g style="fill:#262433;" transform="translate(203.138183 278.316)scale(0.1 -0.1)">
     <use xlink:href="#SourceHanSansSC-Bold-50"/>
     <use x="58.999985" xlink:href="#SourceHanSansSC-Bold-51"/>
     <use x="117.999969" xlink:href="#SourceHanSansSC-Bold-52"/>
    </g>
   </g>
   <g id="text_24">
    <!-- 2精 -->
    <g style="fill:#847db3;" transform="translate(184.876364 278.316)scale(0.1 -0.1)">
     <use xlink:href="#SourceHanSansSC-Bold-50"/>
     <use x="58.999985" xlink:href="#SourceHanSansSC-Bold-31934"/>
    </g>
   </g>
   <g id="text_25">
    <!-- 464 -->
    <g style="fill:#262433;" transform="translate(324.883638 249.336)scale(0.1 -0.1)">
     <use xlink:href="#SourceHanSansSC-Bold-52"/>
     <use x="58.999985" xlink:href="#SourceHanSansSC-Bold-54"/>
     <use x="117.999969" xlink:href="#SourceHanSansSC-Bold-52"/>
    </g>
   </g>
   <g id="text_26">
    <!-- 749 -->
    <defs>
     <path d="M 18.59375 0 
L 33.40625 0 
C 34.703125 28.90625 37 44.09375 54.203125 65.09375 
L 54.203125 74.09375 
L 5 74.09375 
L 5 61.703125 
L 38.296875 61.703125 
C 24.203125 42.09375 19.90625 25.703125 18.59375 0 
z
" id="SourceHanSansSC-Bold-55"/>
    </defs>
    <g style="fill:#262433;" transform="translate(352.276365 213.426)scale(0.1 -0.1)">
     <use xlink:href="#SourceHanSansSC-Bold-55"/>
     <use x="58.999985" xlink:href="#SourceHanSansSC-Bold-52"/>
     <use x="117.999969" xlink:href="#SourceHanSansSC-Bold-57"/>
    </g>
   </g>
   <g id="text_27">
    <!-- 366 -->
    <g style="fill:#262433;" transform="translate(203.138183 261.684)scale(0.1 -0.1)">
     <use xlink:href="#SourceHanSansSC-Bold-51"/>
     <use x="58.999985" xlink:href="#SourceHanSansSC-Bold-54"/>
     <use x="117.999969" xlink:href="#SourceHanSansSC-Bold-54"/>
    </g>
   </g>
   <g id="text_28">
    <!-- 3精 -->
    <g style="fill:#847db3;" transform="translate(184.876364 261.684)scale(0.1 -0.1)">
     <use xlink:href="#SourceHanSansSC-Bold-51"/>
     <use x="58.999985" xlink:href="#SourceHanSansSC-Bold-31934"/>
    </g>
   </g>
   <g id="text_29">
    <!-- 642 -->
    <g style="fill:#262433;" transform="translate(324.883638 226.908)scale(0.1 -0.1)">
     <use xlink:href="#SourceHanSansSC-Bold-54"/>
     <use x="58.999985" xlink:href="#SourceHanSansSC-Bold-52"/>
     <use x="117.999969" xlink:href="#SourceHanSansSC-Bold-50"/>
    </g>
   </g>
   <g id="text_30">
    <!-- 963 -->
    <g style="fill:#262433;" transform="translate(352.276365 186.462)scale(0.1 -0.1)">
     <use xlink:href="#SourceHanSansSC-Bold-57"/>
     <use x="58.999985" xlink:href="#SourceHanSansSC-Bold-54"/>
     <use x="117.999969" xlink:href="#SourceHanSansSC-Bold-51"/>
    </g>
   </g>
   <g id="text_31">
    <!-- 499 -->
    <g style="fill:#262433;" transform="translate(203.138183 244.926)scale(0.1 -0.1)">
     <use xlink:href="#SourceHanSansSC-Bold-52"/>
     <use x="58.999985" xlink:href="#SourceHanSansSC-Bold-57"/>
     <use x="117.999969" xlink:href="#SourceHanSansSC-Bold-57"/>
    </g>
   </g>
   <g id="text_32">
    <!-- 4精 -->
    <g style="fill:#847db3;" transform="translate(184.876364 244.926)scale(0.1 -0.1)">
     <use xlink:href="#SourceHanSansSC-Bold-52"/>
     <use x="58.999985" xlink:href="#SourceHanSansSC-Bold-31934"/>
    </g>
   </g>
   <g id="text_33">
    <!-- 813 -->
    <g style="fill:#262433;" transform="translate(324.883638 205.362)scale(0.1 -0.1)">
     <use xlink:href="#SourceHanSansSC-Bold-56"/>
     <use x="58.999985" xlink:href="#SourceHanSansSC-Bold-49"/>
     <use x="117.999969" xlink:href="#SourceHanSansSC-Bold-51"/>
    </g>
   </g>
   <g id="text_34">
    <!-- 1163 -->
    <g style="fill:#262433;" transform="translate(352.276365 161.262)scale(0.1 -0.1)">
     <use xlink:href="#SourceHanSansSC-Bold-49"/>
     <use x="58.999985" xlink:href="#SourceHanSansSC-Bold-49"/>
     <use x="117.999969" xlink:href="#SourceHanSansSC-Bold-54"/>
     <use x="176.999954" xlink:href="#SourceHanSansSC-Bold-51"/>
    </g>
   </g>
   <g id="text_35">
    <!-- 632 -->
    <g style="fill:#262433;" transform="translate(203.138183 228.168)scale(0.1 -0.1)">
     <use xlink:href="#SourceHanSansSC-Bold-54"/>
     <use x="58.999985" xlink:href="#SourceHanSansSC-Bold-51"/>
     <use x="117.999969" xlink:href="#SourceHanSansSC-Bold-50"/>
    </g>
   </g>
   <g id="text_36">
    <!-- 5精 -->
    <g style="fill:#847db3;" transform="translate(184.876364 228.168)scale(0.1 -0.1)">
     <use xlink:href="#SourceHanSansSC-Bold-53"/>
     <use x="58.999985" xlink:href="#SourceHanSansSC-Bold-31934"/>
    </g>
   </g>
   <g id="text_37">
    <!-- 979 -->
    <g style="fill:#262433;" transform="translate(324.883638 184.446)scale(0.1 -0.1)">
     <use xlink:href="#SourceHanSansSC-Bold-57"/>
     <use x="58.999985" xlink:href="#SourceHanSansSC-Bold-55"/>
     <use x="117.999969" xlink:href="#SourceHanSansSC-Bold-57"/>
    </g>
   </g>
   <g id="text_38">
    <!-- 1354 -->
    <g style="fill:#262433;" transform="translate(352.276365 137.196)scale(0.1 -0.1)">
     <use xlink:href="#SourceHanSansSC-Bold-49"/>
     <use x="58.999985" xlink:href="#SourceHanSansSC-Bold-51"/>
     <use x="117.999969" xlink:href="#SourceHanSansSC-Bold-53"/>
     <use x="176.999954" xlink:href="#SourceHanSansSC-Bold-52"/>
    </g>
   </g>
   <g id="text_39">
    <!-- @一棵平衡树 -->
    <defs>
     <path d="M 47.796875 -19 
C 55.796875 -19 63 -17.296875 69.796875 -13.5 
L 66.5 -5.40625 
C 61.703125 -7.90625 55.09375 -9.90625 48.90625 -9.90625 
C 30.796875 -9.90625 15.59375 1.296875 15.59375 23.59375 
C 15.59375 49.40625 34.90625 66.203125 54.5 66.203125 
C 76.296875 66.203125 85.703125 52 85.703125 35.09375 
C 85.703125 22.09375 78.5 13.90625 71.59375 13.90625 
C 66.203125 13.90625 64.40625 17.296875 66.203125 24.59375 
L 71.09375 49 
L 62.09375 49 
L 60.5 44.296875 
L 60.296875 44.296875 
C 58.296875 48.203125 55.296875 49.90625 51.5 49.90625 
C 38.40625 49.90625 28.90625 35.90625 28.90625 22.5 
C 28.90625 12.09375 34.90625 5.703125 43.40625 5.703125 
C 48.203125 5.703125 53.90625 8.90625 57.203125 13.296875 
L 57.5 13.296875 
C 58.5 7.703125 63.703125 4.703125 70.09375 4.703125 
C 81.59375 4.703125 95 15.09375 95 35.59375 
C 95 58.90625 79.796875 75.203125 55.703125 75.203125 
C 28.59375 75.203125 5.5 54.59375 5.5 23.203125 
C 5.5 -5.09375 25.203125 -19 47.796875 -19 
z
M 46.59375 15 
C 42.59375 15 40 17.703125 40 23.296875 
C 40 30.59375 44.59375 40.296875 51.90625 40.296875 
C 54.5 40.296875 56.296875 39.203125 57.796875 36.59375 
L 54.90625 20.59375 
C 51.703125 16.59375 49.203125 15 46.59375 15 
z
" id="SourceHanSansSC-Bold-64"/>
     <path d="M 3.796875 45.5 
L 3.796875 32.40625 
L 96.40625 32.40625 
L 96.40625 45.5 
z
" id="SourceHanSansSC-Bold-19968"/>
     <path d="M 17 85 
L 17 66.296875 
L 4 66.296875 
L 4 55.203125 
L 16.296875 55.203125 
C 13.40625 43.09375 8 29 1.796875 21.203125 
C 3.796875 18 6.5 12.5 7.59375 9.09375 
C 11.09375 14.296875 14.296875 21.796875 17 30.09375 
L 17 -8.90625 
L 28.203125 -8.90625 
L 28.203125 36.5 
C 30.09375 32.5 31.796875 28.40625 32.796875 25.59375 
L 37.59375 31.203125 
L 37.59375 23 
L 55.59375 23 
C 50.09375 15 42 7.5 33.796875 3.40625 
C 36.296875 1.296875 39.796875 -2.90625 41.59375 -5.59375 
C 48.59375 -1.09375 55.40625 5.796875 60.796875 13.703125 
L 60.796875 -8.90625 
L 72.59375 -8.90625 
L 72.59375 15.09375 
C 77.703125 7.203125 84.09375 -0.09375 90.203125 -4.796875 
C 92.09375 -1.796875 95.90625 2.296875 98.40625 4.40625 
C 91.296875 8.59375 83.796875 15.703125 78.40625 23 
L 96.5 23 
L 96.5 34 
L 72.59375 34 
L 72.59375 40 
L 92 40 
L 92 80.90625 
L 41.296875 80.90625 
L 41.296875 40 
L 60.796875 40 
L 60.796875 34 
L 39.59375 34 
C 37.796875 37.203125 30.90625 48 28.203125 51.703125 
L 28.203125 55.203125 
L 37.40625 55.203125 
L 37.40625 66.296875 
L 28.203125 66.296875 
L 28.203125 85 
z
M 52.09375 55.90625 
L 61.203125 55.90625 
L 61.203125 49.40625 
L 52.09375 49.40625 
z
M 72.09375 55.90625 
L 80.703125 55.90625 
L 80.703125 49.40625 
L 72.09375 49.40625 
z
M 52.09375 71.5 
L 61.203125 71.5 
L 61.203125 65.09375 
L 52.09375 65.09375 
z
M 72.09375 71.5 
L 80.703125 71.5 
L 80.703125 65.09375 
L 72.09375 65.09375 
z
" id="SourceHanSansSC-Bold-26869"/>
     <path d="M 15.90625 60.40625 
C 19.203125 53.703125 22.296875 44.90625 23.296875 39.5 
L 35 43.203125 
C 33.796875 48.796875 30.296875 57.203125 26.90625 63.703125 
z
M 72.90625 64 
C 71 57.40625 67.40625 48.59375 64.203125 42.796875 
L 74.703125 39.703125 
C 78.09375 44.90625 82.203125 53 85.796875 60.703125 
z
M 4.59375 36.40625 
L 4.59375 24.296875 
L 43.703125 24.296875 
L 43.703125 -8.90625 
L 56.203125 -8.90625 
L 56.203125 24.296875 
L 95.703125 24.296875 
L 95.703125 36.40625 
L 56.203125 36.40625 
L 56.203125 66.90625 
L 89.90625 66.90625 
L 89.90625 78.796875 
L 9.90625 78.796875 
L 9.90625 66.90625 
L 43.703125 66.90625 
L 43.703125 36.40625 
z
" id="SourceHanSansSC-Bold-24179"/>
     <path d="M 18.5 85 
C 15.203125 78.703125 8.5 70.703125 2.40625 65.703125 
C 4.203125 63.5 7 59 8.40625 56.5 
C 15.796875 62.703125 23.90625 72.203125 29.296875 81 
z
M 73.5 78.703125 
L 73.5 68 
L 94.59375 68 
L 94.59375 78.703125 
z
M 45.203125 25.703125 
L 44.90625 21.796875 
L 28.796875 21.796875 
L 28.796875 12.296875 
L 42.796875 12.296875 
C 40.59375 6.59375 36.203125 2.40625 27.40625 -0.40625 
C 29.5 -2.296875 32.203125 -6 33.203125 -8.5 
C 42.5 -5.203125 47.796875 -0.59375 51 5.59375 
C 55.5 1.90625 60 -2.40625 62.296875 -5.5 
L 69.5 1.703125 
C 67 4.796875 62.40625 8.90625 57.90625 12.296875 
L 71.203125 12.296875 
L 71.203125 21.796875 
L 55.203125 21.796875 
L 55.5 25.703125 
z
M 43.90625 68.09375 
L 52.90625 68.09375 
C 52 65.796875 51 63.5 50.09375 61.59375 
L 40.40625 61.59375 
C 41.703125 63.703125 42.90625 65.90625 43.90625 68.09375 
z
M 20.09375 63.90625 
C 15.703125 54 8.5 43.796875 1.59375 37.09375 
C 3.59375 34.59375 6.90625 28.796875 8 26.203125 
C 9.703125 28 11.40625 29.90625 13.09375 32 
L 13.09375 -9 
L 23.90625 -9 
L 23.90625 47.796875 
C 25.296875 50.203125 26.703125 52.703125 28 55.203125 
C 29.203125 54.296875 30.40625 53.203125 31.40625 52.203125 
L 31.40625 27.09375 
L 69.5 27.09375 
L 69.5 61.59375 
L 60.59375 61.59375 
C 62.703125 65.40625 64.796875 69.5 66.296875 73.09375 
L 59.296875 77.59375 
L 57.703125 77.09375 
L 47.703125 77.09375 
L 49.59375 82.703125 
L 38.90625 84.40625 
C 36.90625 77.09375 33.203125 68.5 27.5 61.296875 
z
M 40 40.59375 
L 46.203125 40.59375 
L 46.203125 35.09375 
L 40 35.09375 
z
M 54.59375 40.59375 
L 60.40625 40.59375 
L 60.40625 35.09375 
L 54.59375 35.09375 
z
M 40 53.5 
L 46.203125 53.5 
L 46.203125 48.203125 
L 40 48.203125 
z
M 54.59375 53.5 
L 60.40625 53.5 
L 60.40625 48.203125 
L 54.59375 48.203125 
z
M 71.59375 54 
L 71.59375 43.09375 
L 79.5 43.09375 
L 79.5 3.5 
C 79.5 2.40625 79.203125 2.09375 78.09375 2.09375 
C 77 2.09375 73.796875 2.09375 70.59375 2.203125 
C 72 -1 73.203125 -5.5 73.40625 -8.59375 
C 79.09375 -8.59375 83.203125 -8.40625 86.296875 -6.59375 
C 89.40625 -4.796875 90.09375 -1.796875 90.09375 3.296875 
L 90.09375 43.09375 
L 96.796875 43.09375 
L 96.796875 54 
z
" id="SourceHanSansSC-Bold-34913"/>
     <path d="M 31.703125 50.59375 
C 35.40625 44.796875 39.40625 38.09375 43.296875 31.5 
C 39.59375 19.90625 34.703125 10.203125 28.796875 4.09375 
C 31.40625 2.203125 34.90625 -1.59375 36.703125 -4.203125 
C 42 1.90625 46.5 9.796875 50.09375 19 
C 52.59375 14.296875 54.703125 9.796875 56.203125 6.09375 
L 64.703125 13.703125 
C 62.5 18.90625 58.796875 25.59375 54.59375 32.59375 
C 57.703125 44 59.796875 56.90625 61 71.09375 
L 54.296875 73.09375 
L 52.40625 72.796875 
L 34.59375 72.796875 
L 34.59375 62.59375 
L 49.796875 62.59375 
C 49.09375 56.59375 48.09375 50.703125 46.90625 45.09375 
L 39.203125 56.90625 
z
M 61.09375 43.5 
C 64.90625 36.296875 69.09375 26.5 70.796875 20.296875 
L 79.203125 23.90625 
L 79.203125 4.796875 
C 79.203125 3.296875 78.703125 2.90625 77.203125 2.90625 
C 75.703125 2.796875 71.09375 2.796875 66.296875 3 
C 67.90625 -0.296875 69.296875 -5.296875 69.703125 -8.40625 
C 77.09375 -8.40625 82.203125 -8 85.59375 -6.09375 
C 88.90625 -4.203125 90 -1.09375 90 4.796875 
L 90 53.5 
L 96.703125 53.5 
L 96.703125 64.203125 
L 90 64.203125 
L 90 84.5 
L 79.203125 84.5 
L 79.203125 64.203125 
L 61.796875 64.203125 
L 61.796875 53.5 
L 79.203125 53.5 
L 79.203125 26.296875 
C 77.09375 32.296875 73.40625 40.5 69.703125 46.90625 
z
M 13.59375 85 
L 13.59375 64.796875 
L 4.09375 64.796875 
L 4.09375 53.90625 
L 13.59375 53.90625 
L 13.59375 53.5 
C 11.40625 41.59375 6.796875 27.296875 1.796875 18.796875 
C 3.5 16 6.09375 11.59375 7.203125 8.40625 
C 9.5 12.296875 11.703125 17.5 13.59375 23.203125 
L 13.59375 -8.90625 
L 24 -8.90625 
L 24 35.59375 
C 25.90625 31 27.703125 26.203125 28.703125 23 
L 34.703125 32.796875 
C 33.296875 35.796875 25.90625 49.296875 24 52.5 
L 24 53.90625 
L 31.90625 53.90625 
L 31.90625 64.796875 
L 24 64.796875 
L 24 85 
z
" id="SourceHanSansSC-Bold-26641"/>
    </defs>
    <g style="fill:#d3d3d3;" transform="translate(282.272728 304.02)scale(0.1 -0.1)">
     <use xlink:href="#SourceHanSansSC-Bold-64"/>
     <use x="100.699982" xlink:href="#SourceHanSansSC-Bold-19968"/>
     <use x="200.699966" xlink:href="#SourceHanSansSC-Bold-26869"/>
     <use x="300.699951" xlink:href="#SourceHanSansSC-Bold-24179"/>
     <use x="400.699936" xlink:href="#SourceHanSansSC-Bold-34913"/>
     <use x="500.699921" xlink:href="#SourceHanSansSC-Bold-26641"/>
    </g>
   </g>
   <g id="text_40">
    <!-- 原神双UP中一把特定武器获取概率 -->
    <defs>
     <path d="M 41.296875 38.703125 
L 75.90625 38.703125 
L 75.90625 32.09375 
L 41.296875 32.09375 
z
M 41.296875 53.5 
L 75.90625 53.5 
L 75.90625 47 
L 41.296875 47 
z
M 69.296875 15.296875 
C 74.703125 8.703125 82.296875 -0.296875 85.703125 -5.703125 
L 96 0.203125 
C 92.09375 5.5 84.203125 14.203125 78.90625 20.296875 
z
M 35.703125 20.203125 
C 31.796875 13.59375 25.59375 6 19.90625 1.203125 
C 22.796875 -0.296875 27.59375 -3.40625 30 -5.296875 
C 35.296875 0.09375 42.296875 8.90625 47.09375 16.5 
z
M 11.09375 80.5 
L 11.09375 51.5 
C 11.09375 36 10.40625 14.203125 2.09375 -0.796875 
C 5.09375 -1.90625 10.40625 -4.90625 12.703125 -6.796875 
C 21.59375 9.40625 22.90625 34.59375 22.90625 51.5 
L 22.90625 69.703125 
L 95.09375 69.703125 
L 95.09375 80.5 
z
M 50.5 69.59375 
C 49.796875 67.5 48.703125 65 47.5 62.5 
L 29.59375 62.5 
L 29.59375 23.09375 
L 52.90625 23.09375 
L 52.90625 3.09375 
C 52.90625 1.90625 52.5 1.59375 51 1.59375 
C 49.59375 1.59375 44.703125 1.59375 40.40625 1.703125 
C 41.703125 -1.296875 43.296875 -5.703125 43.703125 -8.90625 
C 50.796875 -8.90625 56 -8.796875 59.796875 -7.203125 
C 63.59375 -5.59375 64.5 -2.59375 64.5 2.796875 
L 64.5 23.09375 
L 88.203125 23.09375 
L 88.203125 62.5 
L 61.296875 62.5 
L 64.90625 67.796875 
z
" id="SourceHanSansSC-Bold-21407"/>
     <path d="M 52.5 39.796875 
L 61.5 39.796875 
L 61.5 30 
L 52.5 30 
z
M 52.5 50.296875 
L 52.5 59.90625 
L 61.5 59.90625 
L 61.5 50.296875 
z
M 82.296875 39.796875 
L 82.296875 30 
L 73.203125 30 
L 73.203125 39.796875 
z
M 82.296875 50.296875 
L 73.203125 50.296875 
L 73.203125 59.90625 
L 82.296875 59.90625 
z
M 61.5 85 
L 61.5 70.59375 
L 41.59375 70.59375 
L 41.59375 14.796875 
L 52.5 14.796875 
L 52.5 19.40625 
L 61.5 19.40625 
L 61.5 -8.796875 
L 73.203125 -8.796875 
L 73.203125 19.40625 
L 82.296875 19.40625 
L 82.296875 15.796875 
L 93.59375 15.796875 
L 93.59375 70.59375 
L 73.203125 70.59375 
L 73.203125 85 
z
M 13.40625 80 
C 16 76.5 18.90625 71.796875 20.703125 68.203125 
L 4.203125 68.203125 
L 4.203125 57.40625 
L 25.796875 57.40625 
C 20 46.796875 11 37 1.703125 31.5 
C 3.09375 29.09375 5.296875 22.59375 5.90625 19.09375 
C 9.5 21.5 13 24.5 16.5 27.90625 
L 16.5 -8.90625 
L 27.40625 -8.90625 
L 27.40625 30.296875 
C 30.09375 26.796875 32.703125 23.09375 34.40625 20.5 
L 41.296875 30.5 
C 39.5 32.40625 32.703125 39.40625 28.796875 42.90625 
C 33.203125 49.5 37 56.703125 39.59375 64.09375 
L 33.796875 68.59375 
L 31.796875 68.203125 
L 24.296875 68.203125 
L 31.296875 72.40625 
C 29.40625 75.90625 25.90625 81.203125 22.796875 85.09375 
z
" id="SourceHanSansSC-Bold-31070"/>
     <path d="M 80.40625 66.203125 
C 78.40625 53.203125 74.90625 41.796875 70 32.203125 
C 65.703125 42.203125 62.796875 53.796875 60.90625 66.203125 
z
M 49.09375 77.59375 
L 49.09375 66.203125 
L 54.5 66.203125 
L 49.59375 65.40625 
C 52.40625 48 56.296875 32.703125 62.40625 20.09375 
C 56.203125 12 48.59375 5.796875 39.703125 1.796875 
C 42.40625 -0.59375 45.90625 -5.5 47.59375 -8.703125 
C 55.90625 -4.203125 63.09375 1.40625 69.203125 8.40625 
C 74.203125 1.40625 80.40625 -4.5 87.90625 -9 
C 89.796875 -5.796875 93.59375 -1.09375 96.40625 1.296875 
C 88.40625 5.5 82.09375 11.59375 77 19.203125 
C 85.59375 33.40625 91.09375 52 93.40625 75.90625 
L 85.5 78 
L 83.5 77.59375 
z
M 4.90625 51.5 
C 10.90625 44.703125 17.40625 36.703125 23.203125 28.796875 
C 17.796875 16.703125 10.703125 7 2.09375 0.796875 
C 5 -1.40625 8.796875 -5.90625 10.703125 -8.90625 
C 19 -2.203125 25.796875 6.5 31.203125 17.09375 
C 34.09375 12.59375 36.5 8.40625 38.203125 4.703125 
L 48.296875 13.203125 
C 45.703125 18.40625 41.703125 24.40625 37 30.703125 
C 41.59375 43.5 44.59375 58.5 46.203125 75.796875 
L 38.5 78 
L 36.40625 77.59375 
L 5.59375 77.59375 
L 5.59375 66.203125 
L 33.296875 66.203125 
C 32.09375 57.703125 30.40625 49.59375 28.09375 42.09375 
C 23.296875 47.90625 18.296875 53.59375 13.703125 58.59375 
z
" id="SourceHanSansSC-Bold-21452"/>
     <path d="M 37.59375 -1.40625 
C 55.59375 -1.40625 66.09375 8.796875 66.09375 33.296875 
L 66.09375 74.09375 
L 51.90625 74.09375 
L 51.90625 32 
C 51.90625 16.59375 46.203125 11.40625 37.59375 11.40625 
C 28.90625 11.40625 23.5 16.59375 23.5 32 
L 23.5 74.09375 
L 8.796875 74.09375 
L 8.796875 33.296875 
C 8.796875 8.796875 19.40625 -1.40625 37.59375 -1.40625 
z
" id="SourceHanSansSC-Bold-85"/>
     <path d="M 9.09375 0 
L 23.90625 0 
L 23.90625 26.296875 
L 33.796875 26.296875 
C 49.703125 26.296875 62.40625 33.90625 62.40625 50.796875 
C 62.40625 68.296875 49.796875 74.09375 33.40625 74.09375 
L 9.09375 74.09375 
z
M 23.90625 38 
L 23.90625 62.296875 
L 32.296875 62.296875 
C 42.5 62.296875 47.90625 59.40625 47.90625 50.796875 
C 47.90625 42.296875 43 38 32.796875 38 
z
" id="SourceHanSansSC-Bold-80"/>
     <path d="M 43.40625 85 
L 43.40625 67.59375 
L 8.796875 67.59375 
L 8.796875 16.90625 
L 20.796875 16.90625 
L 20.796875 22.40625 
L 43.40625 22.40625 
L 43.40625 -8.90625 
L 56.09375 -8.90625 
L 56.09375 22.40625 
L 78.796875 22.40625 
L 78.796875 17.40625 
L 91.40625 17.40625 
L 91.40625 67.59375 
L 56.09375 67.59375 
L 56.09375 85 
z
M 20.796875 34.203125 
L 20.796875 55.796875 
L 43.40625 55.796875 
L 43.40625 34.203125 
z
M 78.796875 34.203125 
L 56.09375 34.203125 
L 56.09375 55.796875 
L 78.796875 55.796875 
z
" id="SourceHanSansSC-Bold-20013"/>
     <path d="M 52.296875 68.5 
L 60.796875 68.5 
L 60.796875 41.796875 
L 52.296875 41.796875 
z
M 39.90625 80.296875 
L 39.90625 11.90625 
C 39.90625 -3.09375 44.203125 -6.796875 58.09375 -6.796875 
C 61.40625 -6.796875 76.5 -6.796875 80 -6.796875 
C 92.5 -6.796875 96.40625 -1.296875 98 13.796875 
C 94.5 14.59375 89.296875 16.703125 86.40625 18.59375 
C 85.5 7.40625 84.5 4.796875 78.796875 4.796875 
C 75.703125 4.796875 62.40625 4.796875 59.5 4.796875 
C 53.203125 4.796875 52.296875 5.703125 52.296875 11.796875 
L 52.296875 30.40625 
L 80.59375 30.40625 
L 80.59375 24.203125 
L 93.296875 24.203125 
L 93.296875 80.296875 
z
M 80.59375 41.796875 
L 71.90625 41.796875 
L 71.90625 68.5 
L 80.59375 68.5 
z
M 14.703125 85 
L 14.703125 66.09375 
L 4 66.09375 
L 4 55 
L 14.703125 55 
L 14.703125 36.796875 
L 2.296875 33.90625 
L 5.203125 22.40625 
L 14.703125 24.90625 
L 14.703125 3.703125 
C 14.703125 2.5 14.296875 2.09375 13.09375 2.09375 
C 12 2 8.59375 2 5.40625 2.203125 
C 6.796875 -0.90625 8.296875 -5.796875 8.59375 -8.796875 
C 14.90625 -8.796875 19.203125 -8.40625 22.40625 -6.59375 
C 25.5 -4.796875 26.5 -1.796875 26.5 3.796875 
L 26.5 28.09375 
L 37.796875 31.09375 
L 36.296875 42.203125 
L 26.5 39.703125 
L 26.5 55 
L 35.703125 55 
L 35.703125 66.09375 
L 26.5 66.09375 
L 26.5 85 
z
" id="SourceHanSansSC-Bold-25226"/>
     <path d="M 45.59375 20.09375 
C 49.796875 15.296875 54.703125 8.59375 56.703125 4.296875 
L 65.796875 10.5 
C 63.59375 14.796875 58.5 21 54.296875 25.5 
L 74.59375 25.5 
L 74.59375 4.59375 
C 74.59375 3.296875 74.09375 3 72.5 2.90625 
C 71 2.90625 65.59375 2.90625 60.796875 3.09375 
C 62.40625 -0.203125 63.90625 -5.40625 64.296875 -8.796875 
C 71.59375 -8.796875 77.203125 -8.59375 81 -6.796875 
C 84.90625 -4.90625 86 -1.59375 86 4.40625 
L 86 25.5 
L 95.796875 25.5 
L 95.796875 36.5 
L 86 36.5 
L 86 45.59375 
L 96.796875 45.59375 
L 96.796875 56.703125 
L 74.59375 56.703125 
L 74.59375 65.203125 
L 92.5 65.203125 
L 92.5 76.09375 
L 74.59375 76.09375 
L 74.59375 85 
L 63.203125 85 
L 63.203125 76.09375 
L 45.796875 76.09375 
L 45.796875 65.203125 
L 63.203125 65.203125 
L 63.203125 56.703125 
L 40.09375 56.703125 
L 40.09375 45.59375 
L 74.59375 45.59375 
L 74.59375 36.5 
L 42 36.5 
L 42 25.5 
L 54 25.5 
z
M 7.5 77.09375 
C 6.796875 64.90625 5.09375 51.796875 2.40625 43.796875 
C 4.796875 42.796875 9.203125 40.703125 11.203125 39.296875 
C 12.40625 43.296875 13.5 48.40625 14.40625 54 
L 19.90625 54 
L 19.90625 32.703125 
C 13.796875 31.09375 8.296875 29.703125 3.90625 28.703125 
L 6.40625 16.5 
L 19.90625 20.59375 
L 19.90625 -9 
L 31.296875 -9 
L 31.296875 24.09375 
L 40 26.796875 
L 39.09375 37.90625 
L 31.296875 35.796875 
L 31.296875 54 
L 39 54 
L 39 65.5 
L 31.296875 65.5 
L 31.296875 84.90625 
L 19.90625 84.90625 
L 19.90625 65.5 
L 16 65.5 
L 16.90625 75.296875 
z
" id="SourceHanSansSC-Bold-29305"/>
     <path d="M 20.203125 38.09375 
C 18.40625 20.796875 13.5 6.90625 2.59375 -1.09375 
C 5.296875 -2.796875 10.40625 -7 12.296875 -9.09375 
C 18.09375 -4.203125 22.5 2.296875 25.703125 10.203125 
C 34.90625 -4.40625 48.59375 -7.5 67.40625 -7.5 
L 92.5 -7.5 
C 93.09375 -3.90625 95 1.90625 96.796875 4.703125 
C 90 4.5 73.40625 4.5 68 4.5 
C 63.796875 4.5 59.90625 4.703125 56.203125 5.203125 
L 56.203125 19.59375 
L 83.703125 19.59375 
L 83.703125 30.796875 
L 56.203125 30.796875 
L 56.203125 42.796875 
L 77.59375 42.796875 
L 77.59375 54.203125 
L 22.296875 54.203125 
L 22.296875 42.796875 
L 43.703125 42.796875 
L 43.703125 8.796875 
C 37.90625 11.703125 33.296875 16.59375 30.296875 24.59375 
C 31.203125 28.5 31.90625 32.59375 32.40625 36.90625 
z
M 40.90625 82.703125 
C 42.09375 80.09375 43.40625 77.203125 44.296875 74.40625 
L 7.09375 74.40625 
L 7.09375 49.203125 
L 18.90625 49.203125 
L 18.90625 63 
L 80.703125 63 
L 80.703125 49.203125 
L 93 49.203125 
L 93 74.40625 
L 58.09375 74.40625 
C 56.90625 78 54.796875 82.5 52.90625 86 
z
" id="SourceHanSansSC-Bold-23450"/>
     <path d="M 72 77.59375 
C 77.09375 73.40625 82.796875 67.296875 85.296875 63.203125 
L 94.09375 70 
C 91.40625 74.09375 85.40625 79.796875 80.296875 83.703125 
z
M 12.703125 80.40625 
L 12.703125 69.796875 
L 50.703125 69.796875 
L 50.703125 80.40625 
z
M 57.296875 84.5 
C 57.296875 76.796875 57.5 69.203125 57.796875 61.703125 
L 5 61.703125 
L 5 50.703125 
L 58.40625 50.703125 
C 60.796875 17.59375 67.40625 -9.09375 82.59375 -9.09375 
C 91.59375 -9.09375 95.40625 -4.5 97 14.296875 
C 93.90625 15.59375 89.703125 18.296875 87.203125 21 
C 86.703125 8.40625 85.703125 2.796875 83.703125 2.796875 
C 77.5 2.796875 72.40625 23.5 70.40625 50.703125 
L 95 50.703125 
L 95 61.703125 
L 69.703125 61.703125 
C 69.40625 69.09375 69.296875 76.796875 69.5 84.5 
z
M 11.40625 41.40625 
L 11.40625 5.203125 
L 3.09375 4 
L 6.09375 -7.703125 
C 20.5 -5.09375 40.703125 -1.5 59.203125 2.09375 
L 58.296875 13.296875 
L 41.40625 10.296875 
L 41.40625 26.09375 
L 55.90625 26.09375 
L 55.90625 36.59375 
L 41.40625 36.59375 
L 41.40625 47.90625 
L 29.90625 47.90625 
L 29.90625 8.296875 
L 22.40625 7 
L 22.40625 41.40625 
z
" id="SourceHanSansSC-Bold-27494"/>
     <path d="M 22.703125 70.796875 
L 33.796875 70.796875 
L 33.796875 61.796875 
L 22.703125 61.796875 
z
M 64.796875 70.796875 
L 76.90625 70.796875 
L 76.90625 61.796875 
L 64.796875 61.796875 
z
M 60.59375 48.203125 
C 63.796875 46.90625 67.59375 45 70.703125 43.09375 
L 48.40625 43.09375 
C 50 45.59375 51.40625 48.203125 52.703125 50.796875 
L 45.203125 52.203125 
L 45.203125 80.90625 
L 12 80.90625 
L 12 51.703125 
L 40.09375 51.703125 
C 38.703125 48.796875 36.90625 45.90625 34.796875 43.09375 
L 4.5 43.09375 
L 4.5 32.703125 
L 24.296875 32.703125 
C 18.40625 28 11 23.90625 2 20.59375 
C 4.203125 18.5 7.203125 14 8.40625 11.203125 
L 12 12.796875 
L 12 -9 
L 23 -9 
L 23 -6.59375 
L 33.703125 -6.59375 
L 33.703125 -8.40625 
L 45.203125 -8.40625 
L 45.203125 22.703125 
L 29.203125 22.703125 
C 33.40625 25.796875 37.09375 29.203125 40.40625 32.703125 
L 57.09375 32.703125 
C 60.203125 29.09375 63.90625 25.703125 67.90625 22.703125 
L 54.09375 22.703125 
L 54.09375 -9 
L 65.09375 -9 
L 65.09375 -6.59375 
L 76.90625 -6.59375 
L 76.90625 -8.40625 
L 88.5 -8.40625 
L 88.5 11.703125 
L 91.09375 10.796875 
C 92.796875 13.703125 96.09375 18.203125 98.703125 20.40625 
C 88.90625 22.90625 79.40625 27.296875 72.203125 32.703125 
L 95.59375 32.703125 
L 95.59375 43.09375 
L 78.5 43.09375 
L 81.59375 46.203125 
C 79.40625 48 75.90625 50 72.203125 51.703125 
L 88.40625 51.703125 
L 88.40625 80.90625 
L 54 80.90625 
L 54 51.703125 
L 64.203125 51.703125 
z
M 23 3.703125 
L 23 12.40625 
L 33.703125 12.40625 
L 33.703125 3.703125 
z
M 65.09375 3.703125 
L 65.09375 12.40625 
L 76.90625 12.40625 
L 76.90625 3.703125 
z
" id="SourceHanSansSC-Bold-22120"/>
     <path d="M 59.59375 59.703125 
L 59.59375 44.296875 
L 59.59375 43.796875 
L 39 43.796875 
L 39 32.703125 
L 58.703125 32.703125 
C 56.796875 21.5 51.203125 8.90625 35.5 -1.40625 
C 38.40625 -3.40625 42.296875 -6.703125 44.296875 -9.203125 
C 56.296875 -1.40625 62.90625 8.203125 66.59375 17.796875 
C 71.40625 6.09375 78.40625 -3.09375 88.796875 -8.59375 
C 90.40625 -5.5 93.796875 -1 96.40625 1.203125 
C 83.703125 6.703125 76 18.296875 71.796875 32.703125 
L 94.296875 32.703125 
L 94.296875 43.796875 
L 84.296875 43.796875 
L 91.5 48.90625 
C 89.296875 52.59375 84.296875 57.40625 79.90625 60.703125 
L 71.796875 55.09375 
C 75.59375 51.796875 80 47.296875 82.296875 43.796875 
L 70.796875 43.796875 
L 70.796875 44.203125 
L 70.796875 59.703125 
z
M 61.40625 85 
L 61.40625 78 
L 39 78 
L 39 85 
L 27.09375 85 
L 27.09375 78 
L 5.59375 78 
L 5.59375 67.296875 
L 27.09375 67.296875 
L 27.09375 60.59375 
L 39 60.59375 
L 39 67.296875 
L 61.40625 67.296875 
L 61.40625 61.59375 
L 73.40625 61.59375 
L 73.40625 67.296875 
L 94.59375 67.296875 
L 94.59375 78 
L 73.40625 78 
L 73.40625 85 
z
M 30.203125 60.296875 
C 28.703125 58.59375 26.796875 56.796875 24.796875 55 
C 22.296875 57.296875 19.296875 59.59375 15.703125 61.703125 
L 7.90625 55.5 
C 11.40625 53.40625 14.203125 51.203125 16.59375 48.796875 
C 12.296875 45.90625 7.59375 43.40625 2.90625 41.5 
C 5.203125 39.5 8.40625 35.90625 10 33.5 
C 14.203125 35.40625 18.5 37.796875 22.703125 40.5 
C 23.59375 38.703125 24.296875 36.90625 24.90625 35 
C 20.203125 28.40625 10.796875 21.296875 2.90625 18 
C 5.296875 15.90625 8.203125 12 9.796875 9.296875 
C 15.296875 12.5 21.5 17.40625 26.59375 22.5 
L 26.59375 21.703125 
C 26.59375 12.40625 25.796875 6.203125 23.796875 3.59375 
C 23 2.59375 22.203125 2.09375 20.703125 2 
C 18.59375 1.703125 14.90625 1.703125 10 2 
C 12 -0.90625 13.203125 -4.90625 13.296875 -8.296875 
C 18.09375 -8.5 22 -8.40625 25.796875 -7.59375 
C 28.203125 -7.09375 30.296875 -6 31.703125 -4.296875 
C 36.296875 0.59375 37.703125 9.90625 37.703125 20.90625 
C 37.703125 30 36.703125 38.796875 31.59375 47 
C 34.59375 49.5 37.5 52.203125 39.90625 55 
z
" id="SourceHanSansSC-Bold-33719"/>
     <path d="M 82.09375 63.203125 
C 80.296875 51.703125 77.40625 41.296875 73.5 32.203125 
C 69.703125 41.5 67 52 65 63.203125 
z
M 51 74.5 
L 51 63.203125 
L 54.40625 63.203125 
C 57.203125 46.703125 61.09375 31.90625 67 19.59375 
C 61.703125 11.09375 55.203125 4.40625 47.703125 -0.09375 
C 50.203125 -2.203125 53.5 -6.203125 55.203125 -9.09375 
C 62.203125 -4.40625 68.203125 1.40625 73.40625 8.40625 
C 77.90625 1.796875 83.296875 -3.796875 89.796875 -8.296875 
C 91.703125 -5.296875 95.296875 -1 97.90625 1 
C 90.703125 5.40625 84.90625 11.59375 80.203125 19.203125 
C 87.5 33.09375 92.40625 50.796875 94.59375 72.90625 
L 87.09375 74.90625 
L 85.09375 74.5 
z
M 3.40625 14.90625 
L 5.796875 3.40625 
L 32.703125 8 
L 32.703125 -8.796875 
L 44.40625 -8.796875 
L 44.40625 10.09375 
L 52.796875 11.59375 
L 52.203125 21.59375 
L 44.40625 20.5 
L 44.40625 70.296875 
L 50.296875 70.296875 
L 50.296875 81 
L 4.5 81 
L 4.5 70.296875 
L 10 70.296875 
L 10 15.703125 
z
M 21.5 70.296875 
L 32.703125 70.296875 
L 32.703125 60 
L 21.5 60 
z
M 21.5 49.796875 
L 32.703125 49.796875 
L 32.703125 38.90625 
L 21.5 38.90625 
z
M 21.5 28.703125 
L 32.703125 28.703125 
L 32.703125 18.796875 
L 21.5 17.203125 
z
" id="SourceHanSansSC-Bold-21462"/>
     <path d="M 13.40625 85 
L 13.40625 64.796875 
L 4.09375 64.796875 
L 4.09375 53.90625 
L 13.40625 53.90625 
L 13.40625 53.59375 
C 11.203125 41.59375 6.703125 27.296875 1.703125 18.796875 
C 3.40625 16 6 11.59375 7.09375 8.40625 
C 9.40625 12.203125 11.5 17.203125 13.40625 22.796875 
L 13.40625 -8.90625 
L 23.90625 -8.90625 
L 23.90625 35.09375 
C 25.5 31.09375 27 27 27.90625 24.09375 
L 33.703125 33.5 
L 33.703125 17.59375 
C 33.703125 12.796875 30.90625 9 29 7.40625 
C 30.703125 5.703125 33.59375 1.703125 34.5 -0.40625 
C 36.09375 1.5 38.703125 3.703125 53.40625 12.59375 
L 54.703125 8.296875 
L 63 12.40625 
C 61.59375 17.59375 57.796875 26.09375 54.5 32.5 
L 46.796875 29.09375 
C 48 26.5 49.296875 23.703125 50.40625 20.796875 
L 42.796875 16.703125 
L 42.796875 35.203125 
L 58.796875 35.203125 
L 58.796875 43.09375 
C 59.703125 41.09375 61.59375 37.09375 62.203125 35 
C 63.09375 35.796875 66.59375 36.40625 69.796875 36.40625 
L 72.90625 36.40625 
C 69.40625 22.59375 62.90625 8.40625 51 -3.5 
C 53.703125 -4.796875 57.59375 -7.59375 59.5 -9.296875 
C 66.40625 -2 71.59375 6.09375 75.40625 14.5 
L 75.40625 3.09375 
C 75.40625 -2.40625 75.796875 -4 77.40625 -5.59375 
C 78.796875 -7.09375 81 -7.703125 83.296875 -7.703125 
C 84.5 -7.703125 86.5 -7.703125 87.796875 -7.703125 
C 89.59375 -7.703125 91.40625 -7.09375 92.703125 -6.203125 
C 94.09375 -5.203125 94.90625 -3.703125 95.5 -1.59375 
C 96 0.59375 96.40625 6.296875 96.5 11.296875 
C 94.5 12 91.90625 13.40625 90.40625 14.59375 
C 90.5 10 90.40625 6.09375 90.203125 4.40625 
C 90 3.40625 89.703125 2.59375 89.296875 2.203125 
C 89 1.796875 88.40625 1.703125 87.796875 1.703125 
C 87.203125 1.703125 86.5 1.703125 86 1.703125 
C 85.40625 1.703125 84.90625 1.90625 84.59375 2.203125 
C 84.296875 2.5 84.296875 3.203125 84.296875 3.703125 
L 84.296875 31.59375 
L 81.5 31.59375 
L 82.703125 36.40625 
L 95.90625 36.40625 
L 96 46.09375 
L 84.5 46.09375 
C 85.796875 54.796875 86.203125 63.09375 86.296875 70.09375 
L 94.703125 70.09375 
L 94.703125 80.296875 
L 61.90625 80.296875 
L 61.90625 70.09375 
L 77.09375 70.09375 
C 77 63.09375 76.5 54.796875 75 46.09375 
L 70.203125 46.09375 
L 73.5 65.40625 
L 64.5 65.40625 
C 63.90625 60.796875 62 48.296875 61.203125 46.203125 
C 60.5 44.5 59.90625 43.796875 58.796875 43.40625 
L 58.796875 79.90625 
L 33.703125 79.90625 
L 33.703125 34.59375 
C 32 37.90625 25.796875 49.296875 23.90625 52.40625 
L 23.90625 53.90625 
L 31.59375 53.90625 
L 31.59375 64.796875 
L 23.90625 64.796875 
L 23.90625 85 
z
M 50.296875 53.5 
L 50.296875 44.796875 
L 42.796875 44.796875 
L 42.796875 53.5 
z
M 50.296875 62 
L 42.796875 62 
L 42.796875 70.40625 
L 50.296875 70.40625 
z
" id="SourceHanSansSC-Bold-27010"/>
     <path d="M 81.703125 64.296875 
C 78.5 60.296875 72.90625 54.90625 68.796875 51.703125 
L 77.59375 46.296875 
C 81.796875 49.296875 87.203125 53.90625 91.703125 58.5 
z
M 6.796875 57.5 
C 12.09375 54.296875 18.703125 49.40625 21.703125 46.09375 
L 30.203125 53.203125 
C 26.796875 56.5 20 61 14.796875 63.90625 
z
M 4.296875 20.59375 
L 4.296875 9.5 
L 43.59375 9.5 
L 43.59375 -8.796875 
L 56.40625 -8.796875 
L 56.40625 9.5 
L 95.796875 9.5 
L 95.796875 20.59375 
L 56.40625 20.59375 
L 56.40625 27.296875 
L 43.59375 27.296875 
L 43.59375 20.59375 
z
M 40.90625 82.703125 
L 44.296875 77 
L 6.90625 77 
L 6.90625 66.09375 
L 41.203125 66.09375 
C 39 62.703125 36.796875 60.09375 35.90625 59.09375 
C 34.296875 57.296875 32.796875 56 31.203125 55.59375 
C 32.296875 53.09375 33.90625 48.296875 34.5 46.296875 
C 36 46.90625 38.203125 47.40625 45.90625 47.90625 
C 42.40625 44.59375 39.5 42.09375 38 40.90625 
C 34.40625 38.09375 32.09375 36.296875 29.5 35.796875 
C 30.59375 33.09375 32.09375 28.203125 32.59375 26.203125 
C 35.09375 27.296875 39 28 62.90625 30.296875 
C 63.703125 28.5 64.40625 26.796875 64.90625 25.40625 
L 74.203125 28.90625 
C 73.40625 31.296875 71.90625 34.203125 70.203125 37.203125 
C 76.203125 33.5 82.796875 28.796875 86.296875 25.59375 
L 95.09375 32.703125 
C 90.5 36.59375 81.59375 42.09375 75.09375 45.59375 
L 68.296875 40.203125 
C 66.796875 42.59375 65.203125 44.90625 63.59375 46.90625 
L 54.90625 43.796875 
C 56 42.203125 57.203125 40.5 58.296875 38.703125 
L 47.796875 38 
C 55.796875 44.40625 63.796875 52.203125 70.59375 60.203125 
L 61.59375 65.59375 
C 59.59375 62.90625 57.40625 60.09375 55.09375 57.5 
L 45.90625 57.203125 
C 48.40625 60 50.796875 63 52.90625 66.09375 
L 94.40625 66.09375 
L 94.40625 77 
L 58.59375 77 
C 57.203125 79.703125 55.09375 83 53.09375 85.5 
z
M 4 35.40625 
L 9.796875 25.796875 
C 15.703125 28.59375 22.796875 32.203125 29.5 35.796875 
L 31.296875 36.796875 
L 29 45.5 
C 19.796875 41.703125 10.296875 37.703125 4 35.40625 
z
" id="SourceHanSansSC-Bold-29575"/>
    </defs>
    <g transform="translate(105.7875 37.2)scale(0.15 -0.15)">
     <use xlink:href="#SourceHanSansSC-Bold-21407"/>
     <use x="99.999985" xlink:href="#SourceHanSansSC-Bold-31070"/>
     <use x="199.999969" xlink:href="#SourceHanSansSC-Bold-21452"/>
     <use x="299.999954" xlink:href="#SourceHanSansSC-Bold-85"/>
     <use x="374.799942" xlink:href="#SourceHanSansSC-Bold-80"/>
     <use x="441.499939" xlink:href="#SourceHanSansSC-Bold-20013"/>
     <use x="541.499924" xlink:href="#SourceHanSansSC-Bold-19968"/>
     <use x="641.499908" xlink:href="#SourceHanSansSC-Bold-25226"/>
     <use x="741.499893" xlink:href="#SourceHanSansSC-Bold-29305"/>
     <use x="841.499878" xlink:href="#SourceHanSansSC-Bold-23450"/>
     <use x="941.499863" xlink:href="#SourceHanSansSC-Bold-27494"/>
     <use x="1041.499847" xlink:href="#SourceHanSansSC-Bold-22120"/>
     <use x="1141.499832" xlink:href="#SourceHanSansSC-Bold-33719"/>
     <use x="1241.499817" xlink:href="#SourceHanSansSC-Bold-21462"/>
     <use x="1341.499802" xlink:href="#SourceHanSansSC-Bold-27010"/>
     <use x="1441.499786" xlink:href="#SourceHanSansSC-Bold-29575"/>
    </g>
   </g>
  </g>
 </g>
 <defs>
  <clipPath id="p8795349abd">
   <rect height="277.2" width="334.8" x="54" y="43.2"/>
  </clipPath>
 </defs>
</svg>
